<?xml version="1.0" encoding="utf-8"?>
<!-- Generator: Adobe Illustrator 27.2.0, SVG Export Plug-In . SVG Version: 6.00 Build 0)  -->
<svg version="1.1" id="uuid-21ff5d16-7453-4091-93aa-1659d9920560"
	 xmlns="http://www.w3.org/2000/svg" xmlns:xlink="http://www.w3.org/1999/xlink" x="0px" y="0px" viewBox="0 0 323.1 146.5"
	 style="enable-background:new 0 0 323.1 146.5;" xml:space="preserve">
<style type="text/css">
	.st0{fill-rule:evenodd;clip-rule:evenodd;fill:#FFFFFF;}
	.st1{fill-rule:evenodd;clip-rule:evenodd;fill:#FDCB00;}
	.st2{fill-rule:evenodd;clip-rule:evenodd;fill:#FDCB00;stroke:#FDCB00;stroke-width:0.75;stroke-miterlimit:22.93;}
	.st3{fill:none;stroke:#FDCB00;stroke-width:0.75;stroke-miterlimit:22.93;}
</style>
<g>
	<g>
		<polygon class="st0" points="160,21.5 160,57.5 149.8,57.5 149.8,29.4 120,29.4 120,57.5 109.7,57.5 109.7,21.5 160,21.5 		"/>
		<path class="st0" d="M45.5,76.6c0,4.6-0.3,8.6-0.8,11.9c-0.5,3.4-1.4,6.3-2.6,8.8c-1.2,2.5-2.8,4.5-4.5,6.1
			c-1.8,1.6-4.1,2.9-6.8,3.8s-5.8,1.6-9.1,2s-7.2,0.6-11.8,0.6V122H0.3V76.6L45.5,76.6L45.5,76.6z M9.8,102.6
			c5.5,0,9.9-0.3,13.2-0.8c3.3-0.6,6-1.6,8-3.2c2-1.6,3.4-3.5,4.1-5.9c0.7-2.4,1.1-5.5,1.1-9.4H9.8L9.8,102.6L9.8,102.6L9.8,102.6z"
			/>
		<path class="st0" d="M74.8,103.2c4.2,0,7.2-0.3,9-1c1.8-0.7,2.9-1.8,3.4-3.2h9.5c-0.5,3.3-2.6,6.1-6.4,8.3
			c-3.8,2.2-8.9,3.3-15.4,3.3c-7.6,0-13.3-1.6-17.2-4.7c-3.9-3.1-5.8-7.3-5.8-12.5s1.9-9.4,5.8-12.5c3.9-3.1,9.6-4.7,17.2-4.7
			c15,0,22.5,6.7,22.5,20.1H61.5c0.5,2.5,1.7,4.3,3.8,5.4C67.3,102.6,70.5,103.1,74.8,103.2L74.8,103.2L74.8,103.2z M74.8,83.3
			c-4.4,0-7.6,0.6-9.7,1.8c-2.1,1.2-3.3,3.1-3.8,5.6H88c-0.3-2.9-1.6-4.9-3.8-5.9C82.1,83.8,78.9,83.3,74.8,83.3L74.8,83.3z"/>
		<polygon class="st0" points="150.8,76.6 160.3,76.6 160.3,109.9 102.1,109.9 102.1,76.6 111.5,76.6 111.5,102.6 126.4,102.6 
			126.4,76.6 135.9,76.6 135.9,102.6 150.8,102.6 150.8,76.6 		"/>
		<path class="st1" d="M188.8,76c2.7,0,5.2,0.3,7.3,0.8c2.1,0.5,4.1,1.4,5.8,2.6c1.8,1.2,3.2,2.9,4.1,5.1c1,2.2,1.5,4.9,1.5,8.1
			v17.2H198v-6.4c-1.1,2.1-2.7,3.7-4.9,5.1c-2.2,1.3-4.9,2-8.2,2c-5.9,0-10.4-1-13.2-2.9c-2.9-1.9-4.3-4.3-4.3-7.1
			c0-6.9,5.8-10.7,17.5-11.2l3.6-0.2c3.8-0.2,6.2-0.5,7.3-1c1.1-0.4,1.7-1.1,1.7-2c0-1.9-2.9-2.8-8.7-2.8c-7.1,0-10.6,1.9-10.6,5.7
			h-9.5c0-2.3,0.6-4.3,1.7-6s2.7-3.1,4.6-4.1c1.9-1,4-1.7,6.4-2.2C183.7,76.3,186.2,76,188.8,76L188.8,76L188.8,76z M198,94.9
			L198,94.9c-2.5,0.4-5.7,0.7-9.6,0.9l-3.5,0.2c-5.4,0.3-8.1,1.5-8.1,3.8s2.7,3.4,8.1,3.4c3.9,0,7.1-0.8,9.5-2.3
			C196.8,99.3,198,97.3,198,94.9L198,94.9L198,94.9z"/>
		<path class="st0" d="M237.6,103.2c4.2,0,7.2-0.3,9-1c1.8-0.7,2.9-1.8,3.4-3.2h9.5c-0.5,3.3-2.6,6.1-6.4,8.3
			c-3.8,2.2-8.9,3.3-15.4,3.3c-7.6,0-13.3-1.6-17.2-4.7c-3.9-3.1-5.8-7.3-5.8-12.5s1.9-9.4,5.8-12.5c3.9-3.1,9.6-4.7,17.2-4.7
			c15,0,22.5,6.7,22.5,20.1h-35.8c0.5,2.5,1.7,4.3,3.8,5.4C230.1,102.6,233.3,103.1,237.6,103.2L237.6,103.2L237.6,103.2z
			 M237.6,83.3c-4.4,0-7.6,0.6-9.7,1.8c-2.1,1.2-3.3,3.1-3.8,5.6h26.6c-0.3-2.9-1.6-4.9-3.8-5.9C244.9,83.8,241.7,83.3,237.6,83.3
			L237.6,83.3L237.6,83.3z"/>
		<polygon class="st0" points="322.6,76.6 322.6,109.9 312.4,109.9 312.4,86 298.3,109.9 292.3,109.9 277.5,85.6 277.5,109.9 
			267.2,109.9 267.2,76.6 282.6,76.6 295.6,98 308,76.6 		"/>
	</g>
	<path class="st1" d="M203.9,75.9h4.2V77h-5.6c0-0.4,0-0.7,0.1-1c0.1-0.3,0.2-0.5,0.3-0.7c0.1-0.2,0.3-0.4,0.5-0.6
		c0.2-0.2,0.5-0.4,0.7-0.5c0.2-0.1,0.5-0.3,0.9-0.5l0.8-0.4c0.4-0.2,0.6-0.4,0.8-0.6c0.2-0.2,0.3-0.4,0.3-0.7c0-0.7-0.5-1.1-1.4-1.1
		c-0.5,0-0.9,0.1-1.2,0.4c-0.3,0.3-0.4,0.6-0.4,1h-1.2c0-0.8,0.2-1.4,0.7-1.8s1.2-0.7,2.1-0.7c0.8,0,1.5,0.2,1.9,0.6
		c0.5,0.4,0.7,0.9,0.7,1.7c0,0.3,0,0.6-0.1,0.8c-0.1,0.2-0.2,0.4-0.5,0.6c-0.2,0.2-0.4,0.3-0.6,0.4c-0.2,0.1-0.4,0.3-0.8,0.5
		l-0.8,0.4c-0.6,0.3-0.9,0.5-1.1,0.6C204.1,75.5,204,75.7,203.9,75.9L203.9,75.9L203.9,75.9z"/>
	<path class="st2" d="M176.8,57.8c0-0.4,0.1-0.6,0-0.7c-1.9-1.3,0.5-2,0.6-3c0-0.3,0.8,0.4,1.1,0.4c2.9,0.7,6.1,0.4,8.7-0.9
		c0.3-0.2,0.2-0.6,0.1-0.8c-0.4-0.5-5.3,1.8-8.3,0.7c-0.3-0.1-0.3-0.5-0.1-0.7c1.5-1.2,0.4-2.9,0.2-4.2c-0.4-2.4-1.6-4.6-3.6-6.5
		c-0.5-0.5-0.7-0.6,0.2-0.9c0.6-0.2,0.1-0.5,0-0.9c-0.2-0.6-0.5-1.3,0.5-1.5c0.9-0.2,1.5,0.1,1.8,0.9c0.1,0.2,0.1,0.5,0.3,0.7
		c0.2,0.2,0.5,0.3,0.8,0.2c0.4-0.1,0.3-0.4,0.1-0.6c-0.1-0.1-0.2-0.3-0.3-0.4c-0.3-0.5-0.4-1,0-1.5c0.2-0.3,0.8-0.3,1.1-0.3
		c0.7,0.1,1.1,0.8,1.1,1.3c0,0.8,0,1.2,1,1.1c1.1,0,0.8-0.7,0.8-1.3c0-0.5,0.1-0.9,0.8-1c0.5-0.1,0.9,0.1,0.9,0.5
		c0,1.2,0.6,1.6,1.5,1.4c0.3-0.1,0.5,0.5,0.3,0.8c-1.4,2.4-0.8,6.3-0.5,7.3c0.2,0.7,0.4,1.2,0.9,1.1c0.9-0.1,0.6-0.6,0.8-1
		c1.7-2.4,3.5-4.7,5-7.2c2.6-4.2,3.2-10.1-0.5-14.5c-0.5-0.6-1.7-2-2.5-2.9c1.7,0.3,3.1,2.3,3.8,3.2c1.9,2.6,2.6,5.4,2.1,8.7
		c-0.6,3.8-2.7,6.8-4.9,9.8c-1.1,1.5-2.4,3.1-2.3,5c0.1,1.3-0.5,2.6,0.4,3.8c0.2,0.2,0.1,0.6-0.2,0.7c-8.1,2.5-10.8-0.1-11.4,1
		c0,1.5,2.7,1.8,4.1,1.7c2.3-0.1,4.5-0.7,6.7-1.5c0.4-0.1,0.9-0.8,1.2,0c0.2,0.6,0,0.7-0.5,1c-1,0.5-2.1,0.8-3.2,0.9
		c-2.6,0.2-5.2,0.5-7.8,0.7C177,58.8,176.9,57.9,176.8,57.8L176.8,57.8L176.8,57.8z M181.1,41c-1,0.1-2,0.1-3,0.2
		c-0.9,0.2-1.8,0.6-0.9,1.6c2.2,2.2,2.7,4.9,3.1,7.6c0.1,0.9-1.1,2.1,0.3,2.5c0.9,0.3,2.2-0.1,3.3-0.2c0.3,0,0.7-0.1,1-0.2
		c2.2-0.6,2.6-1.5,1.4-3.2c-1-1.5-1.3-3-1.2-4.7C185.3,40.8,186.7,40.6,181.1,41L181.1,41z"/>
	<path class="st2" d="M178.7,59.2c3,0.2,5.9,0,8.9-0.9c0.1,0,0.3,0.1,0.3,0.2c-0.2,0.8-0.7,1.3-1,1.8c0,0,0,0.1-0.1,0.1
		c-1.7,0.7-3.7,1-5.5,1c-1.2,0-2.4-0.8-2.7-2C178.5,59.3,178.6,59.2,178.7,59.2L178.7,59.2L178.7,59.2z"/>
	<path class="st2" d="M164.6,39.9c-0.5,0.7-2.6,1.5-2.9,1.8c-0.2,0.2-0.5,0.2-0.6-0.1c-0.1-0.2,0.1-0.3,0.4-0.4
		C162.1,41,163.9,39.7,164.6,39.9z"/>
	<path class="st2" d="M204.2,38.7c-2.3,0.9-3.5-1-5.3-1.6C200.9,37.1,202.4,38.2,204.2,38.7z"/>
	<path class="st2" d="M164,28.6c0.8,0.6-2.4,0.5-3.3-0.4C161.9,28.1,163.1,28.1,164,28.6z"/>
	<path class="st2" d="M203.2,25.5c-1.5,1.6-3.4,2.1-4.9,1.4C200,26.6,201.3,25.4,203.2,25.5z"/>
	<g>
		<path class="st1" d="M194.8,18.6c0.5,0.3-0.1,0.6-0.4,0.9c-0.5,0.6-0.9,1.6-1.2,2.3c-0.1,0.4-0.8,0-0.6-0.4
			c0.8-0.7,1.1-1.4,1.6-2.2C194.3,18.9,194.3,18.3,194.8,18.6L194.8,18.6L194.8,18.6z"/>
		<path class="st3" d="M194.8,18.6c0.5,0.3-0.1,0.6-0.4,0.9c-0.5,0.6-0.9,1.6-1.2,2.3c-0.1,0.4-0.8,0-0.6-0.4
			c0.8-0.7,1.1-1.4,1.6-2.2C194.3,18.9,194.3,18.3,194.8,18.6"/>
	</g>
	<g>
		<path class="st1" d="M165.7,19c0.5-0.3,0.5,0.4,0.7,0.7c0.4,0.6,1.2,1.5,1.7,2c0.3,0.2-0.3,0.7-0.6,0.4c-0.3-0.9-0.9-1.6-1.4-2.3
			C165.8,19.5,165.2,19.3,165.7,19L165.7,19L165.7,19z"/>
		<path class="st3" d="M165.7,19c0.5-0.3,0.5,0.4,0.7,0.7c0.4,0.6,1.2,1.5,1.7,2c0.3,0.2-0.3,0.7-0.6,0.4c-0.3-0.9-0.9-1.6-1.4-2.3
			C165.8,19.5,165.2,19.3,165.7,19"/>
	</g>
	<path class="st2" d="M177.4,52.5c-1.2-3.5-4-5.4-6.5-7.5c-3-2.6-5-5.6-5.3-9.3c-0.1-1.2-0.8-2.4-0.5-3.7c1.3-4.7,3.7-8.5,9.3-10.3
		c1.7-0.5,3.4-0.6,5.2-0.6c-1.6,0.3-3.1,0.6-4.7,1.1c-4.1,1.3-8.5,5.6-8.8,9.5c-0.4,5.2,1.8,9.2,5.7,12.8c1.6,1.4,3.2,2.8,4.5,4.4
		C177.2,49.9,177.9,50.8,177.4,52.5L177.4,52.5L177.4,52.5z"/>
	<path class="st2" d="M180.2,18.8c0,0.2-1.1-0.1-1-0.3c0.4-1,0.2-1.8,0.1-2.7c0-0.3-0.2-0.7,0.3-0.7c0.4,0,0.3,0.3,0.3,0.6
		C179.8,16.8,180.1,17.8,180.2,18.8L180.2,18.8z"/>
</g>
</svg>
