<?xml version="1.0" encoding="UTF-8"?>
<svg id="uuid-21ff5d16-7453-4091-93aa-1659d9920560" data-name="Слой 2" xmlns="http://www.w3.org/2000/svg" viewBox="0 0 323.07 146.48">
  <defs>
    <style>
      .uuid-5ba0176e-5e24-4ec0-838b-cfb129c112dc {
        fill: #fff;
      }

      .uuid-5ba0176e-5e24-4ec0-838b-cfb129c112dc, .uuid-a2b9f6d8-54f3-4638-87b1-dc9f68160180, .uuid-b74c1457-1e9b-4753-a2ad-0e60bc58cfce, .uuid-ed6c35f0-0651-4df1-9fe9-2428f42b72f8 {
        fill-rule: evenodd;
      }

      .uuid-a2b9f6d8-54f3-4638-87b1-dc9f68160180 {
        fill: none;
      }

      .uuid-a2b9f6d8-54f3-4638-87b1-dc9f68160180, .uuid-b74c1457-1e9b-4753-a2ad-0e60bc58cfce {
        stroke: #fdcb00;
        stroke-miterlimit: 22.93;
        stroke-width: .75px;
      }

      .uuid-b74c1457-1e9b-4753-a2ad-0e60bc58cfce, .uuid-ed6c35f0-0651-4df1-9fe9-2428f42b72f8 {
        fill: #fdcb00;
      }
    </style>
  </defs>
  <g id="uuid-e10a8a85-73b9-4120-bbfe-1a21ec9a282c" data-name="Слой 1">
    <g>
      <g>
        <polygon class="uuid-5ba0176e-5e24-4ec0-838b-cfb129c112dc" points="160.05 6.78 160.05 42.73 149.79 42.73 149.79 14.63 119.93 14.63 119.93 42.74 109.66 42.74 109.66 6.78 160.06 6.78 160.05 6.78"/>
        <path class="uuid-5ba0176e-5e24-4ec0-838b-cfb129c112dc" d="m45.25,61.88c0,4.59-.26,8.57-.79,11.94-.52,3.37-1.41,6.3-2.65,8.8-1.24,2.5-2.76,4.54-4.54,6.13-1.79,1.59-4.07,2.86-6.84,3.81-2.77.95-5.8,1.61-9.09,1.99-3.29.38-7.24.57-11.82.57v12.09H0v-45.33h45.25Zm-35.75,25.99c5.48,0,9.89-.28,13.21-.85,3.32-.56,5.98-1.62,7.99-3.17,2-1.55,3.36-3.51,4.07-5.86.71-2.36,1.07-5.49,1.07-9.4H9.49v19.28h0Z"/>
        <path class="uuid-5ba0176e-5e24-4ec0-838b-cfb129c112dc" d="m74.67,88.42c4.21,0,7.21-.34,8.98-1.03,1.77-.68,2.89-1.75,3.36-3.21h9.49c-.48,3.35-2.62,6.11-6.45,8.28-3.82,2.18-8.95,3.26-15.39,3.26-7.6,0-13.34-1.57-17.25-4.72-3.91-3.14-5.85-7.31-5.85-12.51s1.95-9.37,5.85-12.51c3.91-3.14,9.65-4.72,17.25-4.72,15.03,0,22.55,6.69,22.55,20.07h-35.92c.48,2.5,1.74,4.3,3.8,5.41,2.06,1.11,5.25,1.66,9.57,1.66h0Zm0-19.88c-4.38,0-7.61.59-9.69,1.75-2.08,1.17-3.33,3.05-3.76,5.62h26.66c-.32-2.94-1.57-4.91-3.76-5.89-2.19-.99-5.34-1.48-9.45-1.48h0Z"/>
        <polygon class="uuid-5ba0176e-5e24-4ec0-838b-cfb129c112dc" points="150.85 61.88 160.35 61.88 160.35 95.12 101.97 95.12 101.97 61.88 111.46 61.88 111.46 87.87 126.41 87.87 126.41 61.88 135.9 61.88 135.9 87.87 150.85 87.87 150.85 61.88 150.85 61.88"/>
        <path class="uuid-ed6c35f0-0651-4df1-9fe9-2428f42b72f8" d="m188.9,61.27c2.74,0,5.17.26,7.28.78,2.11.52,4.06,1.38,5.85,2.57,1.79,1.19,3.17,2.9,4.15,5.14.97,2.24,1.47,4.95,1.47,8.13v17.23h-9.49v-6.41c-1.06,2.05-2.69,3.74-4.91,5.05-2.21,1.31-4.96,1.96-8.23,1.96-5.96,0-10.38-.97-13.25-2.9-2.88-1.93-4.31-4.29-4.31-7.07,0-6.93,5.85-10.68,17.56-11.24l3.56-.18c3.8-.2,6.25-.52,7.35-.97,1.11-.44,1.66-1.11,1.66-2,0-1.89-2.9-2.84-8.7-2.84-7.07,0-10.6,1.91-10.6,5.74h-9.49c0-2.29.56-4.31,1.7-6.04,1.14-1.73,2.66-3.09,4.59-4.05,1.92-.97,4.05-1.69,6.37-2.18,2.32-.48,4.8-.73,7.43-.73h0Zm9.26,18.93v-.06c-2.53.44-5.75.76-9.65.97l-3.48.18c-5.38.28-8.07,1.53-8.07,3.75s2.69,3.38,8.07,3.38c3.95,0,7.13-.78,9.53-2.33,2.4-1.55,3.6-3.51,3.6-5.89h0Z"/>
        <path class="uuid-5ba0176e-5e24-4ec0-838b-cfb129c112dc" d="m237.87,88.42c4.21,0,7.21-.34,8.98-1.03,1.77-.68,2.89-1.75,3.36-3.21h9.49c-.48,3.35-2.62,6.11-6.45,8.28-3.83,2.18-8.95,3.26-15.39,3.26-7.6,0-13.34-1.57-17.25-4.72-3.91-3.14-5.86-7.31-5.86-12.51s1.95-9.37,5.86-12.51c3.91-3.14,9.65-4.72,17.25-4.72,15.03,0,22.55,6.69,22.55,20.07h-35.92c.48,2.5,1.74,4.3,3.8,5.41,2.06,1.11,5.25,1.66,9.57,1.66h0Zm0-19.88c-4.38,0-7.61.59-9.69,1.75-2.08,1.17-3.33,3.05-3.76,5.62h26.66c-.32-2.94-1.57-4.91-3.76-5.89-2.19-.99-5.34-1.48-9.45-1.48h0Z"/>
        <polygon class="uuid-5ba0176e-5e24-4ec0-838b-cfb129c112dc" points="323.07 61.88 323.07 95.12 312.78 95.12 312.78 71.25 298.62 95.12 292.69 95.12 277.82 70.88 277.82 95.12 267.54 95.12 267.54 61.88 282.96 61.88 295.94 83.21 308.43 61.88 323.07 61.88"/>
      </g>
      <path class="uuid-ed6c35f0-0651-4df1-9fe9-2428f42b72f8" d="m204.02,61.11h4.26v1.13h-5.64c0-.36.04-.68.12-.97.08-.29.18-.54.3-.74.12-.2.3-.41.54-.61.24-.2.48-.37.71-.5.23-.14.53-.31.91-.5l.77-.4c.37-.2.65-.38.81-.56.17-.18.26-.4.26-.67,0-.74-.48-1.11-1.42-1.11-.53,0-.93.13-1.2.4-.27.27-.4.6-.4.99h-1.2c0-.75.25-1.36.75-1.83.5-.47,1.18-.7,2.06-.7.82,0,1.46.19,1.93.58.46.39.7.94.7,1.66,0,.29-.05.55-.14.78-.09.23-.25.43-.47.62-.22.18-.42.33-.6.45-.18.11-.45.26-.81.45l-.78.41c-.57.3-.93.5-1.07.62-.17.14-.3.31-.38.49h0Z"/>
      <g>
        <path class="uuid-5ba0176e-5e24-4ec0-838b-cfb129c112dc" d="m77.49,115.85c.81.64,1.21,1.53,1.21,2.66s-.4,2.01-1.21,2.64c-.81.64-1.92.96-3.34.96h-2.99v3.33h-1.18v-10.56h4.17c1.42,0,2.53.32,3.34.96h0Zm-.84,4.6c.58-.46.87-1.1.87-1.94s-.29-1.51-.87-1.97c-.58-.46-1.42-.69-2.53-.69h-2.96v5.28h2.96c1.1,0,1.95-.23,2.53-.69Z"/>
        <path class="uuid-5ba0176e-5e24-4ec0-838b-cfb129c112dc" d="m88.12,121.81h-7c.06.82.4,1.49,1,2,.6.51,1.37.77,2.29.77.52,0,.99-.09,1.43-.26.44-.18.81-.43,1.13-.78l.64.69c-.37.42-.83.75-1.39.96-.56.22-1.17.33-1.83.33-.86,0-1.62-.17-2.29-.52-.67-.34-1.18-.83-1.55-1.44-.37-.61-.56-1.31-.56-2.08s.17-1.47.53-2.08c.36-.61.84-1.09,1.47-1.43.62-.34,1.32-.51,2.09-.51s1.47.17,2.08.51c.61.34,1.1.82,1.45,1.43.35.61.52,1.31.52,2.09v.33h-.01Zm-6.07-2.71c-.54.49-.86,1.12-.93,1.91h5.94c-.07-.78-.38-1.42-.93-1.91-.54-.49-1.23-.73-2.04-.73s-1.49.24-2.03.73h0Z"/>
        <polygon class="uuid-5ba0176e-5e24-4ec0-838b-cfb129c112dc" points="98.14 117.51 98.14 125.44 97.01 125.44 97.01 118.46 91.76 118.46 91.76 125.44 90.63 125.44 90.63 117.51 98.14 117.51"/>
        <path class="uuid-5ba0176e-5e24-4ec0-838b-cfb129c112dc" d="m108.67,121.81h-7c.06.82.4,1.49,1,2,.61.51,1.37.77,2.29.77.52,0,.99-.09,1.43-.26.44-.18.81-.43,1.13-.78l.64.69c-.37.42-.83.75-1.39.96-.56.22-1.17.33-1.83.33-.86,0-1.62-.17-2.29-.52-.67-.34-1.18-.83-1.55-1.44-.37-.61-.56-1.31-.56-2.08s.17-1.47.53-2.08c.36-.61.84-1.09,1.47-1.43.62-.34,1.32-.51,2.09-.51s1.47.17,2.08.51c.61.34,1.1.82,1.45,1.43.35.61.52,1.31.52,2.09v.33h-.01Zm-6.07-2.71c-.54.49-.86,1.12-.93,1.91h5.94c-.07-.78-.38-1.42-.93-1.91-.54-.49-1.23-.73-2.04-.73s-1.49.24-2.03.73h0Z"/>
        <polygon class="uuid-5ba0176e-5e24-4ec0-838b-cfb129c112dc" points="116.71 118.46 113.55 118.46 113.55 125.44 112.42 125.44 112.42 118.46 109.25 118.46 109.25 117.51 116.71 117.51 116.71 118.46"/>
        <polygon class="uuid-5ba0176e-5e24-4ec0-838b-cfb129c112dc" points="118.35 117.51 119.48 117.51 119.48 123.81 125.06 117.51 126.06 117.51 126.06 125.44 124.93 125.44 124.93 119.14 119.37 125.44 118.35 125.44 118.35 117.51"/>
        <polygon class="uuid-5ba0176e-5e24-4ec0-838b-cfb129c112dc" points="135.19 118.46 132.02 118.46 132.02 125.44 130.89 125.44 130.89 118.46 127.72 118.46 127.72 117.51 135.19 117.51 135.19 118.46"/>
        <path class="uuid-5ba0176e-5e24-4ec0-838b-cfb129c112dc" d="m137.71,125c-.65-.34-1.16-.83-1.53-1.44-.37-.61-.56-1.31-.56-2.08s.19-1.47.56-2.08c.37-.61.88-1.09,1.53-1.43.65-.34,1.37-.51,2.18-.51s1.53.17,2.18.51c.65.34,1.16.82,1.52,1.43.36.61.55,1.31.55,2.08s-.18,1.47-.55,2.08c-.37.61-.87,1.1-1.52,1.44-.65.34-1.37.52-2.18.52s-1.53-.17-2.18-.52h0Zm3.78-.82c.47-.25.84-.62,1.1-1.1.26-.47.4-1.01.4-1.61s-.13-1.14-.4-1.61c-.27-.47-.63-.84-1.1-1.1-.47-.25-1.01-.38-1.6-.38s-1.13.13-1.6.38c-.47.25-.84.62-1.12,1.1-.27.47-.4,1.01-.4,1.61s.13,1.14.4,1.61c.27.47.64.84,1.12,1.1.47.25,1.01.38,1.6.38s1.13-.13,1.6-.38Z"/>
        <path class="uuid-5ba0176e-5e24-4ec0-838b-cfb129c112dc" d="m153.01,117.95c.64.34,1.14.81,1.5,1.43.36.61.54,1.31.54,2.1s-.18,1.5-.54,2.11c-.36.61-.86,1.09-1.49,1.43-.63.34-1.34.5-2.14.5-.68,0-1.29-.13-1.84-.4-.54-.27-.99-.66-1.34-1.17v4.42h-1.13v-10.86h1.08v1.57c.34-.52.79-.92,1.34-1.2.56-.28,1.18-.42,1.89-.42.79,0,1.49.17,2.13.5h-.01Zm-.62,6.23c.48-.25.85-.62,1.12-1.1.27-.47.4-1.01.4-1.61s-.13-1.14-.4-1.61c-.27-.47-.65-.84-1.12-1.1-.48-.26-1.01-.4-1.59-.4s-1.13.13-1.6.4c-.47.26-.84.62-1.12,1.1-.27.47-.4,1-.4,1.61s.13,1.14.4,1.61c.27.47.64.84,1.12,1.1.47.25,1.01.38,1.6.38s1.12-.13,1.59-.38Z"/>
        <path class="uuid-5ba0176e-5e24-4ec0-838b-cfb129c112dc" d="m158.76,125c-.65-.34-1.16-.82-1.53-1.44-.37-.62-.56-1.31-.56-2.09s.19-1.47.56-2.08c.37-.61.88-1.09,1.53-1.43.65-.34,1.39-.51,2.22-.51.72,0,1.36.13,1.93.4.57.27,1.02.66,1.34,1.17l-.84.54c-.28-.39-.63-.69-1.05-.88-.42-.2-.89-.29-1.38-.29-.6,0-1.15.13-1.63.38-.48.25-.86.62-1.13,1.1-.27.47-.4,1.01-.4,1.61s.13,1.15.4,1.62c.27.47.65.83,1.13,1.09.48.25,1.03.38,1.63.38.5,0,.96-.1,1.38-.29.42-.19.77-.48,1.05-.87l.84.54c-.33.51-.78.91-1.35,1.17-.57.27-1.22.4-1.92.4-.83,0-1.57-.17-2.22-.51h0Z"/>
        <polygon class="uuid-5ba0176e-5e24-4ec0-838b-cfb129c112dc" points="169.47 121.91 167.57 121.91 167.57 125.44 166.44 125.44 166.44 117.51 167.57 117.51 167.57 120.99 169.49 120.99 172.43 117.51 173.66 117.51 170.36 121.36 173.9 125.44 172.56 125.44 169.47 121.91"/>
        <polygon class="uuid-5ba0176e-5e24-4ec0-838b-cfb129c112dc" points="175.68 117.51 176.81 117.51 176.81 123.81 182.39 117.51 183.4 117.51 183.4 125.44 182.27 125.44 182.27 119.14 176.7 125.44 175.68 125.44 175.68 117.51"/>
        <path class="uuid-5ba0176e-5e24-4ec0-838b-cfb129c112dc" d="m186.63,117.51h1.13v6.3l5.59-6.3h1v7.94h-1.13v-6.3l-5.57,6.3h-1.02v-7.94h0Zm2.08-1.66c-.42-.34-.64-.82-.65-1.45h.81c.01.4.16.71.44.94.29.24.66.36,1.12.36s.83-.12,1.12-.36c.3-.24.44-.55.46-.94h.81c-.01.62-.23,1.11-.66,1.45-.43.34-1.01.51-1.73.51s-1.29-.17-1.72-.51h0Z"/>
        <polygon class="uuid-5ba0176e-5e24-4ec0-838b-cfb129c112dc" points="210.47 124.51 210.47 127.43 209.4 127.43 209.4 125.44 201.74 125.44 201.74 117.51 202.87 117.51 202.87 124.51 207.98 124.51 207.98 117.51 209.11 117.51 209.11 124.51 210.46 124.51 210.47 124.51"/>
        <path class="uuid-5ba0176e-5e24-4ec0-838b-cfb129c112dc" d="m219.94,121.81h-7c.06.82.4,1.49,1,2,.6.51,1.37.77,2.29.77.52,0,1-.09,1.43-.26.44-.18.81-.43,1.13-.78l.64.69c-.37.42-.83.75-1.39.96-.56.22-1.17.33-1.84.33-.86,0-1.62-.17-2.29-.52-.67-.34-1.18-.83-1.55-1.44-.37-.61-.56-1.31-.56-2.08s.17-1.47.53-2.08c.36-.61.84-1.09,1.47-1.43.62-.34,1.32-.51,2.09-.51s1.47.17,2.08.51c.61.34,1.1.82,1.45,1.43.35.61.52,1.31.52,2.09v.33h-.01Zm-6.07-2.71c-.54.49-.86,1.12-.93,1.91h5.94c-.07-.78-.38-1.42-.93-1.91-.54-.49-1.23-.73-2.04-.73s-1.49.24-2.03.73h0Z"/>
        <polygon class="uuid-5ba0176e-5e24-4ec0-838b-cfb129c112dc" points="222.46 117.51 223.59 117.51 223.59 121.03 228.85 121.03 228.85 117.51 229.98 117.51 229.98 125.44 228.85 125.44 228.85 121.94 223.59 121.94 223.59 125.44 222.46 125.44 222.46 117.51"/>
        <polygon class="uuid-5ba0176e-5e24-4ec0-838b-cfb129c112dc" points="239.09 118.46 235.92 118.46 235.92 125.44 234.79 125.44 234.79 118.46 231.63 118.46 231.63 117.51 239.09 117.51 239.09 118.46"/>
        <path class="uuid-5ba0176e-5e24-4ec0-838b-cfb129c112dc" d="m247.17,117.95c.64.34,1.14.81,1.5,1.43.36.61.54,1.31.54,2.1s-.18,1.5-.54,2.11c-.36.61-.86,1.09-1.49,1.43-.63.34-1.34.5-2.14.5-.68,0-1.29-.13-1.84-.4s-.99-.66-1.34-1.17v4.42h-1.13v-10.86h1.08v1.57c.34-.52.79-.92,1.34-1.2.56-.28,1.18-.42,1.89-.42.79,0,1.49.17,2.13.5h-.01Zm-.62,6.23c.48-.25.85-.62,1.12-1.1.27-.47.4-1.01.4-1.61s-.13-1.14-.4-1.61c-.27-.47-.65-.84-1.12-1.1-.48-.26-1.01-.4-1.59-.4s-1.13.13-1.6.4c-.47.26-.84.62-1.12,1.1-.27.47-.4,1-.4,1.61s.13,1.14.4,1.61c.27.47.64.84,1.12,1.1.47.25,1.01.38,1.6.38s1.12-.13,1.59-.38Z"/>
        <polygon class="uuid-5ba0176e-5e24-4ec0-838b-cfb129c112dc" points="104.98 135.62 104.98 143.55 93.42 143.55 93.42 135.62 94.55 135.62 94.55 142.61 98.66 142.61 98.66 135.62 99.79 135.62 99.79 142.61 103.85 142.61 103.85 135.62 104.98 135.62"/>
        <polygon class="uuid-5ba0176e-5e24-4ec0-838b-cfb129c112dc" points="111.25 140.02 109.34 140.02 109.34 143.55 108.21 143.55 108.21 135.62 109.34 135.62 109.34 139.1 111.26 139.1 114.21 135.62 115.43 135.62 112.14 139.47 115.67 143.55 114.33 143.55 111.25 140.02 111.25 140.02"/>
        <path class="uuid-5ba0176e-5e24-4ec0-838b-cfb129c112dc" d="m118.42,143.11c-.65-.34-1.16-.83-1.53-1.44-.37-.61-.56-1.31-.56-2.08s.19-1.47.56-2.08c.37-.61.88-1.09,1.53-1.43.65-.34,1.37-.51,2.18-.51s1.53.17,2.18.51c.65.34,1.16.82,1.52,1.43.36.61.55,1.31.55,2.08s-.18,1.47-.55,2.08c-.37.61-.87,1.1-1.52,1.44-.65.34-1.37.52-2.18.52s-1.53-.17-2.18-.52h0Zm3.78-.82c.47-.25.84-.62,1.1-1.1.26-.47.4-1.01.4-1.61s-.13-1.14-.4-1.61c-.27-.47-.63-.83-1.1-1.1-.47-.25-1.01-.38-1.6-.38s-1.13.13-1.6.38c-.47.26-.84.62-1.12,1.1-.27.47-.4,1.01-.4,1.61s.13,1.14.4,1.61c.27.47.64.83,1.12,1.1.47.26,1.01.38,1.6.38s1.13-.13,1.6-.38Z"/>
        <path class="uuid-5ba0176e-5e24-4ec0-838b-cfb129c112dc" d="m134.06,135.62v7.94h-1.13v-6.99h-4.01s-.11,1.96-.11,1.96c-.09,1.65-.29,2.92-.6,3.81-.32.89-.89,1.33-1.7,1.33-.22,0-.49-.04-.81-.12l.08-.92c.19.04.32.06.4.06.44,0,.77-.19.99-.57.22-.38.37-.85.44-1.42.07-.56.13-1.31.19-2.23l.14-2.84h6.14Z"/>
        <path class="uuid-5ba0176e-5e24-4ec0-838b-cfb129c112dc" d="m142.67,136.33c.58.52.87,1.29.87,2.3v4.92h-1.08v-1.24c-.26.41-.63.73-1.12.96-.49.23-1.08.34-1.76.34-.93,0-1.67-.21-2.22-.63-.55-.42-.83-.98-.83-1.68s.26-1.22.77-1.63c.52-.41,1.33-.62,2.46-.62h2.66v-.48c0-.68-.2-1.2-.6-1.56-.4-.36-.99-.54-1.77-.54-.53,0-1.04.08-1.53.25-.48.17-.91.4-1.26.69l-.51-.8c.42-.34.93-.61,1.53-.79.59-.18,1.22-.28,1.88-.28,1.09,0,1.93.26,2.51.78h0Zm-1.27,6.04c.46-.27.79-.68,1.02-1.2v-1.3h-2.63c-1.43,0-2.15.47-2.15,1.42,0,.47.19.83.56,1.1s.89.4,1.56.4,1.18-.14,1.64-.41h0Z"/>
        <path class="uuid-5ba0176e-5e24-4ec0-838b-cfb129c112dc" d="m157.17,136.06c.64.34,1.14.81,1.5,1.43.36.61.54,1.31.54,2.1s-.18,1.5-.54,2.11c-.36.61-.86,1.09-1.49,1.43-.63.34-1.34.5-2.14.5-.68,0-1.29-.13-1.84-.4-.54-.27-.99-.66-1.34-1.17v4.42h-1.13v-10.86h1.08v1.57c.34-.52.79-.92,1.34-1.2.56-.28,1.18-.42,1.89-.42.79,0,1.49.17,2.13.5h-.01Zm-.62,6.23c.48-.25.85-.62,1.12-1.1.27-.47.4-1.01.4-1.61s-.13-1.14-.4-1.61c-.27-.47-.65-.83-1.12-1.1-.48-.26-1.01-.4-1.59-.4s-1.13.13-1.6.4c-.47.26-.84.62-1.12,1.1-.27.47-.4,1-.4,1.61s.13,1.14.4,1.61.64.83,1.12,1.1c.47.26,1.01.38,1.6.38s1.12-.13,1.59-.38Z"/>
        <path class="uuid-5ba0176e-5e24-4ec0-838b-cfb129c112dc" d="m166.99,136.33c.58.52.87,1.29.87,2.3v4.92h-1.08v-1.24c-.26.41-.63.73-1.12.96-.49.23-1.08.34-1.76.34-.93,0-1.67-.21-2.22-.63-.55-.42-.83-.98-.83-1.68s.26-1.22.77-1.63c.52-.41,1.33-.62,2.46-.62h2.66v-.48c0-.68-.2-1.2-.6-1.56-.4-.36-.99-.54-1.77-.54-.53,0-1.04.08-1.53.25-.48.17-.91.4-1.26.69l-.51-.8c.42-.34.93-.61,1.53-.79.59-.18,1.22-.28,1.88-.28,1.09,0,1.93.26,2.51.78h0Zm-1.27,6.04c.46-.27.79-.68,1.02-1.2v-1.3h-2.63c-1.43,0-2.15.47-2.15,1.42,0,.47.19.83.56,1.1.37.27.89.4,1.56.4s1.18-.14,1.64-.41h0Z"/>
        <path class="uuid-5ba0176e-5e24-4ec0-838b-cfb129c112dc" d="m176.14,140.1c.32.32.48.71.48,1.18s-.17.87-.5,1.24c-.34.36-.79.64-1.36.84-.57.2-1.2.29-1.9.29-.6,0-1.2-.08-1.78-.25-.58-.17-1.1-.41-1.53-.73l.38-.8c.38.27.83.48,1.34.63.51.15,1.02.22,1.55.22.77,0,1.41-.14,1.9-.41.49-.27.74-.65.74-1.12,0-.42-.2-.75-.6-.99-.4-.24-.95-.36-1.65-.36h-1.43s0-.78,0-.78h1.37c.62,0,1.13-.11,1.51-.34.38-.22.57-.53.57-.91,0-.42-.22-.75-.65-.99-.43-.24-.99-.36-1.68-.36-.9,0-1.79.22-2.67.65l-.32-.83c.99-.49,2.03-.74,3.11-.74.64,0,1.21.09,1.73.26.51.18.91.43,1.21.75.29.32.44.69.44,1.12s-.15.76-.44,1.07c-.29.31-.69.54-1.18.69.59.13,1.06.36,1.38.68h-.01Z"/>
        <path class="uuid-5ba0176e-5e24-4ec0-838b-cfb129c112dc" d="m186.22,141.39c0,.69-.27,1.23-.81,1.6-.54.37-1.35.56-2.42.56h-3.8s0-7.94,0-7.94h3.69c.95,0,1.7.18,2.24.53.54.35.81.85.81,1.51,0,.43-.12.8-.38,1.11-.25.31-.6.54-1.04.69,1.14.25,1.7.9,1.7,1.94h0Zm-5.94-2.26h2.51c.65,0,1.14-.11,1.49-.34.34-.23.52-.57.52-1.01s-.17-.78-.52-.99c-.34-.22-.84-.33-1.49-.33h-2.51v2.68h0Zm4.28,3.23c.36-.22.54-.57.54-1.04s-.17-.82-.49-1.05c-.33-.22-.85-.34-1.56-.34h-2.77v2.76h2.66c.72,0,1.26-.11,1.62-.33h0Z"/>
        <polygon class="uuid-5ba0176e-5e24-4ec0-838b-cfb129c112dc" points="188.86 135.62 189.99 135.62 189.99 141.92 195.58 135.62 196.58 135.62 196.58 143.55 195.45 143.55 195.45 137.25 189.88 143.55 188.86 143.55 188.86 135.62"/>
        <polygon class="uuid-5ba0176e-5e24-4ec0-838b-cfb129c112dc" points="205.7 136.57 202.53 136.57 202.53 143.55 201.4 143.55 201.4 136.57 198.24 136.57 198.24 135.62 205.7 135.62 205.7 136.57"/>
        <polygon class="uuid-5ba0176e-5e24-4ec0-838b-cfb129c112dc" points="207.33 135.62 208.46 135.62 208.46 141.92 214.05 135.62 215.05 135.62 215.05 143.55 213.92 143.55 213.92 137.25 208.35 143.55 207.33 143.55 207.33 135.62"/>
        <path class="uuid-5ba0176e-5e24-4ec0-838b-cfb129c112dc" d="m224.71,135.62v7.94h-1.04v-2.63h-2.94l-1.94,2.63h-1.22l2.08-2.78c-.65-.17-1.15-.47-1.5-.87-.35-.41-.52-.94-.52-1.57,0-.89.32-1.56.95-2.02.64-.47,1.51-.69,2.61-.69h3.52Zm-3.56,4.51h2.53v-3.56h-2.45c-1.63,0-2.45.6-2.45,1.8s.79,1.77,2.37,1.77h0Z"/>
      </g>
      <path class="uuid-b74c1457-1e9b-4753-a2ad-0e60bc58cfce" d="m176.89,43.02c-.03-.36.12-.64-.02-.73-1.94-1.33.55-1.98.64-3,.03-.27.76.36,1.07.44,2.89.67,6.08.43,8.74-.92.28-.15.21-.57.09-.83-.4-.48-5.33,1.82-8.31.73-.31-.11-.35-.5-.1-.71,1.5-1.24.4-2.89.19-4.25-.38-2.42-1.65-4.63-3.58-6.48-.46-.45-.7-.64.17-.91.63-.19.14-.55.02-.87-.22-.58-.51-1.27.48-1.53.87-.22,1.49.13,1.79.88.09.24.13.5.28.71.17.24.48.29.79.17.38-.14.3-.38.14-.63-.09-.13-.18-.27-.26-.4-.3-.48-.39-.99-.03-1.46.22-.29.78-.34,1.13-.28.73.13,1.12.76,1.1,1.29-.01.75-.02,1.16.97,1.14,1.15-.03.85-.68.8-1.31-.05-.5.08-.94.79-1.02.48-.06.94.08.95.52,0,1.17.61,1.56,1.55,1.4.35-.06.48.45.31.75-1.36,2.38-.85,6.35-.49,7.34.24.66.42,1.15.95,1.1.94-.08.59-.61.83-.95,1.7-2.38,3.47-4.73,5-7.19,2.62-4.22,3.2-10.09-.5-14.55-.47-.57-1.75-2.02-2.48-2.86,1.73.29,3.14,2.33,3.77,3.21,1.88,2.65,2.65,5.39,2.1,8.67-.63,3.76-2.71,6.77-4.89,9.85-1.1,1.54-2.39,3.12-2.31,4.97.07,1.33-.52,2.59.42,3.81.19.24.09.6-.21.69-8.15,2.5-10.81-.11-11.4,1.03-.01,1.49,2.72,1.8,4.07,1.72,2.33-.14,4.54-.7,6.75-1.45.39-.13.89-.78,1.19,0,.25.63-.04.72-.49.96-.98.5-2.06.82-3.19.92-2.59.24-5.18.45-7.78.66-.81.4-.99-.45-1.04-.61h0Zm4.29-16.75c-1,.07-2.02.06-3,.24-.91.17-1.82.64-.91,1.56,2.19,2.21,2.66,4.89,3.07,7.64.13.88-1.08,2.07.26,2.55.93.32,2.2-.07,3.32-.17.35-.03.69-.14,1.03-.24,2.17-.62,2.57-1.5,1.4-3.19-1.02-1.45-1.3-3.04-1.18-4.67.28-3.89,1.66-4.16-3.99-3.72h0Z"/>
      <path class="uuid-b74c1457-1e9b-4753-a2ad-0e60bc58cfce" d="m178.82,44.48c2.99.19,5.94-.04,8.88-.92.15-.04.32.06.28.2-.2.75-.67,1.27-1.02,1.84-.02.03-.05.06-.1.08-1.74.73-3.72,1-5.55.99-1.17,0-2.44-.78-2.72-1.98-.03-.11.09-.22.24-.22h0Z"/>
      <path class="uuid-b74c1457-1e9b-4753-a2ad-0e60bc58cfce" d="m164.63,25.16c-.5.66-2.64,1.52-2.93,1.8-.16.16-.47.18-.57-.08-.09-.22.13-.34.36-.41.67-.18,2.44-1.47,3.14-1.31Z"/>
      <path class="uuid-b74c1457-1e9b-4753-a2ad-0e60bc58cfce" d="m204.36,24c-2.33.94-3.52-1.03-5.28-1.59,1.99-.1,3.5,1.08,5.28,1.59Z"/>
      <path class="uuid-b74c1457-1e9b-4753-a2ad-0e60bc58cfce" d="m164,13.88c.85.62-2.41.48-3.35-.38,1.3-.18,2.46-.1,3.35.38Z"/>
      <path class="uuid-b74c1457-1e9b-4753-a2ad-0e60bc58cfce" d="m203.34,10.78c-1.46,1.63-3.38,2.14-4.87,1.37,1.71-.25,2.93-1.52,4.87-1.37Z"/>
      <g>
        <path class="uuid-ed6c35f0-0651-4df1-9fe9-2428f42b72f8" d="m194.88,3.84c.49.31-.15.6-.36.87-.47.58-.92,1.61-1.2,2.29-.07.38-.83.02-.65-.36.76-.65,1.12-1.43,1.58-2.19.19-.32.22-.87.64-.61h0Z"/>
        <path class="uuid-a2b9f6d8-54f3-4638-87b1-dc9f68160180" d="m194.88,3.84c.49.31-.15.6-.36.87-.47.58-.92,1.61-1.2,2.29-.07.38-.83.02-.65-.36.76-.65,1.12-1.43,1.58-2.19.19-.32.22-.87.64-.61"/>
      </g>
      <g>
        <path class="uuid-ed6c35f0-0651-4df1-9fe9-2428f42b72f8" d="m165.73,4.26c.5-.3.52.38.68.68.36.65,1.16,1.47,1.69,1.99.33.22-.33.73-.61.41-.31-.92-.9-1.57-1.45-2.28-.23-.3-.74-.55-.32-.8h0Z"/>
        <path class="uuid-a2b9f6d8-54f3-4638-87b1-dc9f68160180" d="m165.73,4.26c.5-.3.52.38.68.68.36.65,1.16,1.47,1.69,1.99.33.22-.33.73-.61.41-.31-.92-.9-1.57-1.45-2.28-.23-.3-.74-.55-.32-.8"/>
      </g>
      <path class="uuid-b74c1457-1e9b-4753-a2ad-0e60bc58cfce" d="m177.47,37.73c-1.17-3.49-3.97-5.39-6.47-7.5-3.02-2.56-5.03-5.58-5.34-9.28-.11-1.25-.84-2.36-.46-3.74,1.3-4.7,3.74-8.55,9.32-10.31,1.67-.53,3.42-.62,5.2-.55-1.6.28-3.15.62-4.69,1.1-4.1,1.28-8.52,5.56-8.86,9.49-.44,5.15,1.81,9.25,5.75,12.84,1.57,1.43,3.18,2.84,4.56,4.42.8.92,1.47,1.85.99,3.54h0Z"/>
      <path class="uuid-b74c1457-1e9b-4753-a2ad-0e60bc58cfce" d="m180.25,4.1c.03.24-1.12-.06-1.05-.33.37-1.01.18-1.79.08-2.7-.03-.27-.25-.69.34-.69.44,0,.32.33.32.62-.01,1.04.21,2.07.31,3.1h0Z"/>
    </g>
  </g>
</svg>