<?xml version="1.0" encoding="UTF-8"?>
<svg id="uuid-c720f730-b718-4018-ae7b-7e24f1e639ce" data-name="Слой 2" xmlns="http://www.w3.org/2000/svg" viewBox="0 0 820.72 885.45">
  <defs>
    <style>
      .uuid-56c3d91d-ec5e-464c-9c1e-b0b1e457ffdb {
        fill: #fff;
      }

      .uuid-58b89a7c-6590-40fc-abc1-864c3d911bbf {
        fill: #fd978b;
      }

      .uuid-12d1a9a9-e32d-4b29-9435-2393a9c0e8d8 {
        fill: #f1baae;
      }

      .uuid-0c838617-ace3-4c4e-99d5-91a0d1e273c7 {
        fill: #11b1a1;
      }

      .uuid-12484f13-169a-4127-a85b-5b23bdf576de {
        fill: #f2a76d;
      }

      .uuid-9223e3d4-260e-47ae-a0de-1d6b1bc236c6 {
        fill: #2b4b55;
      }

      .uuid-ac15c7e1-dae3-4b36-8fa2-ab9c8407b525 {
        fill: #e56f4d;
      }

      .uuid-706b5a70-de89-4fc2-ae44-c5f8d8014b9d {
        fill: #353d46;
      }
    </style>
  </defs>
  <g id="uuid-424b4839-d4c4-42f1-963e-67cafbbf38d0" data-name="Слой 1">
    <path class="uuid-56c3d91d-ec5e-464c-9c1e-b0b1e457ffdb" d="m662.19,246.35c8.32.43,15.9,1.39,24.42,1.58,33.38.75,73.86-11.21,91.06-42.18,10.11-18.21,7.55-46.25-10.47-58.78-16.96-12.01-37.41-6.07-56.19-12.1-21.09-5.48-38.33-17.94-53.2-33.71-28.24-29.96-41.93-72.61-80.47-92.6-38.01-19.71-86.33-4.3-104.98,34.52-4.01,8.34-6.2,14.61-3.15,23.66-1.97,22.85-1.84,41.24,6.22,63.3,10.4,28.47,24.51,24.18,49.45,23.23.18,4.36-.15,9.75.09,13.51-9.95,5.08-19.88,10.36-29.65,15.78-1.9.96-4.82,2.32-6.54,3.42-17.55,9.67-28.49,16.72-33.98,37.26-6.47,24.2-12.48,48.52-19.52,72.57-4.67,15.96-8.9,32.24-16.4,47.18-4.03,8.06-9.55,16.65-14.3,24.39l-18.28,29.65c-2.4,3.83-10.14,14.98-11.43,18.12.05,1.71-2.08,4.7-3.18,5.67-5.85,5.16-12.2,4.59-16.99,11.35-3.12,4.42-4.16,10.86-6.32,14.33-1.81-1.11-1.34-1.23-2.9-.93-7.08,7.01-13.5,14.48-20.92,21.15-21.85,19.63-55.46,28.8-83.86,19.98-9.49-2.95-20.09-10.18-30.74-10.22-8.11-2.06-9.15-4.98-10.37-12.71.05-.25.42-1.22.58-1.29,7.04-3.22,13.47-6.52,18.81-12.22,12.6-13.45,16.89-27.1,16.35-45.35,3.05-2.38,3.87-3.08,6.44-6.11.75-42.12-59.57-79.79-90.48-44.06-21.06,1.82-38.19,25.82-35.61,46.29,2.49,19.85,11.02,38.17,27.04,50.59,6.76,5.32,14.67,9.64,23.03,11.44-2.05,8.62-2.92,8.39-9.18,14.09-20.79,2.9-25.3,9.01-38.03,26.44-23.1,31.61-52.27,78.35-63.65,115.8-.94,2.2-2.65,5.41-3.74,7.73-.88,1.88-2.8,7.99-3.36,8.92-12.16,6.76-18.82,18.61-18.47,32.58-.06.18-.12.37-.19.55-2.92,8.22-9.79,15.14-14.32,22.56-8.6,14.09-19.94,44.52-12.29,60.79,1.56,3.33,3.91,5.11,7.36,6.21,15.34,4.93,75.82,6.01,90.02-1.29,3.56-1.83,5.78-4.78,6.9-8.58,4.8-16.32-2.21-37.65-10.33-51.79-3.76-6.55-8.87-12.41-12.45-18.93.8-5.34.49-4.75-.98-9.68-1.22-12.98-3.4-19.76-13.11-28.82,1.47-4.38,2.68-9.41,4.13-13.97,4.8-8.37,9.38-17.62,14.92-25.47,11.68-16.54,24.8-38.3,39.4-52.29-.55,12.96-7.27,92.26-2.23,97.73.69.75.38.51,1.39.82,1.47,9.03,2.64,18.74,3.85,27.88,3.86,29.3,11.81,57.75,17.2,86.68-3.16,9.02-8.79,17.03-13.3,24.95-2.69,4.72-17.96,26.3-18.41,29.32.7,1.17.9,1.48,1.77,2.53-.73,1.4-1.31,2.82-2.42,3.92-5.33,3.15-10.56,6.36-15.98,9.34,2.16,6.15,17.78,32.37,24.13,32.19,4.15-3.34-1.41-22.42-.4-29.47,3.3-.83,5.12-2.15,7.93-3.94,12.39-8.95,52.88-49.92,54.28-64.31,1.33-13.61.49-45.41,1.74-61.86,6.52,49.03,10.9,98.31,11.99,147.78.06,2.75.49,3.08,3.03,4.11,1.44,2.35,1.32,2.61.42,5.19-2.53,3.88-1.69,11.68-2.09,16.31-.22,2.51.56,4.38,2.57,5.93,4.48,1.31,31.34-3.06,36.77-5.6,1.6-.75,1.29-.74,1.66-2.03-.77-4.53-13.51-8.68-17.28-11.19-2.84-1.9-3.43-2.35-6.03-4.68.29-2.57.42-2.96,1.44-5.34,1.5-.18,2.51-.17,3.83-.91,3.17-13.2,5.19-37.52,7.29-51.76,4.77-32.2,8.34-65.61,11.95-98.02,2.04-18.38,4.12-38.47,4.26-56.91,2.65-1.36,3.36-1.88,5.6-3.94.06-9.75-1.13-24.38-1.78-34.47l-3.01-51.76c-.56-9.15-1.63-18.29-1.9-27.42,13.85.32,22.34-.45,35.94-3.74,34.19-8.27,64.45-40.02,82.03-69.46,4.51-5.14,11.17-5.43,13.7-12.39,2.74-7.53.26-11.31,8.6-15.4.58.02,1.17.05,1.72-.2,5.19-2.4,62.27-70.39,67.31-78.76,6.83-11.32,10.13-24.47,14.91-36.69.94,11.97,3.81,30.58,3.91,41.53.38,3.31,1.01,9.05,1.8,12.17.36,3.98.57,7.56.73,11.55.01,1.76.14,6.74-.1,8.21-20.01,46.19-38.5,93.1-54.59,140.9-9.2,27.32-18.98,56.16-24.4,84.8-3.11,16.48-5.89,15.91,8.46,26.24,20.12,14.47,41.28,24.08,65.36,30.27,1.17,51.28-5.29,101.64-16.86,151.48-2.28,9.83-5.83,28.65-9.45,37.84-6.99.5-29.4,1.57-33.83,6.38l-.12,1.05c4.65,3.92,40.01,19.98,45.8,20.66,5.18-2.55,6.06-15.8,5.33-20.85,7.58-14.21,17.95-29.7,25.89-44.39,22.48-41.62,45.27-93.93,46.07-141.77,10.03.41,20.34-.54,29.64-.16,3.98,17.49,5.05,35.54,6.55,53.41,3.62,43.15,5.07,84.68,1.19,127.87-7.11,3.26-27.68,11.21-31.99,16.58l.02,1c.85.8,1.9,1.39,3.09,1.51,13.58,1.29,27.28,2.93,40.91,3.51,1.28.05,4.86-.45,5.7-1.4,3.8-4.24,1.05-15.21.39-20.2,17.68-46.16,27.51-93.3,35.38-142.03,2.27-14.04,5.1-35.86,4.95-49.94,21.73-6.04,47.07-15.74,63.18-31.97,1.67-1.69,5.66-7.43,7.48-7.96,18.17-3.01,40.53-8.87,58.91-13.01l29.76-6.75c6.83-1.54,21.45-3.88,26.41-8.91,8.42-8.54,2.17-26.21.03-36.89l-6.3-32.81-8.76-42.79c-4.57-21.5-3.14-31.43-30.39-25.07-6.15,1.44-14.27,3.1-20.49,3.9-2.33-19.13-8.01-32.41-30.68-30.79.02.02-12.56-26.54-14.08-29.6,1.54-.43,2.17-.52,3.53-1.41.07-.35-18.71-61.77-21.06-69.6l-26.05-88.57Z"/>
    <path class="uuid-9223e3d4-260e-47ae-a0de-1d6b1bc236c6" d="m469.21,66.76c-3.05-9.05-.86-15.32,3.15-23.66,18.64-38.82,66.97-54.23,104.98-34.52,38.54,19.98,52.24,62.64,80.47,92.6,14.86,15.77,32.1,28.22,53.2,33.71,18.78,6.03,39.23.09,56.19,12.1,18.02,12.52,20.58,40.57,10.47,58.78-17.2,30.98-57.68,42.93-91.06,42.18-8.52-.19-16.1-1.15-24.42-1.58-15.83-1.01-39.93-10.28-54.29-17.16-1.81-1.09-5.14-2.71-7.1-3.73-27.21-14.6-49.05-37.07-65.65-62.94-4.62-7.46-10.02-17.78-13.59-25.78-2.83-6.35-4.8-13.06-7.91-19.61,13.39-11.17-.92-32.47-10.2-18.13-14.47-5.16-27.63-18.53-34.24-32.24Z"/>
    <path class="uuid-12d1a9a9-e32d-4b29-9435-2393a9c0e8d8" d="m469.21,66.76c6.61,13.71,19.77,27.09,34.24,32.24,9.28-14.33,23.59,6.97,10.2,18.13,3.11,6.54,5.08,13.26,7.91,19.61,3.56,7.99,8.97,18.32,13.59,25.78-4.61,1.45-5.9,2.2-10.17,4.28-.24-3.76.09-9.15-.09-13.51-24.94.95-39.05,5.24-49.45-23.23-8.06-22.06-8.18-40.45-6.22-63.3Z"/>
    <path class="uuid-ac15c7e1-dae3-4b36-8fa2-ab9c8407b525" d="m524.98,166.8c4.27-2.09,5.56-2.83,10.17-4.28,16.6,25.87,38.44,48.35,65.65,62.94-1.4,38.5-4.75,80.7,12.62,116.88,3.34,6.96,8.93,14.45,13.56,20.75-.49,4.62-1.07,9.38-1.2,14.01-.93.89-1.93,1.89-2.92,2.69-4.73,3.32-9.42,7.07-14.35,10.04-39.44,23.76-96.19,16.83-131.18-12.23-.16-3.99-.37-7.57-.73-11.55,28.76-32.62,38.77-79.34,36.85-121.83-.68-14.94-2.11-29.85-7.65-43.9-2.51-6.36-6.77-12.02-10.46-17.75,9.76-5.42,19.7-10.7,29.65-15.78Z"/>
    <path class="uuid-12d1a9a9-e32d-4b29-9435-2393a9c0e8d8" d="m488.79,186c1.72-1.1,4.64-2.46,6.54-3.42,3.69,5.73,7.95,11.39,10.46,17.75,5.54,14.05,6.98,28.96,7.65,43.9,1.92,42.5-8.1,89.21-36.85,121.83-.79-3.12-1.42-8.86-1.8-12.17l.52.56c1.59-.55,5.15-5.42,6.32-7.13,13.95-20.41,21.87-47.62,24.26-72.13,2.33-23.89,1.66-51.58-7.03-74.18-2.05-5-6.71-10.81-10.08-15.01Z"/>
    <path class="uuid-ac15c7e1-dae3-4b36-8fa2-ab9c8407b525" d="m374.87,415.17c1.29-3.14,9.03-14.29,11.43-18.12l18.28-29.65c4.76-7.74,10.28-16.33,14.3-24.39,7.51-14.93,11.73-31.22,16.4-47.18,7.04-24.05,13.05-48.36,19.52-72.57,5.49-20.54,16.44-27.59,33.98-37.26,3.38,4.2,8.03,10.01,10.08,15.01,8.69,22.59,9.36,50.29,7.03,74.18-2.39,24.51-10.31,51.72-24.26,72.13-1.17,1.71-4.73,6.57-6.32,7.13l-.52-.56c-.1-10.95-2.97-29.56-3.91-41.53-4.78,12.22-8.08,25.36-14.91,36.69-5.04,8.36-62.11,76.36-67.31,78.76-.55.25-1.14.23-1.72.2-6.19-4.43-8.23-5.93-12.08-12.83Z"/>
    <path class="uuid-12d1a9a9-e32d-4b29-9435-2393a9c0e8d8" d="m626.98,363.09c-4.63-6.3-10.22-13.79-13.56-20.75-17.37-36.18-14.03-78.38-12.62-116.88,1.96,1.03,5.3,2.65,7.1,3.73-2.11,36.18-3.37,72.5,10.53,106.85,1.98,4.88,5.72,13.11,9.39,16.9-.19,3.64-.4,6.54-.84,10.15Z"/>
    <path class="uuid-ac15c7e1-dae3-4b36-8fa2-ab9c8407b525" d="m607.9,229.2c14.36,6.87,38.47,16.15,54.29,17.16l26.05,88.57c2.35,7.83,21.14,69.25,21.06,69.6-1.36.89-1.99.98-3.53,1.41-6.25,2.37-12.24,4.41-18.82,5.71-1.87.81-1.56,1.03-3.21.72-1.95-3.51-3.72-9.47-5.24-13.34-11.07-28.1-20.56-56.74-32.23-84.61-4.07-9.72-7.24-19.13-11.74-28.81-.95,12.58-2.52,25.63-3.77,38.2-.95,9.5-1.72,19.72-2.93,29.13-3.67-3.79-7.41-12.02-9.39-16.9-13.9-34.34-12.64-70.67-10.53-106.85Z"/>
    <path class="uuid-56c3d91d-ec5e-464c-9c1e-b0b1e457ffdb" d="m627.82,352.94c1.21-9.41,1.99-19.63,2.93-29.13,1.25-12.57,2.82-25.62,3.77-38.2,4.5,9.68,7.67,19.09,11.74,28.81,11.67,27.87,21.16,56.51,32.23,84.61,1.52,3.87,3.29,9.83,5.24,13.34,1.65.31,1.33.09,3.21-.72,1.45,6.22,9.93,22.31,9.42,28.31-15.18,8.96-17.36,25.6-11.7,41.04-4.35.74-13.19,2.75-17.48,4.08-1.21-2.89-2.17-6.03-3.27-8.98-11.42-30.57-23.9-61.51-38.86-90.55-1.31-2.47-1.5-3.04-2.2-5.75.99-.8,1.98-1.8,2.92-2.69.13-4.63.72-9.39,1.2-14.01.44-3.62.66-6.51.84-10.15Z"/>
    <path class="uuid-9223e3d4-260e-47ae-a0de-1d6b1bc236c6" d="m235.33,404.94c-6.71,3.24-13.41,5.91-21.01,5.96-2.57.02-5.2-.48-7.71-.46-3.17,1.65-6.02,3.61-6.67,7.27-1.8,10.08,4.53,16.74,14.25,13.42-5.41,13.1-16.46,19.96-18.79,32.23-8.2.76-21.92,1.76-29.64-.26-8.36-1.8-16.28-6.11-23.03-11.44-16.02-12.42-24.54-30.74-27.04-50.59-2.57-20.47,14.55-44.47,35.61-46.29,30.9-35.73,91.23,1.93,90.48,44.06-2.57,3.03-3.4,3.73-6.44,6.11Z"/>
    <path class="uuid-12d1a9a9-e32d-4b29-9435-2393a9c0e8d8" d="m477.32,377.61c34.99,29.05,91.74,35.99,131.18,12.23,4.93-2.97,9.62-6.72,14.35-10.04.7,2.72.89,3.28,2.2,5.75-14.22,16.48-44.34,24.53-65.58,26.12-27.69,2.07-60.52-8.6-82.25-25.85.24-1.48.11-6.45.1-8.21Z"/>
    <path class="uuid-ac15c7e1-dae3-4b36-8fa2-ab9c8407b525" d="m477.23,385.82c21.73,17.25,54.56,27.92,82.25,25.85,21.24-1.59,51.37-9.64,65.58-26.12,14.96,29.04,27.44,59.98,38.86,90.55,1.1,2.95,2.06,6.09,3.27,8.98,1,6.72,7.52,19.7,9.85,27.25,10.46,33.83,22.78,68.14,27.71,103.31.42,3-2.15,9.63-3.59,12.43l.2.6c-1.82.53-5.81,6.27-7.48,7.96-16.11,16.23-41.45,25.93-63.18,31.97-18.04,4.75-47.55,9.34-66.17,9.69-9.3-.38-19.6.57-29.64.16-24.41-1.73-39.02-4.57-62.83-10.41-24.08-6.19-45.24-15.79-65.36-30.27-14.35-10.33-11.58-9.76-8.46-26.24,5.42-28.64,15.2-57.48,24.4-84.8,16.09-47.8,34.58-94.72,54.59-140.9Z"/>
    <path class="uuid-12d1a9a9-e32d-4b29-9435-2393a9c0e8d8" d="m206.61,410.43c2.51-.01,5.14.48,7.71.46,7.6-.05,14.3-2.72,21.01-5.96.54,18.26-3.75,31.9-16.35,45.35-5.34,5.7-11.77,9-18.81,12.22-.15.07-.53,1.04-.58,1.29-.62-.36-3.27-.4-4.2-.45,2.33-12.27,13.38-19.13,18.79-32.23-9.72,3.32-16.05-3.34-14.25-13.42.65-3.65,3.51-5.62,6.67-7.27Z"/>
    <path class="uuid-12d1a9a9-e32d-4b29-9435-2393a9c0e8d8" d="m686.95,411.64c6.58-1.3,12.58-3.34,18.82-5.71,1.52,3.06,14.1,29.62,14.08,29.6,2.11,3.24,3.33,7.19,4.52,9.03.77,2.83,1.07,3.89,1.35,6.86-3.78,8.11-8.32,8.11-16.49,8.22-6.88-3.78-5.94-7.86-8.97-9.73l.5-.56c-.45-1.73-3.43-7.46-4.39-9.4.52-6.01-7.97-22.09-9.42-28.31Z"/>
    <path class="uuid-12d1a9a9-e32d-4b29-9435-2393a9c0e8d8" d="m348.38,446.53c2.15-3.48,3.19-9.92,6.32-14.33,4.79-6.77,11.14-6.19,16.99-11.35,1.11-.98,3.23-3.96,3.18-5.67,3.85,6.9,5.89,8.4,12.08,12.83-8.34,4.09-5.86,7.87-8.6,15.4-2.53,6.96-9.19,7.25-13.7,12.39l-.55-.54c-6.96-1.19-10.1-4.68-15.72-8.73Z"/>
    <path class="uuid-9223e3d4-260e-47ae-a0de-1d6b1bc236c6" d="m719.85,435.54c22.67-1.61,28.35,11.66,30.68,30.79,6.22-.8,14.35-2.46,20.49-3.9,27.24-6.37,25.82,3.57,30.39,25.07l8.76,42.79,6.3,32.81c2.14,10.67,8.39,28.35-.03,36.89-4.96,5.03-19.58,7.37-26.41,8.91l-29.76,6.75c-18.38,4.14-40.74,10-58.91,13.01l-.2-.6c1.45-2.8,4.01-9.42,3.59-12.43-4.93-35.17-17.26-69.48-27.71-103.31-2.34-7.56-8.85-20.53-9.85-27.25,4.29-1.33,13.13-3.34,17.48-4.08-5.66-15.44-3.48-32.07,11.7-41.04.96,1.94,3.94,7.67,4.39,9.4l-.5.56c-11.05,7.06-9.8,18.39-7.08,29.24l48.78-10.69c-.84-14.09-3.61-19.98-17.59-23.9-1.19-1.84-2.41-5.8-4.52-9.03Z"/>
    <path class="uuid-56c3d91d-ec5e-464c-9c1e-b0b1e457ffdb" d="m724.37,444.57c13.97,3.92,16.75,9.81,17.59,23.9l-48.78,10.69c-2.71-10.85-3.97-22.18,7.08-29.24,3.04,1.87,2.09,5.95,8.97,9.73,8.17-.11,12.71-.11,16.49-8.22-.28-2.98-.58-4.03-1.35-6.86Z"/>
    <path class="uuid-12484f13-169a-4127-a85b-5b23bdf576de" d="m209.96,476.5c10.64.04,21.24,7.27,30.74,10.22,28.39,8.83,62-.34,83.86-19.98,7.42-6.67,13.85-14.14,20.92-21.15,1.56-.3,1.09-.18,2.9.93,5.62,4.05,8.76,7.54,15.72,8.73l.55.54c-17.58,29.44-47.84,61.19-82.03,69.46-13.6,3.29-22.09,4.07-35.94,3.74.27,9.13,1.34,18.28,1.9,27.42l3.01,51.76c.65,10.09,1.85,24.72,1.78,34.47-2.23,2.06-2.95,2.58-5.6,3.94-24.18,4.12-49.2,5.58-73.72,5.83-16.54.17-30.86.16-46.5-5.95-1.01-.32-.7-.07-1.39-.82-5.04-5.47,1.69-84.77,2.23-97.73-14.61,13.99-27.73,35.75-39.4,52.29-5.54,7.85-10.12,17.11-14.92,25.47-3.43-.91-17.01-4.7-19.18-6.27,11.38-37.45,40.55-84.19,63.65-115.8,12.73-17.42,17.24-23.53,38.03-26.44,13.9,12.34,37.76,16.47,52.04,2.69,1.33-1.28,1.27-1.69,1.35-3.36Z"/>
    <path class="uuid-ac15c7e1-dae3-4b36-8fa2-ab9c8407b525" d="m165.75,463.08c7.72,2.03,21.44,1.03,29.64.26.93.05,3.58.09,4.2.45,1.22,7.72,2.26,10.65,10.37,12.71-.08,1.68-.03,2.08-1.35,3.36-14.28,13.78-38.14,9.65-52.04-2.69,6.26-5.7,7.12-5.47,9.18-14.09Z"/>
    <path class="uuid-12d1a9a9-e32d-4b29-9435-2393a9c0e8d8" d="m47.79,636.07c.56-.93,2.48-7.04,3.36-8.92,1.09-2.32,2.81-5.54,3.74-7.73,2.17,1.57,15.75,5.36,19.18,6.27-1.45,4.56-2.66,9.59-4.13,13.97-.94,1.44-2.04,2.71-2.16,4.35-1.81,3.86-1.29,3.97-3.96,7.89-8.56-.16-15.38-1.32-15.7-10.98.32-1.67.36-3.28-.33-4.85Z"/>
    <path class="uuid-9223e3d4-260e-47ae-a0de-1d6b1bc236c6" d="m29.32,668.64c-.35-13.96,6.31-25.81,18.47-32.58.69,1.56.65,3.17.33,4.85-10.74,8.63-12.81,14.48-15.33,28.06l-3.48-.33Z"/>
    <path class="uuid-9223e3d4-260e-47ae-a0de-1d6b1bc236c6" d="m67.79,644c.12-1.64,1.22-2.91,2.16-4.35,9.71,9.06,11.89,15.84,13.11,28.82l-.18.84c-1.25.26-2.67-.86-4.07-1.61-1.96-11.07-3.62-15.27-11.02-23.7Z"/>
    <path class="uuid-56c3d91d-ec5e-464c-9c1e-b0b1e457ffdb" d="m32.8,668.97c2.51-13.58,4.59-19.42,15.33-28.06.32,9.66,7.14,10.82,15.7,10.98,2.68-3.92,2.15-4.03,3.96-7.89,7.4,8.43,9.06,12.63,11.02,23.7.01,2.21.04,4.43.02,6.64-15.92-5.45-29.56-3.6-45.4-1.36-1.01-1.46-.62-1.81-.63-4.02Z"/>
    <path class="uuid-9223e3d4-260e-47ae-a0de-1d6b1bc236c6" d="m127.55,646.48c15.64,6.1,29.96,6.12,46.5,5.95,24.52-.26,49.54-1.71,73.72-5.83-.14,18.43-2.22,38.53-4.26,56.91-3.6,32.42-7.18,65.82-11.95,98.02-2.11,14.24-4.12,38.56-7.29,51.76-1.32.74-2.33.73-3.83.91-6.33.74-11.07,1.1-17.47,1.41-2.55-1.03-2.97-1.36-3.03-4.11-1.1-49.47-5.48-98.75-11.99-147.78-1.26,16.44-.41,48.25-1.74,61.86-1.41,14.4-41.9,55.37-54.28,64.31-3.79-4.18-9.11-7.84-13.26-12.04-.87-1.05-1.08-1.35-1.77-2.53.45-3.02,15.72-24.6,18.41-29.32,4.51-7.92,10.14-15.94,13.3-24.95-5.39-28.93-13.34-57.38-17.2-86.68-1.2-9.14-2.37-18.85-3.85-27.88Z"/>
    <path class="uuid-58b89a7c-6590-40fc-abc1-864c3d911bbf" d="m78.81,667.7c1.4.75,2.81,1.87,4.07,1.61l.18-.84c1.47,4.94,1.78,4.35.98,9.68l-.5-1.78c-1.22-1.24-2.94-1.46-4.7-2.04.02-2.21,0-4.43-.02-6.64Z"/>
    <path class="uuid-ac15c7e1-dae3-4b36-8fa2-ab9c8407b525" d="m29.32,668.64l3.48.33c0,2.21-.38,2.56.63,4.02,15.84-2.25,29.48-4.09,45.4,1.36,1.76.58,3.49.8,4.7,2.04l.5,1.78c3.57,6.52,8.69,12.38,12.45,18.93,8.12,14.14,15.13,35.47,10.33,51.79-1.12,3.81-3.35,6.76-6.9,8.58-14.2,7.3-74.68,6.22-90.02,1.29-3.44-1.11-5.79-2.89-7.36-6.21-7.65-16.27,3.69-46.71,12.29-60.79,4.53-7.43,11.4-14.34,14.32-22.56.06-.18.12-.36.19-.55Zm-1.95,63.41c-1.86.43-3.33,1.83-3.85,3.66-.52,1.83,0,3.8,1.36,5.14,1.36,1.34,3.33,1.83,5.16,1.29,2.7-.8,4.28-3.61,3.56-6.34-.72-2.73-3.47-4.39-6.22-3.76Zm48.84.19c-1.84.3-3.38,1.57-4.01,3.32-.64,1.75-.28,3.71.93,5.12,1.22,1.41,3.1,2.06,4.93,1.69,2.75-.56,4.54-3.21,4.04-5.97-.5-2.76-3.12-4.61-5.89-4.16Z"/>
    <path class="uuid-0c838617-ace3-4c4e-99d5-91a0d1e273c7" d="m472.06,668.03c23.81,5.84,38.42,8.68,62.83,10.41-.79,47.84-23.58,100.15-46.07,141.77-7.94,14.69-18.32,30.18-25.89,44.39-5.78-2.06-11.41-4.93-17.18-7.24,3.62-9.19,7.17-28.01,9.45-37.84,11.57-49.84,18.03-100.2,16.86-151.48Z"/>
    <path class="uuid-0c838617-ace3-4c4e-99d5-91a0d1e273c7" d="m564.53,678.28c18.63-.35,48.13-4.94,66.17-9.69.16,14.08-2.68,35.89-4.95,49.94-7.87,48.73-17.7,95.88-35.38,142.03-6.29.38-11.87-.37-18.11-1,3.88-43.19,2.43-84.72-1.19-127.87-1.5-17.87-2.57-35.91-6.55-53.41Z"/>
    <path class="uuid-9223e3d4-260e-47ae-a0de-1d6b1bc236c6" d="m30.03,742.14c-1.83.54-3.8.05-5.16-1.29-1.36-1.34-1.87-3.31-1.36-5.14.52-1.83,2-3.24,3.85-3.66,2.75-.63,5.5,1.03,6.22,3.76.72,2.73-.86,5.53-3.56,6.34Z"/>
    <path class="uuid-9223e3d4-260e-47ae-a0de-1d6b1bc236c6" d="m78.06,742.37c-1.83.37-3.71-.28-4.93-1.69-1.21-1.41-1.57-3.37-.93-5.12.64-1.75,2.17-3.02,4.01-3.32,2.77-.45,5.38,1.4,5.89,4.16.5,2.76-1.29,5.41-4.04,5.97Z"/>
    <path class="uuid-58b89a7c-6590-40fc-abc1-864c3d911bbf" d="m116.24,821.76c1.11-1.1,1.7-2.52,2.42-3.92,4.15,4.2,9.48,7.86,13.26,12.04-2.81,1.8-4.63,3.11-7.93,3.94-.74-1.85-6.33-9.93-7.75-12.06Z"/>
    <path class="uuid-706b5a70-de89-4fc2-ae44-c5f8d8014b9d" d="m100.25,831.1c5.43-2.98,10.66-6.19,15.98-9.34,1.43,2.14,7.01,10.21,7.75,12.06-1.01,7.05,4.54,26.12.4,29.47-6.36.18-21.97-26.04-24.13-32.19Z"/>
    <path class="uuid-58b89a7c-6590-40fc-abc1-864c3d911bbf" d="m202.97,855.6c6.39-.32,11.13-.67,17.47-1.41-1.02,2.38-1.16,2.77-1.44,5.34-5.2.55-10.38,1.21-15.61,1.26.91-2.58,1.03-2.84-.42-5.19Z"/>
    <path class="uuid-706b5a70-de89-4fc2-ae44-c5f8d8014b9d" d="m462.94,864.59c.73,5.05-.15,18.31-5.33,20.85-5.79-.68-41.15-16.74-45.8-20.66l.12-1.05c4.42-4.81,26.84-5.88,33.83-6.38,5.77,2.31,11.4,5.18,17.18,7.24Z"/>
    <path class="uuid-706b5a70-de89-4fc2-ae44-c5f8d8014b9d" d="m590.37,860.55c.67,4.99,3.41,15.96-.39,20.2-.84.94-4.43,1.45-5.7,1.4-13.62-.58-27.33-2.22-40.91-3.51-1.18-.11-2.24-.71-3.09-1.51l-.02-1c4.32-5.37,24.89-13.32,31.99-16.58,6.24.63,11.82,1.38,18.11,1Z"/>
    <path class="uuid-706b5a70-de89-4fc2-ae44-c5f8d8014b9d" d="m203.39,860.79c5.22-.05,10.41-.7,15.61-1.26,2.6,2.33,3.19,2.78,6.03,4.68,3.77,2.52,16.51,6.66,17.28,11.19-.37,1.29-.06,1.28-1.66,2.03-5.43,2.54-32.29,6.92-36.77,5.6-2.01-1.55-2.79-3.43-2.57-5.93.4-4.63-.44-12.43,2.09-16.31Z"/>
  </g>
</svg>