<?xml version="1.0" encoding="utf-8"?>
<!-- Generator: Adobe Illustrator 27.2.0, SVG Export Plug-In . SVG Version: 6.00 Build 0)  -->
<svg version="1.1" id="uuid-49804b31-e25e-4745-ae21-a072440e9bc8"
	 xmlns="http://www.w3.org/2000/svg" xmlns:xlink="http://www.w3.org/1999/xlink" x="0px" y="0px" viewBox="0 0 235 235"
	 style="enable-background:new 0 0 235 235;" xml:space="preserve">
<g id="uuid-078cc786-8930-441a-aeb6-cca065b890ed">
	<rect y="121.1" width="7.1" height="7.1"/>
	<rect x="42.7" y="106.8" width="7.1" height="7.1"/>
	<polygon points="78.3,0 78.3,7.1 71.2,7.1 71.2,14.2 64.1,14.2 64.1,7.1 57,7.1 57,0 	"/>
	<rect id="uuid-62d3e7c2-e8ac-46c5-ad82-142e576680c3" x="85.5" y="0" width="7.1" height="7.1"/>
	<polygon points="135.3,0 135.3,7.1 121.1,7.1 121.1,14.2 113.9,14.2 113.9,7.1 106.8,7.1 106.8,0 	"/>
	<polygon points="163.8,7.1 163.8,14.2 142.4,14.2 142.4,7.1 149.6,7.1 149.6,0 156.7,0 156.7,7.1 	"/>
	<rect id="uuid-89a85e3d-f9a9-4492-803b-6dd0de50f8f6" x="170.9" y="0" width="7.1" height="7.1"/>
	<rect id="uuid-68aec58d-46ca-41b1-8b76-530797f2187c" x="78.3" y="7.1" width="7.1" height="7.1"/>
	<rect id="uuid-40bee2aa-e711-4500-94c3-bac01c258e01" x="57" y="14.2" width="7.1" height="7.1"/>
	<rect id="uuid-63249bb4-aee2-4242-8390-753271b37459" x="85.5" y="14.2" width="7.1" height="7.1"/>
	<polygon points="113.9,14.2 113.9,21.4 106.8,21.4 106.8,35.6 99.7,35.6 99.7,28.5 92.6,28.5 92.6,21.4 99.7,21.4 99.7,14.2 	"/>
	<polygon points="128.2,14.2 128.2,28.5 113.9,28.5 113.9,21.4 121.1,21.4 121.1,14.2 	"/>
	<rect id="uuid-3d4a2edd-7e3e-4168-9c5b-1cb8e99a7746" x="163.8" y="14.2" width="7.1" height="7.1"/>
	<rect x="71.2" y="21.4" width="14.2" height="7.1"/>
	<rect id="uuid-5f535faf-8667-4466-8b54-ad533fa99a66" x="170.9" y="21.4" width="7.1" height="7.1"/>
	<rect id="uuid-29c31929-b027-4d2a-a619-21d7bca63431" x="57" y="28.5" width="7.1" height="7.1"/>
	<rect id="uuid-1fa7a924-893f-4a8d-83e2-0903e31fe1fb" x="85.5" y="28.5" width="7.1" height="7.1"/>
	<polygon points="178,35.6 178,49.8 170.9,49.8 170.9,42.7 163.8,42.7 163.8,49.8 156.7,49.8 156.7,42.7 149.6,42.7 149.6,35.6 
		128.2,35.6 128.2,28.5 142.4,28.5 142.4,21.4 149.6,21.4 149.6,28.5 163.8,28.5 163.8,35.6 	"/>
	<rect id="uuid-972592c3-dc42-4c73-9032-16d36a23b0f1" x="64.1" y="35.6" width="7.1" height="7.1"/>
	<rect id="uuid-bfdb53e4-0cf3-429f-a0d2-d5de06213cca" x="78.3" y="35.6" width="7.1" height="7.1"/>
	<rect id="uuid-e26fd0bf-2328-4903-a5ad-b0f463739f4a" x="92.6" y="35.6" width="7.1" height="7.1"/>
	<rect id="uuid-b498f33d-3768-4a29-83d4-7d9eb84dc7f5" x="121.1" y="35.6" width="7.1" height="7.1"/>
	<g>
		<path d="M0,0v49.8h49.8V0H0z M42.7,42.7H7.1V7.1h35.6C42.7,7.1,42.7,42.7,42.7,42.7z"/>
		<rect x="14.2" y="14.2" width="21.4" height="21.4"/>
	</g>
	<polygon points="92.6,57 92.6,71.2 85.5,71.2 85.5,78.3 78.3,78.3 78.3,71.2 71.2,71.2 71.2,57 57,57 57,42.7 64.1,42.7 64.1,49.8 
		71.2,49.8 71.2,42.7 78.3,42.7 78.3,57 	"/>
	<rect id="uuid-04f8b92c-6745-4185-b904-d170102b6564" x="85.5" y="42.7" width="7.1" height="7.1"/>
	<rect id="uuid-682d113d-dbf9-4de5-9f9d-9690dabc19d3" x="99.7" y="42.7" width="7.1" height="7.1"/>
	<rect id="uuid-9a2ef373-b65b-4368-8ff4-1f07ff929093" x="113.9" y="42.7" width="7.1" height="7.1"/>
	<rect id="uuid-d29b8877-6749-4b50-80fb-f2c8cbfba9f5" x="128.2" y="42.7" width="7.1" height="7.1"/>
	<polygon points="149.6,42.7 149.6,57 135.3,57 135.3,49.8 142.4,49.8 142.4,42.7 	"/>
	<g>
		<path d="M185.2,0v49.8H235V0H185.2z M227.9,42.7h-35.6V7.1h35.6V42.7z"/>
		<rect x="199.4" y="14.2" width="21.4" height="21.4"/>
	</g>
	<rect id="uuid-271783fc-cad2-4b60-a05d-175eefe0ea41" x="106.8" y="49.8" width="7.1" height="7.1"/>
	<polygon points="170.9,49.8 170.9,64.1 149.6,64.1 149.6,57 163.8,57 163.8,49.8 	"/>
	<rect x="35.6" y="57" width="14.2" height="7.1"/>
	<rect id="uuid-652ff87b-29b8-4043-b3b6-8deeb80b2a49" x="99.7" y="57" width="7.1" height="7.1"/>
	<rect id="uuid-d3d1089c-95ea-434f-82e8-534f7653776d" x="113.9" y="57" width="7.1" height="7.1"/>
	<rect id="uuid-92d260e6-949c-4327-a3b0-f7352bfd92ab" x="227.9" y="57" width="7.1" height="7.1"/>
	<rect id="uuid-6e227c70-95b9-4919-b041-25765c372ac7" y="64.1" width="7.1" height="7.1"/>
	<rect id="uuid-5bd1f14e-9169-443c-aec3-cda03204176c" x="14.2" y="64.1" width="7.1" height="7.1"/>
	<polygon points="142.4,71.2 142.4,78.3 149.6,78.3 149.6,85.4 135.3,85.4 135.3,78.3 128.2,78.3 128.2,71.2 135.3,71.2 135.3,64.1 
		149.6,64.1 149.6,71.2 	"/>
	<rect x="170.9" y="64.1" width="7.1" height="14.2"/>
	<rect x="106.8" y="64.1" width="7.1" height="14.2"/>
	<rect id="uuid-57398227-fee5-4eef-bb03-cc0b026afa2b" x="149.6" y="71.2" width="7.1" height="7.1"/>
	<rect id="uuid-f3ee3458-beef-467d-b201-4a86c83ed1f9" y="78.3" width="7.1" height="7.1"/>
	<polygon points="85.5,92.6 85.5,99.7 57,99.7 57,92.6 64.1,92.6 64.1,85.4 49.8,85.4 49.8,78.3 42.7,78.3 42.7,85.4 28.5,85.4 
		28.5,78.3 35.6,78.3 35.6,71.2 49.8,71.2 49.8,64.1 64.1,64.1 64.1,71.2 57,71.2 57,78.3 64.1,78.3 64.1,71.2 71.2,71.2 71.2,92.6 
			"/>
	<polygon points="206.5,85.4 206.5,92.6 192.3,92.6 192.3,85.4 185.2,85.4 185.2,78.3 199.4,78.3 199.4,85.4 	"/>
	<rect id="uuid-a4b008e0-9fc2-42b0-88d8-ef649e7e6274" x="206.5" y="78.3" width="7.1" height="7.1"/>
	<rect id="uuid-e57a4150-fea9-4191-be7c-97a1f793c379" x="42.7" y="85.5" width="7.1" height="7.1"/>
	<rect id="uuid-fa66a86d-02ee-4857-826f-7daacaa1f15a" x="85.5" y="85.5" width="7.1" height="7.1"/>
	<polygon points="185.2,99.7 185.2,113.9 178,113.9 178,106.8 170.9,106.8 170.9,113.9 163.8,113.9 163.8,99.7 156.7,99.7 
		156.7,92.6 149.6,92.6 149.6,85.4 156.7,85.4 156.7,78.3 170.9,78.3 170.9,99.7 	"/>
	<polygon points="235,71.2 235,92.6 220.8,92.6 220.8,85.4 227.9,85.4 227.9,78.3 220.8,78.3 220.8,71.2 206.5,71.2 206.5,78.3 
		199.4,78.3 199.4,71.2 185.2,71.2 185.2,57 192.3,57 192.3,64.1 199.4,64.1 199.4,57 206.5,57 206.5,64.1 213.6,64.1 213.6,57 
		220.8,57 220.8,64.1 227.9,64.1 227.9,71.2 	"/>
	<polygon points="28.5,85.4 28.5,92.6 21.4,92.6 21.4,99.7 0,99.7 0,92.6 14.2,92.6 14.2,78.3 21.4,78.3 21.4,85.4 	"/>
	<rect id="uuid-5e14a8b2-b644-43b0-acb7-8aa6a9879f84" x="28.5" y="92.6" width="7.1" height="7.1"/>
	<rect id="uuid-53ee4888-29e0-487a-ae00-c9095869ebc6" x="185.2" y="92.6" width="7.1" height="7.1"/>
	<polygon points="213.6,99.7 213.6,106.8 220.8,106.8 220.8,113.9 199.4,113.9 199.4,106.8 206.5,106.8 206.5,92.6 220.8,92.6 
		220.8,99.7 	"/>
	<rect id="uuid-b24ff868-cb34-4d94-aaee-dc041d7bddd8" x="21.4" y="99.7" width="7.1" height="7.1"/>
	<rect id="uuid-e708ec7d-42ee-4fae-865d-b853c4be71b2" x="85.5" y="99.7" width="7.1" height="7.1"/>
	<polygon points="128.2,85.4 128.2,106.8 113.9,106.8 113.9,99.7 99.7,99.7 99.7,85.4 113.9,85.4 113.9,78.3 121.1,78.3 121.1,85.4 
			"/>
	<rect id="uuid-423f4d70-8883-42b8-b736-228830ca5205" x="142.4" y="99.7" width="7.1" height="7.1"/>
	<rect id="uuid-d048dfd7-2964-4d88-84c8-c39ad7131322" x="192.3" y="99.7" width="7.1" height="7.1"/>
	<rect id="uuid-832795e8-be7d-4d0d-bf3c-5c20562f3deb" x="220.8" y="99.7" width="7.1" height="7.1"/>
	<polygon points="71.2,106.8 71.2,113.9 57,113.9 57,121.1 35.6,121.1 35.6,113.9 28.5,113.9 28.5,106.8 42.7,106.8 42.7,113.9 
		49.8,113.9 49.8,106.8 42.7,106.8 42.7,99.7 57,99.7 57,106.8 	"/>
	<rect id="uuid-cc745161-11a4-453d-b68f-6a170f21464e" x="92.6" y="106.8" width="7.1" height="7.1"/>
	<rect id="uuid-209c406c-4cf5-4863-8fc3-76247000b050" x="135.3" y="106.8" width="7.1" height="7.1"/>
	<rect id="uuid-74ea4420-06f0-4a84-a3c7-50aa79564d69" x="149.6" y="106.8" width="7.1" height="7.1"/>
	<polygon points="21.4,106.8 21.4,113.9 7.1,113.9 7.1,121.1 0,121.1 0,106.8 	"/>
	<rect id="uuid-94e66821-c2d8-40fb-bcee-ffd76fec61d1" x="21.4" y="113.9" width="7.1" height="7.1"/>
	<rect id="uuid-e0cdd887-7b0d-4500-b6cb-15f29eca4680" x="78.3" y="113.9" width="7.1" height="7.1"/>
	<rect id="uuid-3ca3628f-4161-42a8-819a-89e9a52b615d" x="142.4" y="113.9" width="7.1" height="7.1"/>
	<polygon points="199.4,121.1 199.4,142.4 192.3,142.4 192.3,156.7 185.2,156.7 185.2,149.6 178,149.6 178,142.4 185.2,142.4 
		185.2,135.3 192.3,135.3 192.3,128.2 170.9,128.2 170.9,113.9 178,113.9 178,121.1 	"/>
	<rect id="uuid-d04d201f-5c05-4b19-b7d0-f6990f4a16ef" x="28.5" y="121.1" width="7.1" height="7.1"/>
	<rect id="uuid-858a61f4-a32e-4500-9881-109a93a26ea0" x="57" y="121.1" width="7.1" height="7.1"/>
	<polygon points="128.2,121.1 128.2,135.3 106.8,135.3 106.8,128.2 99.7,128.2 99.7,135.3 106.8,135.3 106.8,149.6 99.7,149.6 
		99.7,142.4 92.6,142.4 92.6,135.3 85.5,135.3 85.5,128.2 92.6,128.2 92.6,121.1 106.8,121.1 106.8,106.8 113.9,106.8 113.9,128.2 
		121.1,128.2 121.1,121.1 	"/>
	<rect id="uuid-6567eb33-064d-44c6-be5d-33df5b33d63d" x="135.3" y="121.1" width="7.1" height="7.1"/>
	<polygon points="64.1,142.4 64.1,149.6 42.7,149.6 42.7,142.4 49.8,142.4 49.8,135.3 42.7,135.3 42.7,142.4 35.6,142.4 35.6,128.2 
		57,128.2 57,142.4 	"/>
	<polygon points="170.9,128.2 170.9,142.4 163.8,142.4 163.8,135.3 156.7,135.3 156.7,128.2 	"/>
	<polygon points="235,113.9 235,128.2 220.8,128.2 220.8,135.3 213.6,135.3 213.6,121.1 227.9,121.1 227.9,113.9 	"/>
	<rect x="71.2" y="121.1" width="7.1" height="21.4"/>
	<rect id="uuid-9491725c-2047-45af-b0a7-1cf613bd78c3" x="128.2" y="135.3" width="7.1" height="7.1"/>
	<rect x="142.4" y="135.3" width="14.2" height="7.1"/>
	<rect x="220.8" y="135.3" width="7.1" height="14.2"/>
	<rect id="uuid-45806199-7a8a-436f-8876-98673d1f9e52" x="21.4" y="142.4" width="7.1" height="7.1"/>
	<rect id="uuid-9b533615-a96f-4c52-9286-9f671b222f75" x="156.7" y="142.4" width="7.1" height="7.1"/>
	<polygon points="57,156.7 57,163.8 42.7,163.8 42.7,170.9 28.5,170.9 28.5,163.8 35.6,163.8 35.6,149.6 42.7,149.6 42.7,156.7 	"/>
	<rect id="uuid-cf0bb760-9850-4edc-82ba-535a934b61d0" x="64.1" y="149.6" width="7.1" height="7.1"/>
	<rect id="uuid-184adde2-3a49-4337-80c5-5637bbc96485" x="170.9" y="149.6" width="7.1" height="7.1"/>
	<rect id="uuid-bad25616-8fb8-4f91-808b-1f2f0a1607ac" x="227.9" y="149.6" width="7.1" height="7.1"/>
	<rect id="uuid-a3e3fee3-cc76-4ae6-9ed8-fe238bb84f85" x="156.7" y="156.7" width="7.1" height="7.1"/>
	<rect id="uuid-5c451758-50ed-4be3-bdb4-5cc496abc2e0" x="14.2" y="163.8" width="7.1" height="7.1"/>
	<polygon points="28.5,128.2 28.5,135.3 14.2,135.3 14.2,149.6 21.4,149.6 21.4,156.7 7.1,156.7 7.1,170.9 14.2,170.9 14.2,178 
		0,178 0,128.2 7.1,128.2 7.1,121.1 14.2,121.1 14.2,128.2 	"/>
	<polygon points="64.1,170.9 64.1,185.1 57,185.1 57,178 42.7,178 42.7,170.9 	"/>
	<polygon points="92.6,170.9 92.6,185.1 85.5,185.1 85.5,178 71.2,178 71.2,163.8 78.3,163.8 78.3,142.4 85.5,142.4 85.5,170.9 	"/>
	<rect id="uuid-4c04bd8f-016d-40bb-bdfc-b4a661a01351" x="99.7" y="178" width="7.1" height="7.1"/>
	<polygon points="128.2,185.1 128.2,192.3 113.9,192.3 113.9,178 121.1,178 121.1,185.1 	"/>
	<path d="M0,185.1V235h49.8v-49.9H0z M42.7,227.9H7.1v-35.6h35.6L42.7,227.9L42.7,227.9z"/>
	<path d="M92.6,199.4v-7.1h-7.1v-7.1h-7.1v7.1h-7.1v-7.1h-7.1v7.1H57v7.1h7.1v28.5h7.1v-7.1h7.1v7.1h-7.1v7.1h14.2v-21.4h7.1v-7.1
		h7.1v-7.1H92.6z M78.3,206.5v7.1h-7.1v-14.2h14.2v7.1L78.3,206.5L78.3,206.5z"/>
	<rect id="uuid-33df0eea-0734-41ee-aa54-a2c8385fa040" x="92.6" y="185.2" width="7.1" height="7.1"/>
	<rect id="uuid-43fbf5cd-b9ca-4aa2-8c18-a3b59b61f96e" x="135.3" y="185.2" width="7.1" height="7.1"/>
	<rect id="uuid-9c9e8fad-455e-4a21-ac22-3aa7e460e4b4" x="185.2" y="185.2" width="7.1" height="7.1"/>
	<rect id="uuid-605fe2af-5287-4c9e-8644-6dd26b5ba60f" x="213.6" y="192.3" width="7.1" height="7.1"/>
	<rect x="14.2" y="199.4" width="21.4" height="21.4"/>
	<polygon points="135.3,192.3 135.3,206.5 128.2,206.5 128.2,213.6 121.1,213.6 121.1,206.5 106.8,206.5 106.8,199.4 99.7,199.4 
		99.7,192.3 113.9,192.3 113.9,199.4 128.2,199.4 128.2,192.3 	"/>
	<rect x="135.3" y="206.5" width="14.2" height="7.1"/>
	<path d="M213.6,163.8v-7.1h7.1v-7.1h-7.1v-7.1h-14.2v7.1h7.1v7.1h-14.2v7.1h-7.1v-7.1H178v7.1h-7.1v7.1h-7.1v7.1h7.1v21.4h-7.1V178
		h-7.1v-14.2h-28.5v-7.1h21.4v-7.1h-21.4v-7.1H114v7.1h7.1v7.1H99.7v-7.1h-7.1v14.2h14.2v7.1h21.4v14.2h7.1v-14.2h7.1v7.1h7.1v7.1
		h7.1v7.1h-14.2v7.1h7.1v7.1H178v7.1h-7.1v7.1h7.1v7.1h7.1v-7.1h14.2v-7.1h-14.2v-7.1h21.4v-14.2h7.1v-7.1h7.1v7.1H235v-28.5
		L213.6,163.8L213.6,163.8z M199.4,199.4H178V178h21.4V199.4z M206.5,170.9h-7.1v-7.1h7.1V170.9z M227.9,178h-14.2v-7.1h14.2V178z"
		/>
	<polygon points="156.7,213.6 156.7,235 142.4,235 142.4,227.9 149.6,227.9 149.6,213.6 	"/>
	<polygon points="121.1,220.8 121.1,227.9 106.8,227.9 106.8,220.8 99.7,220.8 99.7,206.5 106.8,206.5 106.8,213.6 113.9,213.6 
		113.9,220.8 	"/>
	<polygon points="142.4,220.8 142.4,227.9 128.2,227.9 128.2,213.6 135.3,213.6 135.3,220.8 	"/>
	<rect id="uuid-444b8291-00df-45ef-8287-e5165d6a11c3" x="163.8" y="220.8" width="7.1" height="7.1"/>
	<polygon points="235,213.6 235,227.9 227.9,227.9 227.9,235 213.6,235 213.6,227.9 220.8,227.9 220.8,213.6 213.6,213.6 
		213.6,227.9 199.4,227.9 199.4,220.8 206.5,220.8 206.5,206.5 227.9,206.5 227.9,213.6 	"/>
	<rect x="92.6" y="227.9" width="14.2" height="7.1"/>
	<rect id="uuid-08279d83-f8d4-4b52-80a1-47d7113f474b" x="170.9" y="227.9" width="7.1" height="7.1"/>
	<rect id="uuid-42870f30-ceac-46dd-a52d-a3fe9b6f8b3b" x="185.2" y="227.9" width="7.1" height="7.1"/>
</g>
</svg>
