<?xml version="1.0" encoding="utf-8"?>
<!-- Generator: Adobe Illustrator 27.2.0, SVG Export Plug-In . SVG Version: 6.00 Build 0)  -->
<svg version="1.1" id="uuid-27dbe1e7-b2dd-43e0-b96d-52a03677b64d"
	 xmlns="http://www.w3.org/2000/svg" xmlns:xlink="http://www.w3.org/1999/xlink" x="0px" y="0px" viewBox="0 0 235.4 235.4"
	 style="enable-background:new 0 0 235.4 235.4;" xml:space="preserve">
<g id="uuid-02d5b50b-b03c-445e-bc8a-40cf0c70994d">
	<path d="M0,0v56.8h56.8V0H0z M48.7,48.7H8.1V8.1h40.6V48.7z"/>
	<rect x="81.2" y="0" width="8.1" height="16.2"/>
	<rect x="97.4" y="0" width="16.2" height="8.1"/>
	<path d="M178.6,0v56.8h56.8V0H178.6L178.6,0z M227.3,48.7h-40.6V8.1h40.6V48.7z"/>
	<rect id="uuid-d58c3d7c-69ab-45b9-b3cd-66869ab34968" x="64.9" y="8.1" width="8.1" height="8.1"/>
	<polygon points="138,0 138,8.1 129.9,8.1 129.9,16.2 121.8,16.2 121.8,0 	"/>
	<rect x="16.2" y="16.2" width="24.4" height="24.4"/>
	<rect id="uuid-cd2200e0-f165-47b2-ad7c-6e0184a7de72" x="89.3" y="16.2" width="8.1" height="8.1"/>
	<rect x="194.8" y="16.2" width="24.4" height="24.4"/>
	<polygon points="194.8,81.2 194.8,97.4 186.7,97.4 186.7,89.3 178.6,89.3 178.6,97.4 170.5,97.4 170.5,89.3 162.4,89.3 162.4,81.2 
		154.2,81.2 154.2,73.1 146.1,73.1 146.1,64.9 138,64.9 138,56.8 146.1,56.8 146.1,40.6 154.2,40.6 154.2,24.4 146.1,24.4 
		146.1,32.5 129.9,32.5 129.9,16.2 138,16.2 138,8.1 146.1,8.1 146.1,0 162.4,0 162.4,8.1 154.2,8.1 154.2,16.2 162.4,16.2 
		162.4,8.1 170.5,8.1 170.5,24.4 162.4,24.4 162.4,48.7 154.2,48.7 154.2,56.8 162.4,56.8 162.4,73.1 170.5,73.1 170.5,81.2 	"/>
	<rect x="121.8" y="32.5" width="8.1" height="16.2"/>
	<rect id="uuid-ac1af783-b218-40c2-9637-599d06acc06f" x="105.5" y="40.6" width="8.1" height="8.1"/>
	<rect x="97.4" y="48.7" width="8.1" height="24.4"/>
	<rect id="uuid-a42eca91-493c-4e6b-b31c-a0d1566e9819" x="129.9" y="48.7" width="8.1" height="8.1"/>
	<rect id="uuid-de7dddb8-4628-4dc2-8cf2-09d1fbd0a0fd" x="162.4" y="48.7" width="8.1" height="8.1"/>
	<path d="M113.7,16.2v8.1H97.4v8.1h-8.1v8.1h-8.1v-8.1h8.1v-8.1h-8.1v-8.1h-8.1v24.4h-8.1V65h8.1v8.1h16.2V48.7h8.1v-8.1h8.1v-8.1
		h16.2V16.2C121.8,16.2,113.7,16.2,113.7,16.2z M81.2,56.8h-8.1v-8.1h8.1V56.8z"/>
	<rect x="113.7" y="48.7" width="8.1" height="24.4"/>
	<polygon points="138,64.9 138,81.2 121.8,81.2 121.8,73.1 129.9,73.1 129.9,64.9 	"/>
	<rect x="178.6" y="64.9" width="16.2" height="8.1"/>
	<rect id="uuid-bd21b1ca-342e-41c5-b614-285ed93370bd" x="219.2" y="64.9" width="8.1" height="8.1"/>
	<rect id="uuid-20d3110a-7cc3-4aa6-b454-9486027a6870" x="16.2" y="73.1" width="8.1" height="8.1"/>
	<rect x="24.4" y="81.2" width="8.1" height="16.2"/>
	<rect id="uuid-61d2e4fc-1555-4895-9906-ba47c88a4930" x="138" y="81.2" width="8.1" height="8.1"/>
	<rect id="uuid-5f010806-042e-4387-8f8d-63c74d827b67" y="89.3" width="8.1" height="8.1"/>
	<rect id="uuid-acd7f73a-e140-434a-bd34-c2d60e7b431c" x="113.7" y="105.5" width="8.1" height="8.1"/>
	<polygon points="121.8,81.2 121.8,97.4 113.7,97.4 113.7,105.5 97.4,105.5 97.4,113.7 89.3,113.7 89.3,105.5 81.2,105.5 81.2,97.4 
		73.1,97.4 73.1,105.5 81.2,105.5 81.2,113.7 89.3,113.7 89.3,121.8 97.4,121.8 97.4,138 89.3,138 89.3,129.9 73.1,129.9 
		73.1,121.8 64.9,121.8 64.9,129.9 56.8,129.9 56.8,121.8 48.7,121.8 48.7,113.7 64.9,113.7 64.9,105.5 40.6,105.5 40.6,89.3 
		48.7,89.3 48.7,97.4 56.8,97.4 56.8,89.3 48.7,89.3 48.7,81.2 56.8,81.2 56.8,73.1 32.5,73.1 32.5,64.9 64.9,64.9 64.9,89.3 
		73.1,89.3 73.1,81.2 105.5,81.2 105.5,89.3 113.7,89.3 113.7,81.2 	"/>
	<rect id="uuid-bb69cfff-1b99-4988-a51d-0dbd98796001" x="186.7" y="121.8" width="8.1" height="8.1"/>
	<polygon points="56.8,129.9 56.8,138 40.6,138 40.6,129.9 24.4,129.9 24.4,121.8 16.2,121.8 16.2,129.9 8.1,129.9 8.1,121.8 
		0,121.8 0,113.7 8.1,113.7 8.1,105.5 16.2,105.5 16.2,113.7 24.4,113.7 24.4,105.5 32.5,105.5 32.5,113.7 40.6,113.7 40.6,121.8 
		48.7,121.8 48.7,129.9 	"/>
	<polygon points="235.4,81.2 235.4,97.4 227.3,97.4 227.3,89.3 219.2,89.3 219.2,113.7 227.3,113.7 227.3,105.5 235.4,105.5 
		235.4,121.8 211.1,121.8 211.1,129.9 219.2,129.9 219.2,154.2 194.8,154.2 194.8,146.1 203,146.1 203,138 194.8,138 194.8,129.9 
		203,129.9 203,121.8 194.8,121.8 194.8,113.7 211.1,113.7 211.1,89.3 203,89.3 203,81.2 194.8,81.2 194.8,73.1 219.2,73.1 
		219.2,81.2 	"/>
	<rect id="uuid-21905d58-002f-4444-a487-af6a46b3b49c" y="138" width="8.1" height="8.1"/>
	<rect id="uuid-4e7bda15-43ef-480f-832e-b88e2bd1566c" x="56.8" y="138" width="8.1" height="8.1"/>
	<rect id="uuid-799db6fd-37ac-434c-ada1-45ee6d9745da" x="48.7" y="146.1" width="8.1" height="8.1"/>
	<rect x="89.3" y="146.1" width="16.2" height="8.1"/>
	<rect x="170.5" y="146.1" width="16.2" height="8.1"/>
	<rect id="uuid-6723ccc2-99fc-49c9-9944-a3fdc18afeb5" x="227.3" y="146.1" width="8.1" height="8.1"/>
	<polygon points="129.9,154.2 129.9,178.6 121.8,178.6 121.8,170.5 113.7,170.5 113.7,162.4 121.8,162.4 121.8,154.2 	"/>
	<rect id="uuid-6a081bd9-4d0c-44a4-b25e-24c0c4190dc5" x="219.2" y="154.2" width="8.1" height="8.1"/>
	<rect y="162.4" width="16.2" height="8.1"/>
	<polygon points="48.7,154.2 48.7,162.4 32.5,162.4 32.5,170.5 24.4,170.5 24.4,154.2 16.2,154.2 16.2,138 40.6,138 40.6,154.2 	"/>
	<rect x="48.7" y="162.4" width="16.2" height="8.1"/>
	<polygon points="154.2,170.5 154.2,194.8 129.9,194.8 129.9,178.6 138,178.6 138,162.4 146.1,162.4 146.1,170.5 	"/>
	<rect id="uuid-9ecd9d11-7600-408a-999c-c10dea10597e" x="227.3" y="162.4" width="8.1" height="8.1"/>
	<rect x="211.1" y="170.5" width="16.2" height="16.2"/>
	<path d="M0,178.6v56.8h56.8v-56.8H0z M48.7,227.3H8.1v-40.6h40.6V227.3z"/>
	<polygon points="121.8,178.6 121.8,186.7 113.7,186.7 113.7,194.8 97.4,194.8 97.4,186.7 105.5,186.7 105.5,178.6 	"/>
	<rect id="uuid-c307069b-fc85-465c-aefa-73749024e752" x="178.6" y="178.6" width="8.1" height="8.1"/>
	<rect x="16.2" y="194.8" width="24.4" height="24.4"/>
	<polygon points="97.4,162.4 97.4,170.5 89.3,170.5 89.3,186.7 73.1,186.7 73.1,203 64.9,203 64.9,170.5 73.1,170.5 73.1,154.2 
		64.9,154.2 64.9,146.1 73.1,146.1 73.1,138 81.2,138 81.2,154.2 89.3,154.2 89.3,162.4 	"/>
	<rect id="uuid-17de58c9-a463-4908-ab07-2523df198e81" x="89.3" y="194.8" width="8.1" height="8.1"/>
	<rect id="uuid-05184cd9-d209-46ce-ac10-222d6137795b" x="81.2" y="203" width="8.1" height="8.1"/>
	<rect id="uuid-9fa3678d-7c56-44dc-a888-6432b2be0b2a" x="121.8" y="203" width="8.1" height="8.1"/>
	<path d="M227.3,211.1V203h-8.1v-8.1h-8.1v8.1H203v-8.1h8.1v-8.1H203v-16.2h8.1v-8.1h-16.2v-8.1h-8.1v8.1h-16.2v-8.1h-8.1V138h24.4
		v-8.1h-8.1v-8.1h-8.1v8.1h-8.1v-8.1h8.1v-8.1h16.2V97.4h-8.1v8.1h-8.1v-8.1h-16.2v-8.1h-8.1v16.2h8.1v16.2h-8.1v-16.2H138v-8.1
		h-16.2v8.1h8.1v8.1h-8.1v16.2h-8.1v-16.2h-8.1v32.5h8.1v8.1h8.1v-8.1h8.1v8.1h16.2v-8.1H138V138h-8.1v-16.2h8.1v8.1h16.2v32.5h8.1
		V203h8.1v8.1h8.1V203h16.2v16.2h-24.4v8.1h-8.1v-8.1h-8.1V203H138v16.2h8.1v8.1h8.1v8.1h24.4v-8.1h8.1v8.1H203v-16.2h32.5v-8.1
		L227.3,211.1L227.3,211.1z M194.8,194.8h-24.4v-24.4h24.4V194.8z"/>
	<rect id="uuid-54c5dd08-788c-44f6-a8b9-b7f7b36ae4b1" x="73.1" y="211.1" width="8.1" height="8.1"/>
	<polygon points="121.8,211.1 121.8,219.2 113.7,219.2 113.7,227.3 97.4,227.3 97.4,219.2 105.5,219.2 105.5,211.1 	"/>
	<rect x="121.8" y="219.2" width="16.2" height="8.1"/>
	<rect x="81.2" y="219.2" width="8.1" height="16.2"/>
	<rect id="uuid-6f7993eb-5dcc-404a-8005-da136b4ac5fc" x="138" y="227.3" width="8.1" height="8.1"/>
	<rect x="211.1" y="227.3" width="16.2" height="8.1"/>
	<rect id="uuid-cd381102-e550-4a39-8c67-4a070c9a9dc6" x="101" y="200.7" width="7.1" height="7.1"/>
</g>
</svg>
