<?xml version="1.0" encoding="UTF-8"?>
<svg id="uuid-6ec359f9-0f14-4786-b1fb-6f4c779b9e31" data-name="Слой 2" xmlns="http://www.w3.org/2000/svg" xmlns:xlink="http://www.w3.org/1999/xlink" viewBox="0 0 955.4 772.39">
  <defs>
    <style>
      .uuid-63d2d7c0-78f3-478d-8110-10f01e7fee48 {
        fill: #f4f0b9;
      }

      .uuid-5d977832-e01c-4d94-a72f-07843a103bd5 {
        fill: #c7494c;
      }

      .uuid-9a0b1bb9-7ffb-41c7-8852-78a7bf73c610 {
        fill: #f8c458;
      }

      .uuid-bfafabe9-d16a-4f4d-a900-f7ea3ad7fa28 {
        fill: #b6946b;
      }

      .uuid-ac5816e7-568b-464a-95f1-753bd8c98d25 {
        fill: #691219;
      }

      .uuid-ab188bcf-1d20-4447-a3c4-899a6851109d {
        fill: #978056;
      }

      .uuid-ee76b89a-7182-4445-a819-8e8381194fab {
        fill: #fdfefe;
      }

      .uuid-b339f6e6-578b-40aa-9e8e-15d317ca0f5e {
        fill: #8c585b;
      }

      .uuid-41816c77-8ae3-4ba6-994d-7e213d507c0b {
        fill: #73c9b0;
      }

      .uuid-04f91985-708f-4299-9288-36089f4654fe {
        fill: #636a7d;
      }

      .uuid-d6f7af2f-4b2a-4271-be2d-0802630dd858 {
        fill: #f59d9a;
      }

      .uuid-e4b2aa0b-3a3a-4676-a2c0-dcc9b4cc4357 {
        fill: #80cbcb;
      }

      .uuid-137df494-d05e-416a-a380-bc4c5c2d0d56 {
        fill: #f8d586;
      }

      .uuid-b6228fde-ae0d-4f7a-9cbd-89ad9730a902 {
        fill: #9fc9c1;
      }

      .uuid-bd87c777-c2f8-4027-9621-5ad5c5cd7112 {
        fill: #818e73;
      }

      .uuid-e6abb306-5598-4a1f-8557-9662bb554572 {
        fill: #e099a7;
      }

      .uuid-a7e8cc52-6d29-47d6-972d-6bc3beeb632b {
        fill: #f69f4d;
      }

      .uuid-31860c99-7f90-41db-85ec-808b307d5622 {
        fill: #c57a39;
      }

      .uuid-1399fe44-691b-45ae-9586-db23460e1bcc {
        fill: #5c635f;
      }

      .uuid-747d578c-4a0f-4399-9c7a-427a462fbf1c {
        fill: #f0937d;
      }

      .uuid-2ff65363-a35c-4d8b-80cc-4e0f10e0a620 {
        fill: #efa934;
      }

      .uuid-fca29ddb-44c9-4020-bc02-d69153790c48 {
        fill: #63b9bb;
      }

      .uuid-57b2b6bd-0e87-4bbd-9355-d475b587861a {
        fill: #f8e86e;
      }

      .uuid-64de3105-248a-4b13-ac1f-e409cb802dfa {
        fill: url(#uuid-e7ae87ef-975f-45fb-bf89-f650822be685);
      }

      .uuid-9b8ddf99-a5c7-4bed-8e21-0785ae9fbe9c {
        fill: #ece8e5;
      }

      .uuid-268fcddf-0577-4bea-a5f5-2d22d97d6851 {
        fill: #f8e2ce;
      }

      .uuid-9b338ec8-5685-4c31-ab01-d320848c062c {
        fill: #be9eab;
      }

      .uuid-ed3f3b37-b7ec-42fe-a1b0-7a3b74a27508 {
        fill: #d8ad7f;
      }

      .uuid-1d952f67-aa59-483f-988f-cdaca17f9721 {
        fill: #2a7576;
      }

      .uuid-de7a5c32-6be7-49b8-aff6-9f62701d434e {
        fill: url(#uuid-deb85f0d-4bc5-44b4-8d68-1879ce845b60);
      }

      .uuid-e75d9fb2-d8d0-40c4-99a4-f65552e1bf1e {
        fill: #ecd3a5;
      }

      .uuid-55339692-1a70-46cf-bfee-d9eb1a580b1e {
        fill: #e0708d;
      }

      .uuid-f3b3642f-b5b1-47bb-9a52-cbe47161a201 {
        fill: #cec0c0;
      }

      .uuid-76334783-3666-4dd5-befa-dc117c80113a {
        fill: #4d9295;
      }

      .uuid-d1758fa4-877f-424d-a03e-5c757d25797a {
        fill: #070404;
      }

      .uuid-7d231039-0075-450f-a0e8-e7778a88bb73 {
        fill: url(#uuid-e3851ff7-f1ab-4f9c-977b-6d7fe5c33f97);
      }

      .uuid-01f3cbec-1e71-4bcf-a640-44eb75cba8b6 {
        fill: #dab6b8;
      }

      .uuid-eceaefc2-0c02-4f42-a7c0-1981e548834d {
        fill: #bf7159;
      }

      .uuid-7860cb6e-b7c4-4a96-9854-a51bf8a92c44 {
        fill: #3d3d3b;
      }

      .uuid-468ce4e7-d8da-41f7-8113-fda4a1fd6796 {
        fill: #f1bd9d;
      }

      .uuid-6d91f211-f38c-47a4-9d2a-0d5ccb0aaa94 {
        fill: #ea646b;
      }

      .uuid-5bddc2f5-2be3-41cd-9054-5ae4a9ac44b0 {
        fill: #85847f;
      }

      .uuid-d0a8b198-eb68-4d99-8009-014bca829686 {
        fill: #ed9c66;
      }

      .uuid-3ad363a5-0a3d-4bc2-af1a-f456eab974c6 {
        fill: #aec3c1;
      }

      .uuid-4a9877a0-bf01-4e48-bf01-925c86d48b6a {
        fill: #ea5663;
      }

      .uuid-141d92a7-258f-44ef-9456-5b050306fb95 {
        fill: #b44947;
      }
    </style>
    <linearGradient id="uuid-e3851ff7-f1ab-4f9c-977b-6d7fe5c33f97" data-name="Безымянный градиент 4" x1="788.57" y1="118.99" x2="805.44" y2="109.49" gradientTransform="translate(0 523.14) scale(1 -1)" gradientUnits="userSpaceOnUse">
      <stop offset="0" stop-color="#eee774"/>
      <stop offset="1" stop-color="#f0cd83"/>
    </linearGradient>
    <linearGradient id="uuid-deb85f0d-4bc5-44b4-8d68-1879ce845b60" data-name="Безымянный градиент 5" x1="836.2" y1="93.31" x2="854.44" y2="87.86" gradientTransform="translate(0 523.14) scale(1 -1)" gradientUnits="userSpaceOnUse">
      <stop offset="0" stop-color="#f5b63e"/>
      <stop offset="1" stop-color="#fcd355"/>
    </linearGradient>
    <linearGradient id="uuid-e7ae87ef-975f-45fb-bf89-f650822be685" data-name="Безымянный градиент 6" x1="804.95" y1="81.36" x2="775.18" y2="86.38" gradientTransform="translate(0 523.14) scale(1 -1)" gradientUnits="userSpaceOnUse">
      <stop offset="0" stop-color="#fbcb24"/>
      <stop offset="1" stop-color="#f6b232"/>
    </linearGradient>
  </defs>
  <g id="uuid-1d75b348-a381-4125-a8dd-96a9a23790f0" data-name="Слой 1">
    <path class="uuid-d1758fa4-877f-424d-a03e-5c757d25797a" d="m391.9,39.62c15.22-11.28,24.3-16.65,42.83-22.62,28.43-9.14,61.4-7.47,90.02.37,11.11,3.04,23.77,9.07,33.87,14.43l2.16,1.27c8.22,5.21,13.42,8.95,20.88,15.46l2.1,2.02,9.23,10.88,1.82,2.15c1.62,2.27,2.92,4.06,4.3,6.51l1.82,3.36,3.03,6.09,1.98,4.69,2.15,5.45.81,2.27c3.8,12.28,5.34,19.98,7,32.64l.32,2.79.31,3.91c.18,3.23.3,7.73.65,10.87l-.12,4.39c-.09,1.29-.23,2.78-.25,4.06-.21,3.11-.42,6.17-.68,9.28l-.51,3.84-1.16,6.66-.67,4.23c-.72,3.18-1.52,7.16-2.39,10.23-1.37,5.98-2.8,10.62-5.3,16.26,5.98,1.78,10.1,3.97,12.91,9.73,6.6,13.53,3.89,33.36-10.91,40.22-10.5,4.88-18.3,5.07-29.34,4.92-4.7,12.5-9.74,22.86-17.18,33.99-5.66,7.05-12.68,14.02-19.79,19.65-10.53,6.96-16.33,10.72-28.15,15.57l-1.16.41c.99.75.6.56,1.85.85,6.42,3.34,8.59,10.02,10.81,16.82,13.69,2.18,34.06,5.55,45.56,13.7,4.8,3.4,12.81,13.43,16.36,18.47,21.88,31.13,43.67,64.57,63.15,97.25l.11-43.03c.18-27.09,2.42-59.87-18.55-81.8-21.12-22.09-81.07-21.43-111.19-21.57l-3.06-1.02c11.98-1.38,28.05.23,40.27.55,3.57.09,8.88.62,12.29.48l8.01.59c6.24.81,13.08,1.88,19.25,3.1l2.77.79,6.16,1.72,7.83,2.55,4.53,2.07c1.46.78,3.98,2.02,5.3,2.86,2.29,1.65,4.65,3.3,6.87,5.03l4.13,4.1,3.85,4.86,2.87,4.54,1.72,3.28c.78,2.04,2.14,5.27,2.71,7.27l.89,2.65,2.14,6.62.97,4.39,1.01,5.78c.32,3.15.59,6.3,1.12,9.42l.02.48-.05,6.69.12,2.72-.04,11.29-.04,3.53c-.19,6.84-.38,13.67-.4,20.51l-.06,5.8v6.34s-.02,4.68-.02,4.68l-.05,4.75-.07,4.56c-.01,1.98-.08,3.93.2,5.9l2.67,4.25,3.44,5.54,1.02,1.51c1.08,2.1,2.17,4.16,3.4,6.18,1.62,2.96,3.19,6.02,4.35,9.19,2.35,6.39,2.1,11.48-.72,17.56,19.58-.69,39.17-.1,58.77-.07l64.77-.42c-.78-8.32-2.43-16.64-3.4-24.96-2.1-.76-4.11-1.35-5.84-2.82-1.87-3.45-1.21-21.7-.39-25.93.88-1.49,2.31-2.01,3.79-2.77l-4.07-15.9c-.47-1.88-.99-3.74-1.5-5.6l-.72-3.63-1.28-4.85c-.55-2.65-1.3-5.29-1.96-7.91-.26-1.28-.65-2.53-1-3.79l-.77-3.37c-1.15-3.05-1.89-6.4-2.79-9.54l-.71-3.15c-.55-1.59-1.47-5.52-1.93-7.31l-.03-1.26c-.6-1.48-.9-2.68-.19-4.12,1.69-.78,3.47-.37,5.37-.17-.8-3.03-1.28-6.09-1.83-9.18l-.03-2.62c-.35-1.93-.39-4.91-.49-6.94l.1-4.04s.54-6.46-.42-10.62l-.18-1.83c.24-2.16-.26-1.43,1.09-2.54,4.49,1.09,11.93,23.72,13.5,28.77.64,2.46.8,5.67,3.45,6.22,1.59-2.03.15-7.57.6-11.66,1.32-6.81,1.58-12.84,3.21-14.37,1.07,1.05,3.63,8.78,4.34,10.71l1.24,2.3c1.31,2.82,1.36,3.54,1.82,6.53l.38,4.01,1.17,4.23c0,1.16-.04,2.58.04,3.71.11,1.31.16,3.57.61,4.66.7,10.68,3.64,22.27,4.11,31.71-.82-1.41-1.26-3.05-1.79-4.59-2.06-10.59-3.15-19.97-4.34-30.64-4.53-1.67-5.51-2.02-8.91-5.54-1.3-.36-1.21-.34-2.5.08-.84,1.54-.43,2.64.05,4.26,2.32,7.85,17.79,78.02,19.15,78.63,1.05.47,2.25.37,3.38.38,1.46.12,2.67.28,4.08-.22.45-3.56-2.93-23.26-3.5-28.76-1.05-10.16-1.49-20.49-1.74-30.7,1.31-2.84,3.22-16.18,4.72-21.52,5.88.6,3.63,16.69,8.94,18.48v1.46c-.26.33-.65.58-.77.98-.52,1.62,2.26,20.82,2.53,24.62.21,4.54.71,8.99,1.73,13.42.55-5.16.99-10.33,1.48-15.5.9-9.99,1.28-20,2.35-29.98l.36-4.55c.62-7.49,3.6-15.13,5.61-22.52l1.51-5.4c.61-1.79,1.11-5.12,1.47-7.09l.74-5.18c.48-3.85,1.31-6.99,1.6-10.88l.75-3.55s.99,6.85,1.44,10.91v.31c.21,3.2.5,5.64.96,8.82l.46,3.75c.91,7.24,1.63,13.75,2.1,21.06,2.84.36,5.77.76,8.61,1.06-.51-6.39-.36-10.19,1.75-16.41l.02.71c.1,3.4-1.05,17.37.18,18.83,1.81-4.61,1.61-4.73,4.31-8.86,1.77-2.7,5.78-11.36,6.49-14.31l.95-1.86c1.03-2.05.99-2.4,2.73-3.82l.82.21c.83,1.48.59,2.56.52,4.27l.14.43c-.62,3.78-.45,8.71-.45,12.62l-.06,3.89c-.25,3.96-.08,13.14-.72,15.9l-.49,3.38c-.34,2.07-.75,4.16-.94,6.25-2.01,10.18-3.37,20.47-5.01,30.72-1.01,6.32-2.47,12.66-3.14,19.01,1.64,1.02,3.09,1.7,3.51,3.75,1.41,6.89-1.09,15.7-1.39,22.8-1.79,1.52-3.65,3-5.35,4.62l-1.61,15.89c-.55,2.65-.78,5.32-1.05,8.01l17.72-.14c5.18,6.03,9.79,12.59,14.67,18.87l23.29,29.51c12.05,15.42,24.66,30.34,36.3,46.1l3.9,5.33c2.64,7.13,4.53,24.66,1.33,31.68-.86,1.88-2.28,3.69-4.27,4.43-6.75,2.5-42.29.81-51.68.65v117.43s-1.33,0-1.33,0c-1-37.58.02-75.27-.21-112.86-.05-1.69.19-2.95-.72-4.4-10.05-1.25-25.01,0-35.79-.12l-.02,5.76-.05,111.63h-1.34c-.28-23.79-.04-47.61-.03-71.4l.02-2.22.03-43.7c-6.68.07-13.39.25-20.07-.02l.04,117.33h-1.2c-1.15-12.08-.02-24.96-.05-37.12-.05-25.09-.36-50.17-.14-75.26.06-1.66.28-3.25-.44-4.8-6.05-.9-13.59-.36-19.73.08-.76,1.33-.49,3.55-.49,5.09v74.54c.03,9.84,1.23,27.53-.76,36.43l-.19.07c-1.22-7.7-.58-16.17-.59-23.99l-.12-43.66c.16-16.24.1-32.51-.13-48.76-6.73,0-13.47.08-20.2-.05l.05,79.59.04,22.9c.01,4.35-.28,9.07.33,13.36l-1.62.96c-.98-12.95-.13-26.64-.1-39.66l.29-77.22-126.81.55c-17.15.04-34.32.38-51.47.21l-86.55-.02c-11.17.08-23.12-1.17-34.16.11l-6.8.19c-5.46-.06-10.92.05-16.38.15l-178.89-.13c-2.7-.07-5.43.03-8.13.05-10.54-.31-21.15-.13-31.7-.16-10.38-.03-20.82-.29-31.19.07l-2.8-.11c-3.12-.01-6.24.02-9.36.07-10.49-.15-21.11-.49-31.59-.13-3.7-.05-7.44,0-11.14-.18l.06,7.33v18.69s.41,49.89.41,49.89v5.18c.05,11.92.38,23.85.32,35.76h-1.37c.11-10.06-.31-20.14-.36-30.2l-.29-86.67-17.42-.03c-.4,38.97-.1,77.93-.03,116.9h-1.34l-.16-40.13c.52-8.59,0-17.56,0-26.19l.18-50.47c-7.5.13-15.01.1-22.51.12v7.05s.01,109.61.01,109.61h-1.41c-.2-15.73.05-31.49.02-47.22l-.02-4.2v-8.21s.01-4.36.01-4.36l-.1-10.66v-3.64s-.02-8.56-.02-8.56l.07-4.35v-9.42s0-5.1,0-5.1l.06-10.85h-21.16s-.04,25.77-.04,25.77l-.04,5.55c-.02,3.04-.09,6.1-.04,9.14l-.04,6.31.03,7.42-.02,3.41.04,11.1v4.64s-.1,7.23-.1,7.23l.05,2.98.04,33.05h-1.23l-.1-67.29c.03-11.24.71-22.74.08-33.96.63-5.06.35-10.38.37-15.49-11.88-.05-24.07-.65-35.91.05-.88,1.38-.6,3.55-.59,5.16.15,37.16.36,74.36-.2,111.52h-1.14l-.02-10.55.02-7.61v-5.4s0-7.98,0-7.98l.02-3.3-.02-8.11.02-2.51v-11.59s.11-2.93.11-2.93l-.09-9.97.09-3.83-.04-9.6.13-3.47c-.4-3.48-.18-7.25-.23-10.77l.06-3.6v-4.78s.06-4.53.06-4.53v-6.46s-13.9.18-13.9.18c-9.06-.18-18.13-.02-27.19.03-4.56.03-9.49.41-14.01-.24-1.84-.27-4.14-.83-5.53-2.17-2.96-2.86-1.66-28.92-1.32-34.4,3.16-4.96,7.74-9.46,11.63-13.86,8.43-9.53,17.06-18.84,25.59-28.27,15.2-16.82,29.35-34.62,45.57-50.48l-.09-30.34c0-4.91-.53-10.4.38-15.22.34-1.8,1.12-3.32,2.4-4.64,6.72-6.94,24.76-8.52,33.85-8.87-1.23-9.06-1.94-18.12-2.53-27.24l-.53-5.7c-.35-7.13-.87-14.24-1.44-21.36l-.2-2.73c-1.36-7.65-.96-18.19-2.31-25.04l.02-.87-.53-5.89-.2-4.36c-.47-5.28-.89-10.82-1.73-16.04l.07-2.14c-.75-2.76-2.26-23.88-2.6-27.95l-.02-2.64c-.63-4.05-.84-9.99-1.12-14.2,2.53-1.02,5.36-2.08,8-2.8,2.26-.61,1.91-.46,3.51.54,2.92-1.41,6.4-4.29,9.26-6.16,7.75-5.09,15.77-11.3,23.76-15.9l.85-.49c-4.4-14.54,3.67-24.02,18.69-22.18l1.82.84c2.41,1.14,2.85,1.44,4.92,3.14l2.1,2.57c.69,1.5,1.44,3.09,2.06,4.61,10.5-2.64,17.52-1.33,28.1.62l1.97.37c13.23,4.19,18.96,5.45,32.18,11.73l2.79,1.2c3.41,1.64,6.86,3.34,10.29,4.92,3.33,1.78,6.08,2.87,9.28,4.46-2.2,5.34-3.06,9.16-4.63,14.65l-1.77,4.8c-13.06,25.43-34.34,40.68-61.06,49.97-2.58,3.6-3.79,5.42-7,8.48l-5.23-6.6-1.33-1.85-4.1-6.18-1.68-2.84c-1.67-2.7-3.48-6.07-5.07-8.87l-.69-1.67c-.98-2.04-1.89-4.49-2.75-6.61l-1.26-3.85c-1.65-5.62-2.46-10.68-3.33-16.41l-.08-2.55-.1-6.49.18-2.23.64-6.61,1.49-10.2c-5.23.14-6.79.18-11.88-1.72-7.35,5.64-15.32,10.43-22.78,15.85-5.76,4.19-15.37,8.35-15.35,16.16l.33,3.32c-.05,2.87-.05,4.95.14,7.83l.21,2.46.76,9.69.27,2.52c.54,5.12,1.19,14.21,1.96,18.9l-.02,2.99.28,5.4.27,3.67c.19,3.17,1.33,13.15,1,15.23l.55,2.01c.04,2.78.12,5.22.3,8.01l.22,1.6c.3,7.32,1.01,14.68,1.78,21.97l.52,5.82c1.23,10.51,2.6,21.16,3.22,31.73,8.55,1.22,28.61,2.75,34.1,10.11.94,1.26,1.22,2.49,1.45,4.01-.16,1.48-.36,2.97-.46,4.46-.09,11.07-.02,22.17-.31,33.24l24.4-.18c6.14.01,12.34.22,18.47,0l8.54-.05c7.68.08,15.35.08,23.03-.03,16.62.23,33.26-.15,49.89.06-.67-2.5-1.06-4.65-1.17-7.24l.1-.35c.97-3.39,1.96-6.69,3.27-9.96.85-2.72,2.32-5.48,3.45-8.11,2.18-4.66,4.48-9.27,6.75-13.88,3.31-6.84,6.63-13.63,9.79-20.55l.06-3.17c-.11-5.11.04-10.22.12-15.33.3-8.57.41-17.16.54-25.73l.1-1.03c.31-6.28.15-14.22.26-20.67l.21-6.16c.79-12.48-.4-21.31,5.99-32.82,16.78-28.23,59.13-27.64,88-29.32,3.62-.21,19.31.72,20.38-1.49-1.09-1.27-12.64-7.98-15.32-10.01-16.9-12.85-32.14-30.72-40.75-50.06-12.41,1.47-23.91-1.85-34.42-8.38-2.45-1.98-3.7-3.27-5.88-5.51l-1.95-2.54c-4.85-7.41-6.51-13.3-7.1-22.02l.1-1.52c.21-3.91.8-5.78,1.65-8.52l1.03-2.02c4.49-7.13,6.44-10.14,14.68-12.46-1.95-3.65-3.83-8.67-5.42-12.59-1.06-2.31-2-5.52-2.82-7.98l-1.4-5.31c-4.1-15.21-4.71-29.41-2.38-44.92l.7-4.97.96-4.99.65-2.41c.17-1.06,1.15-4.37,1.47-5.59,9.66-27.26,16.29-38.37,40.7-53.48-10.33-2.77-17.35-4-27.88-4.18,12.51-5.33,28.41-6.38,40.33.95-3.14-17.42,5.04-41.95,17.66-54.1-5.31,11.6-7.53,26.9-10.09,39.62Zm27.23,67.62c-3.77-3.46-7.51-6.87-11.18-10.45-2.92,9.59-6.05,16.15-10.36,25.16-5.67,10.89-11.05,21.69-17.4,32.06-5.2,8.48-25.3,39.57-27.59,47.71,1.07,1.29.43.84,1.96,1.43.77-1.16.73-2.37.88-3.78.9,1.4-1.23.45.51,1.86l.14.8c5.99,42.24,19.08,79.98,53.82,106.83,19.24,14.87,47.59,27.07,71.89,23.63,27.73-3.91,61.27-19.81,77.84-42.59,24.99-34.35,31.78-87.76,26.41-128.71l-.97-5.26c-56.81,1.4-120.88-12.35-165.95-48.7Zm-2.81,266.93c-1.18-5.87-2.12-4.5-1.57-26.98-8,1.89-27.09,5.05-33.43,7.2-.66,1.19-1.4,2.61-2.1,3.76,4.03,20.45,1.95,53.96,1.92,75.4,0,6.52-1.1,13.66-.84,20.42,14.61,17.82,27.99,38.68,42.41,56.64,18.98,3.95,39.74,3.78,56.08,17.18,8.95-6.76,16.81-11.31,28.03-12.84,2.3-.31,10.18-1.29,11.95-2.04,18.15-7.71,32.18-10.92,52.05-11.58,3.36-2.98,4.59-3.88,8.94-5.63-1.81-27.52-3.14-52.99-5.65-80.62l-3.12-32.79c-.77-7.82-1.85-16.81-1.78-24.61-17.85-9.64-26.28-8.92-43.8-12.98,2.63,18.49-5.75,48.39-23.78,57.45,1.34-1.84,4.01-4.06,5.76-5.66-2.48-4.11-4.01-7.14-6.11-11.49-2.17.53-6.25.06-7.38,1.85l.69,1.57c1.47,3.83,2.76,6.77,4.51,10.48.54,1.66.67,2.77,2.06,3.76-4.31,4.18-14.65,6.69-20.47,7.31-16.27,1.75-33.62-3.38-46.15-14-5.75-4.87-17.34-14-18.23-21.8.95-2.45,1.41-4.43,2.04-6.96-.63-2.28.11-2.75-1.36-3.93l-.93,1.34.58,8.64-.34.91Zm160-9.65c-1.65-2.3-3.6-3.87-5.72-5.73.64,8.54,1.82,17.09,2.64,25.62l4,44.8c.84,8.99,1.21,20.44,2.76,29.09.23,1.29,7.36,12.94,8.74,15.45,2.78,5.27,5.38,11.3,9.2,15.89,9.37-1.95,26.82-7.16,35.6-3.52-3.27.6-6.58.02-9.79.71-14.4,1.08-27.44,5.07-41.2,9.1,14.59,9.51,19.58,29.58,14.8,45.71l32.6-8.92c17.69-4.75,46.87-8.58,33.68-34.06-7.34-14.17-16.05-27.21-24.37-40.8-13.27-21.66-27.06-43.04-41.28-64.09-5.79-8.55-14.8-21.82-21.67-29.26Zm193.97-10.6c.44,3.17,1.35,10.04,3.28,12.41.7.98,1.3,1.8,2.05,2.75-1.69,1.02-2.62-.17-4.23,1.12-1.02,4.5,1.01,17.21,2.21,21.88,3.74-.81,7.02-1.58,10.72-2.6-1.47-4.41-5.94-21.84-9.92-23.09,1.75-2.92-2.49-9.61-4.12-12.48Zm70.33,17.42c.95-.02,1.56-.02,2.5.05.38-1.63.1-3.23-.04-4.92-.6,1.07-.95,2.01-1.4,3.14l-.58.03c-.78-2.86,1.23-4.21.48-7.43l-.59-.15c-.88,3.01-.69,4.51-1.3,7.31-.7,3.29-1.75,4.65-2.01,8.3l.55.73,1.53-.12c2.94-.45,2.72-.02,4.1-1.85.25-1.48-.51-2.45-1.24-3.84-1-.29-1.26-.54-2.02-1.24Zm-48.17,7.05c-10.05.62.31,16.9,5.88,15.39,1.26-2.39-1.3-4.79-1.29-6.21l.97-.99c.04-3.71.43-4.93-1.57-7.86-1.74-1.03-1.46-.63-4-.32Zm-322.44,6.13c.46-2.65,2.28-8.94.31-10.67-2.95.7-6.49,7.04-6.81,9.95-.99,7.41-2.32,16.4-2.92,23.73,2.55.54,5.35,1.08,7.86,1.73.39-8.68.63-16.09,1.57-24.74Zm362.75,6.64c-.73,2.2-1.21,2.39-.76,4.27,1.54.89,2.68.96,4.42,1.28.85.38,3.76,1.19,4.8,1.51-.04-4.38,1.68-15.67-1.59-18.27-4.72-.01-5.53,7.16-6.88,11.21Zm-56.93,2.47l-.76.36c.23,2.58,2.49,9.96,3.28,12.8,5.14,21.07,9.26,42.94,15.82,63.6,2.82.8,5.63,1.61,8.43,2.47.88-.1.41.05,1.32-.67-.05-2.6-1.15-5.01-1.78-7.66l-4.7-20.09c-4.11-17.5-7.55-35.91-12.18-53.03-2.81.79-6.53,1.54-9.44,2.22Zm79.55.3c-2.39-.73-6.38-.97-8.98-1.22-.49,3.64-1.06,7.45-1.46,11.09-.71.2-1.3.13-1.66.83-1.7,3.3-2.25,12.23-2.85,16.35-2.22,17.57-3.65,35.28-6.34,52.78,2.69-.16,5.65-.1,8.25-.77l1.97-.32c1.54-2,5.73-48.48,7.66-53.85.6-1.66,3.42-22.55,3.41-24.88Zm-17.16,7.99c-2.8-.38-4.2-1-6.79-1.97-.53,7.71-.98,15.5-1.61,23.2-1.44,17.42-3.57,33.49-3.74,51.06l5.48-.2c.31-.31.76-.53.94-.93.25-.54,8.78-66.6,8.82-69.14-.85-1.2-1.78-1.41-3.1-2.03Zm31.98,3.35l.32-2.64c-.99-1.19-2.21-1.4-3.74-1.52-3.53-.28-6.97-.19-10.51-.62-.5,3.57-1.52,7.78-1.4,11.34-4.2,19.89-5.71,40.59-8.47,60.72l4.54-.8c2.62-.54,5.23-1.05,7.77-1.9l.78-.28c.95-1.14,9.7-57.22,10.71-64.3Zm-50.93,7.89l-2.85.76-1.67.06c-1.53.15-3.27.08-4.53,1.03-1.23,7.46,3.52,49.17,5.74,58.18,1.53.97,3.66.81,5.44.9.81-.07,1.62-.22,2.42-.33,1.98-3.12-.08-26.33-.98-30.66-.04-4.9-1.38-27.02-3.57-29.93Zm-462.77,27.46c2.18-3.44,4.13-4.3,7.88-5.72,6.24,5.11,10.28,10.99,14.74,17.65-.12-11.45.81-22.91,1.01-34.36.2-11.02-.33-22.09-.62-33.11-.22-8.49-.08-16.96-1.52-25.36-5.27,2.43-10.08,4.89-13.98,9.34-8.21,9.38-14.55,21.76-20.65,32.59-8.48,15.07-16.92,30.13-24.68,45.59-4,7.96-7.58,16.12-11.46,24.14-5.35,11.09-11.32,21.91-15.52,33.52-.49,1.35-.91,2.73-1.28,4.12-.52,2.67-1.24,5.46.41,7.89,3.23,4.75,56.62,22.71,66.02,26.11-1.71-2.8-3.15-5.42-3.96-8.64.37-6.29,1.8-12.58,4.08-18.44,3.55-9.14,8.69-15.72,17.8-19.74-13.72-2.89-25.29-7.42-39.67-7.84-2.71-.08-5.57-.15-8.25.22-3.81.52-9.66,3.1-13.25,2.42.33-.48.34-.54.87-.97,7.14-5.74,30.15-2.84,38.84-1.22.57-2.21,1.36-4.37,2.08-6.53,3.93-8.21,5.8-17.27,9.75-25.4-3.91-4.9-7.92-9.84-8.65-16.28Zm11.8.69c-1.32-1.79-2.3-3.31-4.67-3.63-1.16-.16-2.37-.1-3.28.71-1.15,1.02-1.55,2.39-1.6,3.88-.09,2.61,1.55,4.9,2.8,7.08,1.86-1.64,3.62-3.41,5.88-4.48-1.49,1.86-3.31,3.54-4.96,5.27,3.03,4.65,6.29,9.18,9.43,13.76,3.33-1.52,6.03-4.05,8.77-6.42-3.77-5.58-7.99-11.07-12.38-16.17Zm12.79,17.78c-1.42.71-7.14,4.73-7.96,5.85.04,2.63,3.01,5.02,4.51,7.12,1.9-.96,3.82-1.87,5.59-3.07,1.29-.82,2.47-1.53,3.5-2.68.08-1.43-.45-1.76-1.28-2.89-1.21-1.62-2.4-3.74-4.35-4.32Zm-239.16,10.97c-3.85-.77-7.72-1.28-11.62-1.78.13,1.83-.09,5.67,1.09,7.03l.28.12c8.98,1.26,18.65.65,26.35,6.14l.13.83c-9.76,7.64-34.57,7.68-46.62,6.97-5.6-.33-17.63-.95-21.57-5.41-.18-1.14-.28-1.4.52-2.37,4.23-5.14,24.13-5.77,30.32-6.19l-.88-7.03c-8.54.28-26.28,2.08-32.82,8.16-1.78,1.65-1.89,4.43-2.11,6.71-.5,5.17-.23,10.56-.23,15.75,0,10.33.1,20.64.36,30.97.36,14.64.09,29.3-.04,43.94,1.86,1.06,3.81,1.9,5.81,2.66,21.59,8.2,51.43,6.7,72.36-2.79.56-5.42.19-11,.16-16.45v-25.76c.07-16.33,1.32-32.93.68-49.23-.07-1.73-.07-3.52-1.18-4.92-3.79-4.78-15.26-6.82-20.98-7.34Zm713.12,46.85c1.09-7.39,1.42-14.94,2.88-22.26-18,7.39-52.29,7-70.44-.11.78,5.58,2.6,24.21,4.05,28.22,1.58,15.78,3.95,31.63,5.96,47.37,5.17,3.3,11.83,4.85,17.85,5.6,7.74.97,24.71.98,30.97-4.03,1.05-.84,1.38-1.67,1.76-2.95,1.69-5.71,1.95-12.49,2.69-18.43l4.27-33.4Zm-171.97,3.59c-6.31.02-12.63.43-18.94.4-3.46,2.6-6.71,4.86-10.68,6.58-8.17,3.53-17.53,5.41-26.13,7.77-9.61,2.62-19.3,5.67-29.02,7.77-5.49,1.19-10.36.55-15.65,3,1.16,2.23,2.29,4.43,3.71,6.51,4.05,6.71,29.34,46.15,29.81,50.72-.65,1.19-.76,1.79-2.19,2.15-4.33,1.06-30.09-.75-35.71-1l-44.54-1.55c-12.02-.49-24.05-1.39-36.09-1.44-.63,1.51-1.21,3.07-1.93,4.53-6.56.65-34.32,1.38-39.52-.43-.75-1.13-.94-2.22-1.2-3.53-1.91-1.38-83.47,1.35-92.11,1.53-6.12.13-13.31,1.13-19.32.1-1.4-.24-1.72-.47-2.45-1.65,1.48-4.95,5.24-10.05,7.58-14.71,5.55-11.08,10.79-22.34,15.83-33.66l2.56-5.99c-13.31-2.88-26.23-8.54-39-13.21-11.27-4.12-22.82-7.65-33.71-12.73-1.5-.83-2.85-1.45-4.58-1.61-15.92-1.44-32.71-.24-48.72-.15l-75.92.07.02,33.76c.01,7.06.29,14.23-.4,21.26-10.38,5.8-25.03,8.08-36.8,8.45-8.98.28-37.39-1.4-43.58-8.25-2.18-2.41-1.19-10.75-1.14-13.98.11-11.08.18-22.15.09-33.23-16.42,15.09-30.21,33.29-45.06,49.91-8.55,9.57-17.26,18.97-25.75,28.6-4.09,4.64-8.57,9.22-12.03,14.35,11.32.33,22.7-.04,34.03-.13l50.98-.15,203.39.2,663.74.71c-12.76-20.68-32.18-41.84-47.34-61.19-6.38-8.14-12.93-16.17-19.22-24.39-4.13-5.4-8.12-11.83-12.92-16.6-5.68.82-11.43.68-17.15.71-1.14,13.42-3.08,26.84-4.67,40.22-.47,3.2-.52,8.95-2.5,11.47-3.07,3.91-9.86,4.99-14.53,5.57-11.85,1.47-28.33,1.29-38.19-6.35-1.09-5.62-1.59-11.33-2.18-17.01-1.48-11.17-2.74-22.36-4.08-33.54-20.07-.36-40.22.14-60.3.18-15.48.03-31.02-.53-46.49-.03Zm-317.15,22.11c-2.41-1.32-4.3-2.39-5.07-5.21-2.21-8.1,3.74-20.33,7.88-27.1,3.99-6.54,8.26-9.22,15.21-12.05-2.3-.66-4.51-1.14-6.88-1.48-8.16,3.14-13.98,9.06-17.49,17.02-2.94,6.7-6.4,17.17-3.77,24.33,1.07,2.9,3.08,5.25,5.93,6.48.66.29,1.34.5,2.04.69,1.22.35,2.26.73,3.54.48.91-.17.65-.17,1.24-1-.71-1.28-1.38-1.46-2.64-2.16Zm150.1,6.65c-2.21-.19-4.61-.1-6.55-1.29-.42-.68-.83-.94-.66-1.79.5-2.49,3.73-4.75,5.57-6.38-2.87-.6-6.32-1-8.39-3.27-.92-4.83,5.94-5.9,1.57-11.29,0-1.93.75-3.03,2.1-4.38,1.95-1.94,4.41-3.49,6.65-5.08-14.53.11-25,4.44-36.48,13.11-1.54,13.18-1.03,26.91-1.13,40.16-.07,8.28-.73,16.78-.18,25.03l.5.53c2.22-1.06,3.39-3.75,5.24-5.36,1.75-1.53,4.21-2.74,6.31-3.76,22.37-10.81,55.85-10.26,79.31-2.98-.71.57-2.22.28-3.12.19-7.34-.77-14.55-2.8-21.93-3.54-16.45-1.63-45.44.32-59.03,11.02-1.34,1.06-2.5,2.14-3.55,3.49l-.07.87c2.65.5,5.33-2.54,8-3.21,6.5-1.61,13.68-1.87,20.36-2.22,32.82-1.76,67.18-.31,99.5,5.65-7.69-13.58-15.94-27.43-24.51-40.46-1.43-2.14-2.57-4.45-3.77-6.73-13.75,5.55-32.19,6.14-46.61,3.35-2.25-.43-4.05-2.78-6-3.21-2.83-.62-9.89,1.2-13.1,1.53Zm-81.59,2.64l-1.83.23c-2.66,3.43-.69,4.84-6.34,5.68-17.98,1.62-39.25-6.63-55.81-13.24-1.26,2.77-2.45,5.56-3.67,8.35-5.97,13.77-13.07,27.07-19.26,40.75,34.97-4.04,90.85-14.45,122.9,2.13-8.86-8.02-17.6-10.11-28.98-12.41,5.45-.13,10.69.26,15.84,2.15,4.6,1.69,14.89,9.98,18.54,9.27,1.7-3,1.6-57.28,1.84-65.41-13.79-13.79-36.02-13.27-53.95-16.56,2.68,3.41,4.07,5.45,4.67,9.92,6.89,4.11,14.39,9.01,19.74,15.05,1.57,1.77,2.74,3.41,2.57,5.85-.43.85-.72,1.4-1.56,1.93-2.01,1.27-4.43.45-6.59.01-2.04.87-.68,3.4-2.34,5-1.49,1.44-3.88,1.29-5.79,1.3Zm57.9,40.47c-2.84.65-5.58,1.34-8.14,2.8,4.25-.63,8.59-.99,12.81-1.7,11.32-.04,22.56.52,33.86.87,10.24.32,20.51.38,30.75.88,11.45.56,22.93,1.63,34.36,2.58,4.06.34,8.36,1.31,12.39,1.29,1.29,0,2.44-.27,3.67-.61l.25-1c-10.68-6.44-77.35-7.97-93.11-7.5-8.82.26-18.1,1.16-26.84,2.4Zm-34.16.3c-25.69-7.91-65.55-3.52-92.27-.03-6.15.8-12.71,1.1-18.71,2.65l-.8.75.13.94c2.73,1.27,96.52-4.79,112.34-2.84,2.58.89,5.53.56,8.22.52-3.04-.52-5.95-1.14-8.91-2Zm34.38,2.85l-1,.18c1.25,1.56,3.15,2.52,4.7,3.78,39.09.88,78.19,2.97,117.27,4.23.79-.83.56-.38.83-1.28-4.37-3.22-40.05-4.43-47.64-4.87-24.6-1.42-49.54-2.72-74.17-2.04Zm-35.71,1.24l-.56-1.09c-8.43-1.36-20.64,0-29.43.32-23.34.83-46.73,2.4-70.07,2.54-1.96-.06-4,.15-5.96.27-2.55.16-5.94.06-7.72,2.07l.22.99c1.58.98,20.67.08,24.03.02,17.85-.32,35.69-1.16,53.55-1.39,5.68-.07,29.11.3,33.41-.7,1.64-.38,1.83-1.66,2.52-3.03ZM396.54,9.77c-7.74,11.08-13.3,28.71-10.93,42.27.29,1.67.69,3.15,1.33,4.71l.95.5c.95-1.42,4.26-26.53,5.28-31.39.87-4.12,3.89-12.24,3.38-16.1Zm72.63,2.31c-25.98,1.64-57.94,10.74-77.08,29.51-2.09,5.87-2.3,12.98-2.98,19.18-4.91-.5-9.69-1.92-14.46-3.16-21.99,11.33-34.01,29.04-41.42,52.14-9.04,28.16-7.39,60.36,6.36,86.75.48.92.98,1.84,1.48,2.75l5.69.83c-3.74-16.18-4.62-32.21-2.51-48.69.31-2.46.42-6.14,1.53-8.35.09-.17.21-.33.31-.49l.67-.07c.56,4.12-1.52,9.96-1.88,14.27-.67,8.18-.45,38.65,4.9,43.83l.91.06c2.73-3.16,4.46-8.1,6.66-11.75,4.65-7.72,9.92-15.38,13.67-23.58,4.89-10.7,7.38-23.83,9.92-35.34,1.44-6.53,1.53-15.09,4.78-20.94l.36.29c-.24,4.18-1.32,8.18-2.1,12.28-2.77,14.56-6.4,27.87-11.17,41.9,9.26-12.27,30.61-53.14,34.15-67.7-1.1-1.46-2.29-2.91-3.25-4.48,8.34,7.17,16.16,14.92,25.03,21.45,30.34,22.33,69.48,34.62,106.59,39.06,21.1,2.58,43.09,3.98,64.28,1.63-29.66-4.12-65.35-14.28-88.03-34.51-2.38-2.12-6.94-5.78-8.35-8.56-.15-.3-.24-.62-.35-.94,1.5.58,2.36,1.75,3.46,2.87,5.45,5.59,11.22,10.34,17.81,14.54,20.12,12.82,42.08,18.2,65,23.48,4.96,1.14,14.7,4.39,19.42,2.47l.16-.65c-4-3.65-9.84-6-14.52-8.72-10.62-6.18-20.68-17.18-27.33-27.36,1.49.22,7.67,8.27,9.29,10.09,5.31,5.97,12.08,11.63,18.68,16.12,3.71,2.52,11.68,5.42,14.19,8.61.7.88.6,1.16.52,2.23-3.07,3.09-18.02,2.74-22.93,3.25,3.55,18.69,2.95,37.64,1.94,56.54,4.32-7.57,8.53-10.52,16.8-12.91,14.31-37.46,14.05-82.87-2.42-119.6-13.03-29.06-39.27-47.57-68.33-58.53-20.3-7.66-43.74-10.74-65.42-9.81Zm-109.87,38.51c-2.96.37-5.92.73-8.87,1.22,10.21,2.18,20.5,4.32,30.76,6.2l5.8,1.56c-3.56-5.18-8.21-7.58-14.34-8.69-4.3-.78-9.03-.79-13.36-.29Zm-20.21,150.36c-5.67,1.7-9.98,5.35-12.83,10.55-3.88,7.09-3.74,15.4-1.36,22.93,3,9.51,9.14,17.18,18.07,21.73,8.3,4.22,18.28,5.89,27.53,5.24-1.95-4.83-4.09-12.68-6.89-16.7l-4.88-.37c-3.26-.93-6.25-1.75-8.11-4.86-1-1.67-1.33-3.56-.85-5.45.66-2.59,2.47-4.68,4.78-5.94.15-.08.31-.16.46-.24.2-.11.4-.22.61-.33.12-.07.25-.13.37-.19-2.93-2.97-7.82-9.18-12.2-9.27-2.91-.06-5.79,4.42-7.35,4.08.48-2.06,2.91-4.01,4.75-4.95,1.54-.79,3.68-.43,5.23.21,5.16,2.13,9.2,7.77,13.23,11.48-1.96-7.84-2.45-16.24-4.62-23.89-5.09-2.63-10.06-4.62-15.94-4.02Zm264.61,1.46c-5.97,1.71-10.08,4.42-13.15,10-3.71,6.74-4.55,14.83-6.28,22.22-1.54,6.61-3.36,13.17-5.18,19.7,5.89.03,11.87.08,17.67-1.04,8.21-2.01,15.91-4.8,20.45-12.55,4.12-7.05,4.88-16.99,2.56-24.75-1.5-5.03-4.65-9.9-9.47-12.29-2-.99-4.38-1.39-6.59-1.29Zm-247.84,26.44c-2.08,1.17-3.83,2.47-4.54,4.87-.48,1.61-.15,3.18.7,4.59,1.7,2.81,4.23,3.58,7.23,4.47,1.27.24,2.84.87,4.02.33-.62-3.45-1.66-11.21-4.43-13.62-.67-.58-2.11-.59-2.97-.63Zm-192.88,36.13c-4.21,1.77-7.99,3.99-9.85,8.42-1.51,3.56-1.18,7.47.41,10.94,1.04,2.27,2.88,4.14,4.54,5.97,2.9,1.02,7.3,2.68,10.22,1.03.17-.09.31-.23.47-.34,3.49-5.03,8.03-7.7,12.36-11.76-1.31-5.07-2.95-9.7-7.8-12.46-3.09-1.76-6.86-2.15-10.34-1.79Zm24.64,10.55c-1.83.27-2.85.18-4.3,1.38-2.89,8.15-7.17,6.71-11.03,12.95-2.12,3.43-2.62,7.7-3.24,11.6-2.54,16.01-.82,31.34,6.19,46.05,4.55,9.54,10.39,18.28,16.79,26.66,7.58-10.05,14.3-20.62,22.4-30.32,10.42-12.24,22.17-25.15,34.71-35.24,4.33-3.49,9.3-6.1,13.61-9.54-19.52-11.61-52.4-26.09-75.14-23.55Zm-34.78,11.86c-11.84,7.77-24.06,15.25-34.95,24.33.58,1.38,1.05,2.75,1.97,3.93l.66-.42c11.66-8.58,24.27-15.67,35.71-24.62-1.07-1.02-2.22-2.36-3.39-3.23Zm109.85,14.43c-22.2,12.03-47.05,41.58-61.62,62.51l.02.97c22.92-8.01,45.74-24.01,56.45-46.38,2.29-4.79,5.21-11.76,5.15-17.11Zm-148.33,8.14l-5.8,1.5.26,6.03c.06,1.43.31,2.11,1.02,3.3,1.56.82,2.65.36,4.35.04,1.62-.84,3.22-1.65,3.8-3.53.51-1.67.41-3.78-.66-5.23-.88-1.2-1.51-1.93-2.97-2.11Zm-5.08,13.42l10.01,123.22c1.13,13.93,3.24,27.8,4.05,41.76l6.43-.13c-.67-18.93-2.88-37.82-4.6-56.67-1.92-20.99-3.43-42.02-5.09-63.04-1.16-14.77-3.05-29.97-2.82-44.77l-7.98-.37Zm320.68-.13c-6.76,5.27-12.54,16.14-13.7,24.62-1.13,8.26,2.87,17.9,8,24.27,5.67,7.04,13.84,11.45,22.83,12.32,3.04.29,5.5.12,8.48-.59,7.29-2.76,8.21-7.07,13.74-11.13-12.32-4.75-21.82-12.51-27.3-24.76-3.05-6.83-3.71-13.53-3.22-20.91-3.19-1.06-5.97-2.03-8.84-3.82Zm-25.3,2.35c-24.57,1.23-61.48,1.54-79.15,21.12-4.4,4.88-7.52,10.93-9,17.32-2.9,12.48-1.85,31.39-2.18,44.57-.38,15.37-1.52,30.99-1.13,46.35,2.27-5.48,4.78-10.7,7.72-15.86,6.55-12.9,13.86-25.27,21.08-37.8,6.35-11.02,13.27-25.45,22.14-34.54,3.67-3.76,7.82-5.89,12.62-7.84,1.35-2.02,2.64-4.2,4.24-6.03,11.08-3.04,22.56-4.4,33.6-7.45,3.03-7.01,6.33-13.54,10.44-19.99-6.75.01-13.65-.26-20.38.15Zm104.11,1.13c.29,13.16-4.53,24.38-13.63,33.9-5.46,5.72-11.99,9.49-19.15,12.7,5.62,4.91,8.54,9.24,16.39,10.83,9.07-.17,16.42-2.91,22.77-9.43,6.08-6.24,9.38-14.85,9.2-23.56-.15-7.02-3.16-16.53-8.28-21.47-2.11-2.03-4.42-2.8-7.31-2.96Zm-68.65,1.04c-.53,12.06,3.57,22.76,11.71,31.66,5.07,5.54,12.05,11.01,19.77,11.51,1.22.08,1.79.41,2.72,1.16,7.08-1.06,17.56-10.46,22.33-15.86,6.96-8.87,10.15-17,10.29-28.35-25.12,7.82-41.63,9.42-66.83-.12Zm401.78,21.95c-.77,2.95-2.33,8.69-.75,11.38.97-2.62,1.55-8.69.75-11.38Zm-50.42,16.55c-.34,1.66-1.16,4.14-.29,5.65.65,1.14,1.8,2.09,2.74,2.99.6.58.36.33.97,1.05-.88-2.81-1.7-7.41-3.42-9.69Zm-371.96,2.91l-2.04,6.07c1.17,2.32,3.01,6.57,5.45,7.56.63-2.33,1.29-4.66,1.79-7.03-1.6-2.03-3.33-4.94-5.21-6.6Zm452.03.08c-1,2.43-2.85,5.7-2.85,8.27l.52,1.02,1.55-.39c1.38-2.3.95-6.27.79-8.9Zm-349.97.5c-1.43,2.06-3.96,4.88-3.68,7.53.1.97.56,1.82.99,2.67,1.71-1.9,2.82-6.01,2.87-8.59.01-.82-.04-.92-.18-1.62Zm-48.2,3.91c-2.48,11.83-2.52,23.63-3.03,35.63l7.43.06.86-.51c1.32-5.43.76-12.62.97-18.29-1.48-2.85-5.76-16.48-6.24-16.9Zm2.65,1.89c2.32,16.04,12.54,18.36,15.6,30.57,2.04-.12,3.98-1.13,5.85-1.9l.9-1c-.96-5.76-4.74-11.49-6.64-17.11-10.87-2.14-10.04-8.1-15.71-10.56Zm39.74,1.23c-1.36,1.15-2.7,2.38-4.22,3.32.98,2.58,1.84,5.57,3.18,7.96l3.71-5.59c-.59-1.54-1.43-4.7-2.67-5.69Zm-90.01.27c-.65,2.14-2.38,6.08-1.3,8.21.44.87,1.63,1.87,2.48,2.37l2.47-7.56c-1.18-.98-2.39-2.15-3.65-3.02Zm441.18,1.54c-2.81,5.27-6.22,10.65-8.5,16.15l7.02,1.5,5.43,1.92c.23-5.67.93-12.1.18-17.72-.89-.69-1.68-.83-2.73-1.14-.79-.23-.53-.17-1.41-.72Zm-24.15,1.02c-.06,3.41-1.01,16.55.49,18.63l.53-.47c.9-5.5,1.55-12.09-.21-17.47l-.82-.69Zm-412.01,1.15c-1.23,2.64-2.02,5.21-2.77,8.01,1.49,1.57,2.91,3.36,4.81,4.44h.5s3.28-9,3.28-9c-2.4-.93-4-1.6-5.81-3.46Zm78.26.53c-2.15,1.05-4.29,2.2-6.51,3.08,2.01,3.62,4.31,7.27,5.72,11.16,2.2-1.73,3.68-3.93,5.08-6.33-.92-2.31-1.95-6.12-3.68-7.84l-.61-.08Zm-47.66,1.18c-2.17,1.07-4.33,2.17-6.54,3.15-.65,3.68-3.95,17.08-2.82,19.37l1.11.5c1.95.49,3.92.95,5.84,1.53.52-3.97,3.52-22.26,2.4-24.55Zm-23.31,2c-1.17,3.57-2.39,7.13-3.63,10.68,2.25,1.53,4.69,3.52,7.15,4.62,1.48-4.52,2.74-9.04,3.93-13.64-2.46-.54-5.04-.97-7.45-1.66Zm9.04,1.78c-1.14,4.96-2.74,9.76-4.32,14.59,2.09,1.01,4.17,2.08,6.28,3.04,2.27-2.31,3.51-13.7,4.04-17.45-1.99-.05-4.02-.02-6-.18Zm32.94,5.35c.42,5.73.77,11.51.4,17.25l8.21-1.3.95-.51c.44-2.99-4.3-8.78-6.04-11.14-1.1-1.49-2.12-3.1-3.53-4.31Zm287.5,1.19c1.16,10.14,4.83,19.99,7.39,29.85,4.04,15.53,7.44,31.24,12.12,46.61l5.34.87-12.97-53.33c-1.74-6.92-3.03-14.91-5.68-21.48-.3-.75-.67-1.16-1.3-1.64-1.66-.55-3.15-.73-4.89-.87Zm46.85,1.46c-1.21,4.38-2.46,9.31-2.43,13.86.8.76,1.53.62,2.58.61.53,0,1.07-.05,1.6-.08l1.35-.16c1.07-2.8-2.2-11.11-3.09-14.23Zm43.78,2.05l-.8,2.1c.84,1.18,1.82,1.58,3.26,1.79,2.61.37,5.89.2,8.52-.11l.32-.57c-3.33-1.87-7.68-1.89-11.29-3.21Zm-26.76,1.67c2.97,1.81,6.38,3.22,9.92,2.86-2.65-2-6.6-3.21-9.92-2.86Zm-20.29,12.01l-.29,1.67c.74.78.85.84,1.9.91,1.73.11,3.73-.38,5.44-.66l.61-.79-.42-.84c-2.31-.71-4.85-.38-7.25-.28Zm-444.57,48.72c-4.09,9.65-8.66,20.31-11.28,30.44l6.01,1.62,7.99,2.28c-.03-7.22,2.52-29.43-2.32-34.03-.12-.12-.27-.21-.4-.31Zm213.01,2.56c.44,11.23.82,22.55,1.75,33.75,3.67-1.36,7.28-2.66,11.08-3.6,1.47-.44,2.65-.49,3.63-1.7-2.38-4.04-13.96-27.01-16.46-28.44Zm-208.28,5.33l-.72,26.7c7.73,1.61,14.99,4.29,22.95,4.39-1.95-3.36-20.22-29.67-22.23-31.09Zm16.76.66c-3.06,2.09-6.1,4.2-9.19,6.25,5.47,8.48,23.69,35.18,30.89,40.32,3.09,2.2,7.61,3.46,11.15,4.83l6.09,2.96c-.57-1.72-1.23-3.27-2.2-4.82-3.7-5.9-34.44-48.23-36.75-49.53Zm392.7-.07l.06,22.72c20.03,9.21,53.11,11.7,74.08,3.95,2.85-1.05,5.52-2.45,8.1-4.06.53-6.76.64-13.89,1.78-20.55-17.77,8.94-59.37,7.83-78.01,1.57-2.03-.68-3.44-1.48-5.07-2.84-.2-.16-.4-.32-.59-.49-.12-.1-.23-.2-.35-.3Zm-661.69,9.89c-10.18.73-20.6,1.28-29.95,5.74,2.34,1.04,4.63,2.11,7.1,2.82,8.51,1.99,16.96,2.29,25.67,2.3-.12-3.37,0-6.92-.9-10.19-.92-.85-.77-.65-1.91-.66Zm12.21.2c.47,3.46.85,6.88,1.07,10.37,6.52-.23,13.37-1.71,19.59-3.63l4.51-1.95c-7.77-3.93-16.66-4.05-25.18-4.79Zm447.78,20.09c-2.25,1.28-4.43,2.52-6.49,4.11,6.07.82,10.38,2.64,14.26,7.68,6.73,8.74,5.96,21.09,4.29,31.4-.08.51-.12.63-.24,1.07,1.58-.06,3.19.08,4.35-1.16,3.21-3.42,2.63-10.8,2.14-15.17-.98-8.84-4.53-19.57-11.68-25.36-2.08-1.68-3.97-2.47-6.64-2.56Zm-193.42,2.15c-8.26,2.38-13.01,6.63-17.13,14.1-3.12,5.64-7.96,15.94-6.27,22.48.58,2.26,1.89,3.64,3.89,4.77,11.48,6.49,48.45,18.33,61.38,14.83.97-.26,1.63-.63,2.39-1.29.1-.61.33-.94-.09-1.48-.59-.75-20.88-9.96-25.04-13.13l.65.2c12.06,3.91,21.02,13.42,34.59,9.29.28-1.81.29-3-.86-4.52-5.01-6.64-27.92-15.05-36.14-19.89.22.04.44.08.66.13,9.99,2.06,21.15,8.32,29.96,13.41,3.35,1.93,7.35,4.96,11,6.13,1.14.37,2.12.28,3.16-.3.79-.44.77-.84,1.1-1.62-.39-3.5-5.83-7.75-8.49-9.88-5.73-4.6-11.97-8.57-18.65-11.63-4.55-2.08-10.4-3.71-14.31-6.82-4.95-3.94-7.94-10.4-12.24-15.04-3.21-.04-6.35-.04-9.54.24Zm180.88,3.57c-17.36,1.05-44.65,5.57-56.6,19.69-.59.69-.95,1.36-1.31,2.18l.24.96c1.88.72,3.53.08,5.27-.68,11.71-5.08,22.17-11.23,35.08-13.19-.18.09-.36.18-.54.27-7.88,3.77-38.26,12.9-40.55,21-.31,1.09-.16,2.11.55,3.01,1.32,1.66,5.11,1.72,7.01,1.94,10.73-5.86,21.99-12.57,34.23-14.46-4.89,2.98-10.57,4.54-15.78,6.9-8.51,4.19-17.96,9.05-24.41,16.14,4.86.54,9.16.72,13.98-.23,9.35-1.83,25.28-11.31,33.37-10.42-3.02,3.14-25.04,7.37-25.25,11.18,5.21,4.28,24.64,3.42,31.29,2.78,6.08-.59,20.84-3.33,24.7-8.39,3.74-4.89,3.58-14.06,2.49-19.91-1.15-6.13-4.51-12.57-9.84-16.05-4.13-2.7-9.13-2.93-13.92-2.72Zm-107.92,94.18c-.58,1.79-1.72,4.52-.93,6.37.25.58.26.45.9.6,4.66,1.11,29.49.19,35.94.13.56-1.29.91-2.18.35-3.61-.63-1.6-2.15-2.3-3.7-2.72-6.4-1.75-24.91-1.01-32.57-.77ZM1.65,622.22c-.04,5.62-1.51,26.82,1.64,30.51,1.94,2.27,10.37,1.45,13.35,1.42l736.55-.71,132.46.03c19.24.06,38.68.98,57.9.4,2.47-.08,4.29-.3,6.5-1.49,3.76-3.8,3.75-9.39,3.71-14.48-.04-4.99-.41-10.19-1.49-15.07l-658.75-.52-197.91.03-60.32.04c-11.18.01-22.48.4-33.63-.16Z"/>
    <path class="uuid-141d92a7-258f-44ef-9456-5b050306fb95" d="m386.94,56.76c-.63-1.57-1.04-3.05-1.33-4.71-2.37-13.56,3.19-31.19,10.93-42.27.51,3.86-2.51,11.98-3.38,16.1-1.03,4.86-4.33,29.96-5.28,31.39l-.95-.5Z"/>
    <path class="uuid-141d92a7-258f-44ef-9456-5b050306fb95" d="m392.09,41.59c19.14-18.77,51.11-27.87,77.08-29.51,21.68-.93,45.12,2.15,65.42,9.81,29.06,10.96,55.3,29.46,68.33,58.53,16.47,36.73,16.72,82.14,2.42,119.6-8.27,2.39-12.49,5.34-16.8,12.91,1.01-18.89,1.61-37.84-1.94-56.54,4.92-.51,19.86-.16,22.93-3.25.08-1.07.18-1.34-.52-2.23-2.51-3.19-10.48-6.09-14.19-8.61-6.6-4.48-13.37-10.14-18.68-16.12-1.62-1.82-7.8-9.88-9.29-10.09,6.65,10.18,16.71,21.18,27.33,27.36,4.68,2.72,10.52,5.07,14.52,8.72l-.16.65c-4.72,1.92-14.46-1.33-19.42-2.47-22.92-5.29-44.88-10.67-65-23.48-6.59-4.2-12.36-8.95-17.81-14.54-1.1-1.13-1.96-2.29-3.46-2.87.12.31.2.64.35.94,1.41,2.77,5.97,6.43,8.35,8.56,22.68,20.23,58.37,30.39,88.03,34.51-21.18,2.35-43.17.95-64.28-1.63-37.11-4.44-76.26-16.73-106.59-39.06-8.87-6.53-16.7-14.28-25.03-21.45.96,1.56,2.15,3.01,3.25,4.48-3.54,14.57-24.89,55.43-34.15,67.7,4.77-14.03,8.4-27.34,11.17-41.9.78-4.1,1.86-8.1,2.1-12.28l-.36-.29c-3.25,5.85-3.34,14.41-4.78,20.94-2.54,11.51-5.03,24.64-9.92,35.34-3.75,8.2-9.02,15.85-13.67,23.58-2.2,3.66-3.93,8.6-6.66,11.75l-.91-.06c-5.35-5.18-5.57-35.65-4.9-43.83.36-4.32,2.44-10.15,1.88-14.27l-.67.07c-.1.16-.22.32-.31.49-1.11,2.21-1.21,5.89-1.53,8.35-2.11,16.47-1.22,32.51,2.51,48.69l-5.69-.83c-.5-.91-1-1.83-1.48-2.75-13.75-26.39-15.39-58.6-6.36-86.75,7.41-23.1,19.44-40.81,41.42-52.14,4.77,1.23,9.55,2.65,14.46,3.16.68-6.2.89-13.31,2.98-19.18Zm192.63,40.24c1.14,4.1,4.36,8.12,6.45,11.85,6.15,11,10.43,22.08,12.14,34.58.33,2.43.6,11.61,2.27,12.6,1.25-16.67-5.7-35.03-13.82-49.26-1.62-2.84-3.89-6.95-6.26-9.15-.24-.23-.51-.42-.77-.62Zm-139.66,9.38c13.25,25.64,48.43,43.44,75.15,51.96,6.73,2.15,16.98,5.93,23.89,5.11-.14-.06-.27-.12-.41-.18-6.19-2.6-13.7-3.43-20.2-5.33-18.62-5.44-37.35-14.09-52.83-25.83-5.03-3.82-9.89-8.15-14.23-12.75-3.02-3.2-7.92-10.95-11.38-12.97Z"/>
    <path class="uuid-141d92a7-258f-44ef-9456-5b050306fb95" d="m350.43,51.81c2.95-.49,5.91-.85,8.87-1.22,4.33-.5,9.05-.49,13.36.29,6.13,1.11,10.78,3.5,14.34,8.69l-5.8-1.56c-10.26-1.88-20.55-4.02-30.76-6.2Z"/>
    <path class="uuid-d1758fa4-877f-424d-a03e-5c757d25797a" d="m605.58,140.87c-1.67-.99-1.93-10.17-2.27-12.6-1.71-12.5-5.99-23.57-12.14-34.58-2.09-3.74-5.31-7.75-6.45-11.85.26.21.53.4.77.62,2.38,2.2,4.64,6.31,6.26,9.15,8.13,14.22,15.07,32.59,13.82,49.26Z"/>
    <path class="uuid-d1758fa4-877f-424d-a03e-5c757d25797a" d="m544.1,148.28c-6.91.83-17.16-2.96-23.89-5.11-26.72-8.52-61.9-26.32-75.15-51.96,3.46,2.03,8.36,9.77,11.38,12.97,4.34,4.6,9.2,8.93,14.23,12.75,15.47,11.75,34.21,20.39,52.83,25.83,6.5,1.9,14.01,2.73,20.2,5.33.14.06.27.12.41.18Z"/>
    <path class="uuid-468ce4e7-d8da-41f7-8113-fda4a1fd6796" d="m407.95,96.79c3.67,3.58,7.41,6.99,11.18,10.45-1.52,1.69-1.24.78-1.42,2.63,1.15,2.58,7.69,6.55,10.22,8.36,17.11,12.21,32.18,20,51.44,27.86,35.71,14.58,68.91,14.36,106.69,15.11,5.37,40.95-1.42,94.36-26.41,128.71-16.57,22.77-50.11,38.67-77.84,42.59-24.31,3.43-52.65-8.76-71.89-23.63-34.75-26.85-47.83-64.58-53.82-106.83l.34-2.09c12.74-10.55,23.69-30.95,31.59-45.58,3.65-6.76,6.1-17.21,9.35-24.48,1.31-2.94,2.04-5.12.23-7.93,4.3-9.01,7.44-15.57,10.36-25.16Zm7.66,77.18c-4.09,1.08-7.3,2.62-9.58,6.34-.83,1.35-1.75,3.11-1.59,4.72,2.56-.04,6.05-4.3,8.39-5.7,4.39-1.95,7.15-2.49,11.96-2.48.75,0,2.3.29,2.76-.31-4.19-2.33-7.11-2.85-11.93-2.56Zm114.24.04c-1.84.4-3.61.65-5.22,1.7l.33.45c6.03.57,11.84.54,17.09,4l.45.35c.93.71,1.61,1.44,2.84,1.42.36-.66.62-.76.38-1.55-.69-2.3-3.34-4.12-5.44-5.04-3.24-1.42-6.96-1.6-10.45-1.33Zm-106.69,31.7c-2.81,3.78-3.11,7.52-2.33,12.14.49,2.89,1.54,5.33,3.81,7.2l1.73.43c2.76-2.47,3.43-4.21,3.68-7.91.22-3.41-.2-7.47-2.51-10.18-1.15-1.36-2.25-1.57-3.92-1.66-.15,0-.31-.01-.47-.02Zm45.88,26.69c-3.18.99-5.96,2.61-7.54,5.67-1.21,2.36-1.27,5.14-.36,7.61,1.34,3.64,4.47,6.27,7.98,7.74,1.41.59,2.72,1.1,4.27,1.14-1.14-1.76-3.47-2.52-5.32-3.36-2.51-2.15-5.74-4.73-5.89-8.32-.09-2.19.98-5.26,2.51-6.85,1.19-1.23,2.77-1.67,4.43-1.59,2.49.12,4.96,1.42,7.17,2.48l.44-.72c-.61-1.56-1.51-2.13-3.03-2.79-1.58-.68-2.96-.96-4.66-1.01Zm62.38,3.13c-4.68.72-9.56,2.27-12.55,6.21-1.81,2.39-2.6,5.37-2.1,8.34.58,3.44,2.88,6.3,5.73,8.19,5.63,3.74,12.09,3.99,18.56,3.3,6.11-1.87,10.61-4.14,13.64-10.12.55-1.09.98-2.23,1.38-3.38-2.46-5.26-5.67-8.81-11.25-10.89-4.22-1.58-8.94-1.98-13.41-1.66Zm-127.7.44c-4.93,1.29-8.9,3.3-11.59,7.86-1.49,2.52-2.11,5.27-2.59,8.13,1.53,4.99,3.72,9.02,8.55,11.55,3.97,2.08,8.45,2.43,12.85,2.09,4.66-1.21,8.85-3.27,11.35-7.58,1.91-3.3,2.31-7.35,1.16-10.98-1.31-4.11-4.44-7.38-8.26-9.28-3.72-1.85-7.42-2.01-11.47-1.79Zm107.25,27.2c-7.02,9.88-18.12,15.45-29.92,17.43-8.94,1.5-19.73.69-27.35-4.67-2.44-1.71-4.12-3.7-5.69-6.2-.37-.59-.76-1.16-1.14-1.75l-.49.29.1,1.9c4.01,6.51,9.83,10.09,17.19,11.79,12.74,2.95,26.89-.46,37.78-7.43,2.84-1.82,9.56-6.56,10.49-9.86.05-.17.05-.35.07-.52-.34-.37-.61-.72-1.04-.98Z"/>
    <path class="uuid-d0a8b198-eb68-4d99-8009-014bca829686" d="m419.13,107.24c45.07,36.35,109.14,50.1,165.95,48.7l.97,5.26c-37.77-.75-70.98-.53-106.69-15.11-19.26-7.86-34.33-15.65-51.44-27.86-2.54-1.81-9.07-5.77-10.22-8.36.18-1.85-.1-.94,1.42-2.63Z"/>
    <path class="uuid-d0a8b198-eb68-4d99-8009-014bca829686" d="m356.09,202.03l-.14-.8c-1.74-1.41.39-.46-.51-1.86-.15,1.41-.11,2.63-.88,3.78-1.53-.6-.89-.15-1.96-1.43,2.29-8.14,22.39-39.22,27.59-47.71,6.36-10.37,11.73-21.18,17.4-32.06,1.8,2.81,1.08,4.99-.23,7.93-3.25,7.27-5.7,17.72-9.35,24.48-7.9,14.64-18.85,35.03-31.59,45.58l-.34,2.09Z"/>
    <path class="uuid-d1758fa4-877f-424d-a03e-5c757d25797a" d="m412.82,179.33c-2.34,1.41-5.83,5.66-8.39,5.7-.16-1.62.76-3.38,1.59-4.72,2.29-3.72,5.49-5.26,9.58-6.34,4.82-.29,7.74.24,11.93,2.56-.45.6-2.01.31-2.76.31-4.81-.01-7.57.53-11.96,2.48Zm3.82-3.8c-4.11,1.08-7.17,2.75-9.79,6.17l.4.41c2.91-2.79,5.78-4.49,9.5-6.02l.09-.48-.2-.09Z"/>
    <path class="uuid-d1758fa4-877f-424d-a03e-5c757d25797a" d="m542.05,180.17c-5.25-3.46-11.06-3.43-17.09-4l-.33-.45c1.6-1.05,3.37-1.3,5.22-1.7,3.48-.27,7.21-.1,10.45,1.33,2.09.92,4.74,2.74,5.44,5.04.24.79-.02.89-.38,1.55-1.23.02-1.92-.71-2.84-1.42l-.45-.35Zm-9.36-4.67c3.86,1.05,7.59,2.94,11.37,3.9-2.82-2.78-6.3-3.92-10.23-3.92-.38,0-.76.01-1.13.02Z"/>
    <path class="uuid-5bddc2f5-2be3-41cd-9054-5ae4a9ac44b0" d="m407.26,182.11l-.4-.41c2.62-3.43,5.68-5.09,9.79-6.17l.2.09-.09.48c-3.71,1.53-6.59,3.24-9.5,6.02Z"/>
    <path class="uuid-1399fe44-691b-45ae-9586-db23460e1bcc" d="m544.06,179.39c-3.78-.96-7.51-2.85-11.37-3.9.38,0,.76-.02,1.13-.02,3.93,0,7.41,1.14,10.23,3.92Z"/>
    <path class="uuid-468ce4e7-d8da-41f7-8113-fda4a1fd6796" d="m370.5,261.4c-9.25.65-19.23-1.01-27.53-5.24-8.93-4.55-15.07-12.22-18.07-21.73-2.38-7.53-2.51-15.84,1.36-22.93,2.85-5.2,7.15-8.85,12.83-10.55,5.89-.6,10.85,1.39,15.94,4.02,2.17,7.66,2.66,16.06,4.62,23.89-4.04-3.71-8.07-9.35-13.23-11.48-1.55-.64-3.68-1-5.23-.21-1.84.94-4.27,2.9-4.75,4.95,1.56.34,4.44-4.14,7.35-4.08,4.38.09,9.27,6.3,12.2,9.27-.12.06-.25.12-.37.19-.2.11-.4.22-.61.33-.15.08-.31.16-.46.24-2.31,1.26-4.12,3.35-4.78,5.94-.48,1.89-.15,3.78.85,5.45,1.86,3.11,4.85,3.93,8.11,4.86l4.88.37c2.79,4.02,4.94,11.87,6.89,16.7Z"/>
    <path class="uuid-468ce4e7-d8da-41f7-8113-fda4a1fd6796" d="m579.08,254.33c1.83-6.53,3.64-13.1,5.18-19.7,1.73-7.39,2.58-15.48,6.28-22.22,3.07-5.58,7.18-8.29,13.15-10,2.22-.11,4.6.3,6.59,1.29,4.82,2.38,7.97,7.26,9.47,12.29,2.32,7.76,1.56,17.7-2.56,24.75-4.54,7.75-12.24,10.55-20.45,12.55-5.8,1.12-11.79,1.07-17.67,1.04Zm16.96-26.16c-4.16-9.78,4.36-17.55,13.35-8.28l.54-.1c-3.06-10.64-22.85-4.91-14.62,9.18l1.87,2.03c.82,1.35.93,1.27.8,2.81l-.87.72c-6.1.37-6.93-8.67-8.73-10.5-3,7.19,8.99,17.56,11.92,10.52-.2-1.99-1.33-2.81-2.72-4.33l-1.55-2.04Z"/>
    <path class="uuid-d1758fa4-877f-424d-a03e-5c757d25797a" d="m426.37,225.48l-1.73-.43c-2.27-1.87-3.32-4.31-3.81-7.2-.78-4.62-.49-8.36,2.33-12.14.16,0,.31,0,.47.02,1.67.09,2.77.3,3.92,1.66,2.31,2.71,2.73,6.77,2.51,10.18-.24,3.7-.92,5.44-3.68,7.91Z"/>
    <path class="uuid-ee76b89a-7182-4445-a819-8e8381194fab" d="m425.08,214.36c-.37.87-1.63.93-2.01.06,0,0,0-.01,0-.02-.85-1.95-.45-3.77.3-5.56.3-.71,1.22-.89,1.78-.37.31.29.54.62.85,1.17.09.16.15.35.15.53.03,1.44-.49,2.83-1.06,4.18Z"/>
    <path class="uuid-d1758fa4-877f-424d-a03e-5c757d25797a" d="m532.12,210.56c1.57,4.19,1.77,11.61-3.6,14.07-5.73-.21-6.71-15.57-1.33-18.75,2.17-.1,1.15-.31,3.09.85.49,1.02,1.45,2.85,1.84,3.83Z"/>
    <path class="uuid-ee76b89a-7182-4445-a819-8e8381194fab" d="m529.13,209.25c.12.54.23,1.11.34,1.74.06.32.04.68-.05,1.01-.68,2.61-.07,1.72-1.95,3.28l-.63-.31c-.41-.2-.71-.64-.83-1.17-.45-1.97-.28-3.29.27-4.69.62-1.61,2.5-1.5,2.85.14Z"/>
    <path class="uuid-d1758fa4-877f-424d-a03e-5c757d25797a" d="m595.32,228.97c-8.23-14.09,11.55-19.82,14.62-9.18l-.54.1c-8.99-9.27-17.51-1.5-13.35,8.28l-.73.8Z"/>
    <path class="uuid-d1758fa4-877f-424d-a03e-5c757d25797a" d="m597.19,231l.4-.79c1.4,1.52,2.52,2.34,2.72,4.33-2.94,7.04-14.93-3.33-11.92-10.52,1.8,1.83,2.64,10.86,8.73,10.5l.87-.72c.13-1.53.02-1.46-.8-2.81Z"/>
    <path class="uuid-7860cb6e-b7c4-4a96-9854-a51bf8a92c44" d="m596.05,228.17l1.55,2.04-.4.79-1.87-2.03.73-.8Z"/>
    <path class="uuid-468ce4e7-d8da-41f7-8113-fda4a1fd6796" d="m359.25,242.78c-3-.89-5.53-1.66-7.23-4.47-.85-1.4-1.18-2.97-.7-4.59.71-2.39,2.47-3.7,4.54-4.87.87.04,2.3.05,2.97.63,2.77,2.41,3.81,10.17,4.43,13.62-1.18.54-2.75-.09-4.02-.33Z"/>
    <path class="uuid-d1758fa4-877f-424d-a03e-5c757d25797a" d="m468.06,251.2c1.85.84,4.18,1.59,5.32,3.36-1.55-.04-2.85-.55-4.27-1.14-3.51-1.46-6.63-4.1-7.98-7.74-.91-2.47-.85-5.25.36-7.61,1.58-3.07,4.35-4.69,7.54-5.67,1.71.05,3.09.32,4.66,1.01,1.53.66,2.42,1.23,3.03,2.79l-.44.72c-2.21-1.07-4.68-2.37-7.17-2.48-1.66-.08-3.24.36-4.43,1.59-1.54,1.59-2.61,4.66-2.51,6.85.15,3.59,3.38,6.17,5.89,8.32Z"/>
    <path class="uuid-747d578c-4a0f-4399-9c7a-427a462fbf1c" d="m541.05,261.59c-6.47.68-12.93.44-18.56-3.3-2.85-1.9-5.15-4.75-5.73-8.19-.5-2.97.29-5.95,2.1-8.34,2.99-3.94,7.86-5.49,12.55-6.21,4.47-.32,9.19.08,13.41,1.66,5.58,2.08,8.79,5.63,11.25,10.89-.4,1.15-.82,2.29-1.38,3.38-3.04,5.98-7.53,8.25-13.64,10.12Z"/>
    <path class="uuid-747d578c-4a0f-4399-9c7a-427a462fbf1c" d="m389.54,251.96c.48-2.86,1.1-5.61,2.59-8.13,2.69-4.55,6.66-6.57,11.59-7.86,4.05-.23,7.75-.06,11.47,1.79,3.82,1.9,6.96,5.17,8.26,9.28,1.15,3.63.75,7.67-1.16,10.98-2.5,4.32-6.69,6.38-11.35,7.58-4.4.34-8.88,0-12.85-2.09-4.83-2.53-7.02-6.56-8.55-11.55Z"/>
    <path class="uuid-d1758fa4-877f-424d-a03e-5c757d25797a" d="m446.48,270.18l-.1-1.9.49-.29c.38.58.77,1.16,1.14,1.75,1.57,2.5,3.25,4.48,5.69,6.2,7.62,5.36,18.41,6.17,27.35,4.67,11.8-1.98,22.9-7.55,29.92-17.43.43.27.7.61,1.04.98-.02.17-.02.35-.07.52-.92,3.3-7.65,8.04-10.49,9.86-10.89,6.97-25.03,10.38-37.78,7.43-7.35-1.71-13.18-5.28-17.19-11.79Z"/>
    <path class="uuid-57b2b6bd-0e87-4bbd-9355-d475b587861a" d="m158.08,290.31c-1.66-1.83-3.5-3.7-4.54-5.97-1.59-3.48-1.92-7.38-.41-10.94,1.87-4.42,5.65-6.65,9.85-8.42,3.49-.35,7.25.04,10.34,1.79,4.85,2.76,6.48,7.39,7.8,12.46-4.33,4.06-8.87,6.73-12.36,11.76-.15.11-.3.25-.47.34-2.91,1.65-7.32,0-10.22-1.03Z"/>
    <path class="uuid-268fcddf-0577-4bea-a5f5-2d22d97d6851" d="m192.04,374.18c-6.4-8.39-12.24-17.12-16.79-26.66-7.02-14.72-8.73-30.05-6.19-46.05.62-3.91,1.12-8.18,3.24-11.6,3.86-6.24,8.14-4.8,11.03-12.95,1.45-1.2,2.47-1.11,4.3-1.38,22.73-2.53,55.62,11.94,75.14,23.55-4.31,3.43-9.28,6.05-13.61,9.54-12.54,10.09-24.29,23-34.71,35.24-8.1,9.69-14.82,20.27-22.4,30.32Z"/>
    <path class="uuid-ee76b89a-7182-4445-a819-8e8381194fab" d="m117.9,311.73c10.89-9.08,23.1-16.56,34.95-24.33,1.18.87,2.33,2.21,3.39,3.23-11.44,8.94-24.05,16.04-35.71,24.62l-.66.42c-.93-1.18-1.39-2.56-1.97-3.93Z"/>
    <path class="uuid-3ad363a5-0a3d-4bc2-af1a-f456eab974c6" d="m201.09,365.31l-.02-.97c14.57-20.94,39.43-50.48,61.62-62.51.06,5.35-2.86,12.32-5.15,17.11-10.71,22.37-33.53,38.36-56.45,46.38Z"/>
    <path class="uuid-ee76b89a-7182-4445-a819-8e8381194fab" d="m108.56,311.47l5.8-1.5c1.46.18,2.08.91,2.97,2.11,1.07,1.44,1.17,3.55.66,5.23-.58,1.89-2.18,2.69-3.8,3.53-1.7.32-2.79.77-4.35-.04-.72-1.19-.97-1.87-1.02-3.3l-.26-6.03Z"/>
    <path class="uuid-9b8ddf99-a5c7-4bed-8e21-0785ae9fbe9c" d="m123.35,488.37c-.81-13.95-2.92-27.82-4.05-41.76l-10.01-123.22,7.98.37c-.23,14.8,1.66,30,2.82,44.77,1.66,21.01,3.17,42.04,5.09,63.04,1.72,18.85,3.93,37.74,4.6,56.67l-6.43.13Z"/>
    <path class="uuid-ee76b89a-7182-4445-a819-8e8381194fab" d="m455.57,383.88c-2.97.71-5.43.88-8.48.59-8.99-.87-17.16-5.27-22.83-12.32-5.13-6.37-9.13-16.01-8-24.27,1.16-8.48,6.94-19.35,13.7-24.62,2.87,1.79,5.64,2.76,8.84,3.82-.49,7.39.17,14.08,3.22,20.91,5.47,12.26,14.98,20.01,27.3,24.76-5.53,4.06-6.45,8.36-13.74,11.13Z"/>
    <path class="uuid-ac5816e7-568b-464a-95f1-753bd8c98d25" d="m514.35,326.46c-1.26-.3-.86-.11-1.85-.85l1.16-.41c1.12.03,2.82.13,3.89.1l3.06,1.02-6.25.15Z"/>
    <path class="uuid-5d977832-e01c-4d94-a72f-07843a103bd5" d="m313.2,454.96c-.39-15.36.75-30.97,1.13-46.35.33-13.18-.73-32.09,2.18-44.57,1.49-6.39,4.6-12.44,9-17.32,17.67-19.58,54.58-19.89,79.15-21.12,6.73-.42,13.63-.14,20.38-.15-4.12,6.45-7.42,12.98-10.44,19.99-11.03,3.05-22.52,4.4-33.6,7.45-1.6,1.83-2.89,4.01-4.24,6.03-4.8,1.95-8.96,4.08-12.62,7.84-8.87,9.09-15.8,23.53-22.14,34.54-7.22,12.53-14.52,24.9-21.08,37.8-2.94,5.16-5.44,10.38-7.72,15.86Z"/>
    <path class="uuid-5d977832-e01c-4d94-a72f-07843a103bd5" d="m514.35,326.46l6.25-.15c30.11.15,90.07-.52,111.19,21.57,20.97,21.93,18.73,54.72,18.55,81.8l-.11,43.03c-19.48-32.67-41.26-66.11-63.15-97.25-3.54-5.04-11.55-15.07-16.36-18.47-11.5-8.15-31.87-11.52-45.56-13.7-2.22-6.81-4.39-13.48-10.81-16.82Z"/>
    <path class="uuid-ee76b89a-7182-4445-a819-8e8381194fab" d="m476,373.33c7.16-3.21,13.68-6.98,19.15-12.7,9.1-9.52,13.91-20.74,13.63-33.9,2.89.15,5.21.92,7.31,2.96,5.12,4.94,8.13,14.45,8.28,21.47.18,8.7-3.12,17.32-9.2,23.56-6.35,6.52-13.7,9.26-22.77,9.43-7.85-1.59-10.77-5.92-16.39-10.83Z"/>
    <path class="uuid-468ce4e7-d8da-41f7-8113-fda4a1fd6796" d="m496.67,356.25c-4.77,5.4-15.26,14.8-22.33,15.86-.94-.76-1.5-1.08-2.72-1.16-7.72-.49-14.7-5.97-19.77-11.51-8.14-8.9-12.24-19.6-11.71-31.66,25.2,9.55,41.71,7.94,66.83.12-.14,11.35-3.33,19.48-10.29,28.35Z"/>
    <path class="uuid-b6228fde-ae0d-4f7a-9cbd-89ad9730a902" d="m414.75,347.19c-.47,5.72.44,12.15.63,18.16.22,2.99.48,5.85.94,8.82.89,7.81,12.48,16.93,18.23,21.8,12.52,10.61,29.88,15.74,46.15,14,5.82-.62,16.16-3.13,20.47-7.31l.46-.51c18.03-9.06,26.41-38.96,23.78-57.45,17.52,4.07,25.95,3.34,43.8,12.98-.07,7.8,1.02,16.79,1.78,24.61l3.12,32.79c2.51,27.64,3.84,53.1,5.65,80.62-4.35,1.75-5.58,2.65-8.94,5.63-19.87.65-33.9,3.86-52.05,11.58-1.77.75-9.65,1.73-11.95,2.04-11.23,1.52-19.08,6.07-28.03,12.84-16.33-13.4-37.1-13.23-56.08-17.18-14.43-17.96-27.8-38.82-42.41-56.64-.26-6.76.83-13.9.84-20.42.03-21.44,2.11-54.95-1.92-75.4.69-1.15,1.43-2.57,2.1-3.76,6.34-2.15,25.44-5.32,33.43-7.2Z"/>
    <path class="uuid-bd87c777-c2f8-4027-9621-5ad5c5cd7112" d="m841.17,361.1c-1.58-2.7-.31-10.29.46-13.24,1.24,2.9.5,10.63-.46,13.24Z"/>
    <path class="uuid-ee76b89a-7182-4445-a819-8e8381194fab" d="m773.57,366.33c-1.93-2.38-2.84-9.24-3.28-12.41,1.63,2.86,5.87,9.55,4.12,12.48l-.84-.06Z"/>
    <path class="uuid-b6228fde-ae0d-4f7a-9cbd-89ad9730a902" d="m576.32,364.52c-2.38,4.19,6.59,58.86,7.64,67.54.99,8.17,7.15,34.91,4.79,41.7-1.38-2.51-8.51-14.16-8.74-15.45-1.55-8.65-1.92-20.1-2.76-29.09l-4-44.8c-.82-8.53-2-17.08-2.64-25.62,2.11,1.86,4.06,3.43,5.72,5.73Z"/>
    <path class="uuid-b6228fde-ae0d-4f7a-9cbd-89ad9730a902" d="m356.5,440.6c-.34.97-.68,1.84-1.11,2.77-2.01,4.37-1.43,33.89,0,38.91-.72,2.16-1.51,4.32-2.08,6.53-8.69-1.63-31.7-4.53-38.84,1.22-.53.42-.54.49-.87.97,3.59.68,9.44-1.9,13.25-2.42,2.68-.37,5.55-.3,8.25-.22,14.38.42,25.96,4.95,39.67,7.84-9.1,4.02-14.24,10.6-17.8,19.74-2.28,5.87-3.71,12.16-4.08,18.44-8.49-2.96-16.77-6.86-25.29-9.91-9.75-3.49-20.21-6.13-29.61-10.4-2.45-1.12-5.95-2.88-7.57-5.05.38-1.39.79-2.77,1.28-4.12,4.2-11.61,10.17-22.43,15.52-33.52,3.87-8.02,7.46-16.18,11.46-24.14,7.76-15.46,16.2-30.52,24.68-45.59,6.1-10.84,12.44-23.22,20.65-32.59,3.89-4.45,8.71-6.91,13.98-9.34,1.44,8.41,1.3,16.87,1.52,25.36.28,11.02.81,22.09.62,33.11-.2,11.45-1.13,22.91-1.01,34.36-4.47-6.67-8.51-12.54-14.74-17.65-3.75,1.42-5.69,2.28-7.88,5.72Z"/>
    <path class="uuid-f3b3642f-b5b1-47bb-9a52-cbe47161a201" d="m840.62,371.34c-1.05,2.13-.61,4.45-.85,6.93l-1.53.12-.55-.73c.26-3.65,1.3-5.01,2.01-8.3.6-2.8.41-4.3,1.3-7.31l.59.15c.75,3.22-1.26,4.57-.48,7.43l.58-.03c.45-1.13.8-2.08,1.4-3.14.14,1.69.42,3.29.04,4.92-.94-.07-1.55-.07-2.5-.05Z"/>
    <path class="uuid-b6228fde-ae0d-4f7a-9cbd-89ad9730a902" d="m415.85,364.89l.17-.36.98-1.24h0c1.47,1.18.96,1.56,1.36,3.93-.63,2.53-.68,3.24-1.63,5.69-.46-2.97-.65-5.01-.88-8.01Z"/>
    <path class="uuid-b6228fde-ae0d-4f7a-9cbd-89ad9730a902" d="m588.75,473.76c2.35-6.79-3.8-33.53-4.79-41.7-1.05-8.68-10.02-63.35-7.64-67.54,6.87,7.45,15.88,20.72,21.67,29.26,14.22,21.05,28.01,42.43,41.28,64.09,8.33,13.59,17.04,26.63,24.37,40.8,13.19,25.48-15.99,29.3-33.68,34.06l-32.6,8.92c4.78-16.13-.21-36.21-14.8-45.71,13.76-4.03,26.8-8.01,41.2-9.1,3.45.2,9.08,1.1,11.95-1.05l-.57-.31-1.59.65c-8.78-3.63-26.24,1.57-35.6,3.52-3.82-4.59-6.43-10.63-9.2-15.89Z"/>
    <path class="uuid-e6abb306-5598-4a1f-8557-9662bb554572" d="m773.57,366.33l.84.06c3.98,1.24,8.45,18.67,9.92,23.09-3.69,1.02-6.97,1.79-10.72,2.6-1.2-4.67-3.23-17.38-2.21-21.88,1.6-1.29,2.54-.1,4.23-1.12-.75-.95-1.35-1.77-2.05-2.75Z"/>
    <path class="uuid-9b8ddf99-a5c7-4bed-8e21-0785ae9fbe9c" d="m794.91,375.96c-.62-.72-.37-.47-.97-1.05-.94-.9-2.09-1.85-2.74-2.99-.87-1.52-.05-4,.29-5.65,1.72,2.28,2.54,6.88,3.42,9.69Z"/>
    <path class="uuid-b6228fde-ae0d-4f7a-9cbd-89ad9730a902" d="m417.49,375.25l2.04-6.07c1.87,1.66,3.61,4.58,5.21,6.6-.51,2.36-1.16,4.69-1.79,7.03-2.44-.99-4.28-5.24-5.45-7.56Z"/>
    <path class="uuid-268fcddf-0577-4bea-a5f5-2d22d97d6851" d="m869.22,378.55l-.52-1.02c0-2.57,1.86-5.85,2.85-8.27.17,2.63.59,6.6-.79,8.9l-1.55.39Z"/>
    <path class="uuid-b6228fde-ae0d-4f7a-9cbd-89ad9730a902" d="m518.9,379.97c-.43-.86-.89-1.71-.99-2.67-.28-2.65,2.25-5.47,3.68-7.53.14.7.19.8.18,1.62-.05,2.58-1.15,6.68-2.87,8.59Z"/>
    <path class="uuid-b6228fde-ae0d-4f7a-9cbd-89ad9730a902" d="m463.5,383.8c.32-2.91,3.86-9.25,6.81-9.95,1.97,1.73.15,8.02-.31,10.67-3.15.18-3.84,1.39-6.51-.72Z"/>
    <path class="uuid-b6228fde-ae0d-4f7a-9cbd-89ad9730a902" d="m470.37,409.31c.5-12.01.55-23.8,3.03-35.63.49.41,4.77,14.05,6.24,16.9-.21,5.67.34,12.86-.97,18.29l-.86.51-7.43-.06Z"/>
    <path class="uuid-b6228fde-ae0d-4f7a-9cbd-89ad9730a902" d="m497.5,404.23c-1.87.77-3.81,1.78-5.85,1.9-3.05-12.21-13.27-14.53-15.6-30.57,5.68,2.46,4.85,8.42,15.71,10.56,1.9,5.61,5.67,11.34,6.64,17.11l-.9,1Z"/>
    <path class="uuid-b6228fde-ae0d-4f7a-9cbd-89ad9730a902" d="m511.56,380.11c1.52-.94,2.86-2.17,4.22-3.32,1.24.98,2.08,4.15,2.67,5.69l-3.71,5.59c-1.34-2.39-2.2-5.38-3.18-7.96Z"/>
    <path class="uuid-b6228fde-ae0d-4f7a-9cbd-89ad9730a902" d="m426.95,387.64c-.84-.5-2.03-1.5-2.48-2.37-1.09-2.13.64-6.07,1.3-8.21,1.26.87,2.47,2.03,3.65,3.02l-2.47,7.56Z"/>
    <path class="uuid-d6f7af2f-4b2a-4271-be2d-0802630dd858" d="m792.45,378.38c2.54-.31,2.26-.7,4,.32,2,2.93,1.6,4.15,1.57,7.86l-.97.99c-3.8-3.4-.13-4.26-4.59-9.17Z"/>
    <path class="uuid-e6abb306-5598-4a1f-8557-9662bb554572" d="m797.04,387.56c0,1.42,2.55,3.82,1.29,6.21-5.57,1.51-15.93-14.76-5.88-15.39,4.47,4.92.8,5.78,4.59,9.17Z"/>
    <path class="uuid-d6f7af2f-4b2a-4271-be2d-0802630dd858" d="m858.46,394.76c2.28-5.51,5.69-10.88,8.5-16.15.88.55.62.48,1.41.72,1.05.31,1.84.44,2.73,1.14.75,5.62.04,12.05-.18,17.72l-5.43-1.92-7.02-1.5Z"/>
    <path class="uuid-e6abb306-5598-4a1f-8557-9662bb554572" d="m832.75,391.15c1.35-4.06,2.16-11.23,6.88-11.21,3.27,2.6,1.55,13.89,1.59,18.27-1.04-.32-3.95-1.13-4.8-1.51l.41-.25c.06-.96-3.24-4.33-4.08-5.29Z"/>
    <path class="uuid-9b338ec8-5685-4c31-ab01-d320848c062c" d="m843.83,397.78l-.53.47c-1.5-2.08-.55-15.21-.49-18.63l.82.69c1.76,5.39,1.1,11.97.21,17.47Z"/>
    <path class="uuid-b6228fde-ae0d-4f7a-9cbd-89ad9730a902" d="m428.03,388.78c.76-2.8,1.55-5.37,2.77-8.01,1.81,1.86,3.41,2.53,5.81,3.46l-3.28,8.99h-.5c-1.89-1.07-3.32-2.86-4.81-4.43Z"/>
    <path class="uuid-b6228fde-ae0d-4f7a-9cbd-89ad9730a902" d="m502.55,384.38c2.22-.89,4.36-2.03,6.51-3.08l.61.08c1.73,1.71,2.76,5.52,3.68,7.84-1.4,2.4-2.88,4.6-5.08,6.33-1.42-3.89-3.72-7.54-5.72-11.16Z"/>
    <path class="uuid-b6228fde-ae0d-4f7a-9cbd-89ad9730a902" d="m454.86,385.63c2.21-.98,4.37-2.08,6.54-3.15,1.11,2.29-1.88,20.58-2.4,24.55-1.92-.58-3.89-1.04-5.84-1.53l-1.11-.5c-1.13-2.28,2.17-15.69,2.82-19.37Z"/>
    <path class="uuid-b6228fde-ae0d-4f7a-9cbd-89ad9730a902" d="m463.5,383.8c2.66,2.1,3.36.9,6.51.72-.94,8.65-1.18,16.06-1.57,24.74-2.51-.65-5.3-1.19-7.86-1.73.6-7.33,1.93-16.31,2.92-23.73Z"/>
    <path class="uuid-b6228fde-ae0d-4f7a-9cbd-89ad9730a902" d="m434.47,395.16c1.23-3.55,2.45-7.11,3.63-10.68,2.41.69,5,1.12,7.45,1.66-1.19,4.6-2.46,9.12-3.93,13.64-2.46-1.1-4.9-3.1-7.15-4.62Z"/>
    <path class="uuid-b6228fde-ae0d-4f7a-9cbd-89ad9730a902" d="m494.59,388.42l-.69-1.57c1.14-1.79,5.22-1.32,7.38-1.85,2.09,4.35,3.62,7.38,6.11,11.49-1.75,1.59-4.42,3.82-5.76,5.66l-.46.51c-1.39-.99-1.52-2.1-2.06-3.76.38-2.86-2.04-9.14-4.51-10.48Z"/>
    <path class="uuid-b6228fde-ae0d-4f7a-9cbd-89ad9730a902" d="m442.81,400.85c1.59-4.83,3.18-9.63,4.32-14.59,1.98.17,4.01.13,6,.18-.53,3.75-1.77,15.13-4.04,17.45-2.11-.96-4.19-2.03-6.28-3.04Z"/>
    <path class="uuid-b6228fde-ae0d-4f7a-9cbd-89ad9730a902" d="m494.59,388.42c2.47,1.34,4.88,7.62,4.51,10.48-1.75-3.71-3.04-6.66-4.51-10.48Z"/>
    <path class="uuid-d0a8b198-eb68-4d99-8009-014bca829686" d="m789.8,390.14l-.69.79c1.23,1.29,2.39,2.44,3.69,3.68,2.22,9.24,3.37,18.36,5.93,27.56,1.66,8.15,3.54,16.04,6.14,23.95,2.21,8.93,3.68,18.27,5,27.37-1.13,0-2.33.1-3.38-.38-1.36-.62-16.83-70.79-19.15-78.63-.48-1.62-.88-2.72-.05-4.26,1.29-.42,1.19-.43,2.5-.08Z"/>
    <path class="uuid-7d231039-0075-450f-a0e8-e7778a88bb73" d="m792.8,394.61c-1.29-1.24-2.45-2.38-3.69-3.68l.69-.79c3.4,3.52,4.38,3.87,8.91,5.54,1.19,10.67,2.28,20.05,4.34,30.64-.52.19-.16.1-1.12.04-1.09-1.38-2.15-2.78-3.2-4.2-2.56-9.2-3.71-18.32-5.93-27.56Z"/>
    <path class="uuid-63d2d7c0-78f3-478d-8110-10f01e7fee48" d="m775.83,393.62c2.92-.68,6.63-1.43,9.44-2.22,4.62,17.12,8.07,35.53,12.18,53.03l4.7,20.09c.63,2.65,1.73,5.07,1.78,7.66-.91.72-.45.57-1.32.67-6.87-21.96-11.86-42.89-15.63-65.57-.47-3.24-1.29-12.67-4.25-14-2.76.81-4.2,1.52-6.89.34Z"/>
    <path class="uuid-b6228fde-ae0d-4f7a-9cbd-89ad9730a902" d="m480.48,408.86c.36-5.74.02-11.52-.4-17.25,1.41,1.21,2.42,2.82,3.53,4.31,1.74,2.35,6.48,8.14,6.04,11.14l-.95.51-8.21,1.3Z"/>
    <path class="uuid-01f3cbec-1e71-4bcf-a640-44eb75cba8b6" d="m836.42,396.7c-1.74-.32-2.88-.39-4.42-1.28-.46-1.88.02-2.06.76-4.27.84.96,4.14,4.34,4.08,5.29l-.41.25Z"/>
    <path class="uuid-57b2b6bd-0e87-4bbd-9355-d475b587861a" d="m787.09,469.25c-4.67-15.36-8.08-31.08-12.12-46.61-2.56-9.86-6.23-19.71-7.39-29.85,1.74.14,3.23.33,4.89.87.64.48,1,.89,1.3,1.64,2.65,6.57,3.94,14.57,5.68,21.48l12.97,53.33-5.34-.87Z"/>
    <path class="uuid-9a0b1bb9-7ffb-41c7-8852-78a7bf73c610" d="m778.35,406.79c-.79-2.84-3.05-10.22-3.28-12.8l.76-.36c2.68,1.17,4.12.47,6.89-.34,2.96,1.33,3.78,10.76,4.25,14-.98-.15-1.51-.12-2.48-.01-2.19.25-4-.08-6.13-.48Z"/>
    <path class="uuid-de7a5c32-6be7-49b8-aff6-9f62701d434e" d="m855.38,393.92c-.37.41-.74.82-1.12,1.23-3.5,23.68-9.34,47.11-10.02,71.11-.05,1.64.42,3.13.13,4.79-1.21.5-1.52,1.08-2.31,2.07l-1.32-.4-.48-2.71-.08.07.14.74c-.67,1.03-.46.47-.64,1.68-3.06-8.41,3.65-37.54,3.68-48.35.45-6.78,1.62-13.58,1.58-20.38.4-3.63.97-7.45,1.46-11.09,2.6.26,6.59.49,8.98,1.22Z"/>
    <path class="uuid-f3b3642f-b5b1-47bb-9a52-cbe47161a201" d="m816.17,408.64c-.53.04-1.07.08-1.6.08-1.05.02-1.78.15-2.58-.61-.02-4.56,1.22-9.48,2.43-13.86.9,3.12,4.16,11.43,3.09,14.23l-1.35.16Z"/>
    <path class="uuid-137df494-d05e-416a-a380-bc4c5c2d0d56" d="m839.68,472.51c.18-1.22-.03-.65.64-1.68l-.14-.74.08-.07.48,2.71,1.32.4c.79-.99,1.11-1.56,2.31-2.07.3-1.66-.17-3.16-.13-4.79.68-24,6.52-47.43,10.02-71.11.37-.41.74-.82,1.12-1.23,0,2.33-2.82,23.23-3.41,24.88-1.93,5.36-6.12,51.84-7.66,53.85l-1.97.32-2.65-.47Z"/>
    <path class="uuid-55339692-1a70-46cf-bfee-d9eb1a580b1e" d="m869.17,400.09c-2.62.31-5.91.49-8.52.11-1.44-.21-2.41-.61-3.26-1.79l.8-2.1c3.61,1.32,7.96,1.35,11.29,3.21l-.32.57Z"/>
    <path class="uuid-f3b3642f-b5b1-47bb-9a52-cbe47161a201" d="m841.36,400.85c-3.55.36-6.95-1.05-9.92-2.86,3.33-.35,7.27.87,9.92,2.86Z"/>
    <path class="uuid-63d2d7c0-78f3-478d-8110-10f01e7fee48" d="m800.72,399.21c2.43,3.85,2.69,13.45,3.69,18.51.15,1.27.22,2.27.95,3.37h.78c1.07-1.81,1.13-3.44,1.29-5.51l1.28-1.77c.25,10.21.7,20.54,1.74,30.7.57,5.5,3.94,25.2,3.5,28.76-1.41.5-2.62.34-4.08.22-1.32-9.1-2.79-18.44-5-27.37l1.24-.65c.21-.41.32-.57.38-1.08.16-1.53-.93-12.25-1.66-13.47-.48-9.44-3.42-21.03-4.11-31.71Z"/>
    <path class="uuid-9a0b1bb9-7ffb-41c7-8852-78a7bf73c610" d="m831.42,399.94c2.6.97,4,1.59,6.79,1.97,2.54,5.99-2.86,26.16-3.82,33.64-.47,3.66-.44,7.38-.81,11.05-.57,5.57-1.44,11.07-1.86,16.66-.25,3.3-1.09,7.57-.17,10.73l-5.48.2c.16-17.57,2.29-33.64,3.74-51.06.64-7.7,1.08-15.49,1.61-23.2Z"/>
    <path class="uuid-9a0b1bb9-7ffb-41c7-8852-78a7bf73c610" d="m870.2,405.26l-.9-.54c-.43.41-.67.74-.8,1.33-.77,3.35-.95,6.97-1.53,10.38l-5.14,31.57c-1.03,6.5-3.24,14.02-3.41,20.51-.02.74.02.63.29,1.34-2.54.85-5.15,1.36-7.77,1.9.28-19.07,2.55-42.66,5.73-61.51.18-1.07.28-.58-.14-1.44l-.65.36-.36,2.24-.64.42c-.12-3.56.9-7.77,1.4-11.34,3.54.43,6.98.34,10.51.62,1.52.12,2.75.33,3.74,1.52l-.32,2.64Z"/>
    <path class="uuid-57b2b6bd-0e87-4bbd-9355-d475b587861a" d="m838.22,401.91c1.32.61,2.24.83,3.1,2.03-.04,2.53-8.57,68.59-8.82,69.14-.18.4-.63.62-.94.93-.92-3.16-.08-7.43.17-10.73.42-5.6,1.29-11.09,1.86-16.66.38-3.67.34-7.39.81-11.05.96-7.48,6.37-27.65,3.82-33.64Z"/>
    <path class="uuid-eceaefc2-0c02-4f42-a7c0-1981e548834d" d="m840.42,420.96c.61-4.12,1.15-13.05,2.85-16.35.36-.7.96-.63,1.66-.83.04,6.8-1.12,13.59-1.58,20.38-1.14-.87-2.02-2.1-2.94-3.2Z"/>
    <path class="uuid-137df494-d05e-416a-a380-bc4c5c2d0d56" d="m858.71,469.84c-.27-.71-.31-.6-.29-1.34.17-6.49,2.38-14.01,3.41-20.51l5.14-31.57c.58-3.4.76-7.03,1.53-10.38.14-.59.37-.91.8-1.33l.9.54c-1.01,7.09-9.77,63.16-10.71,64.3l-.78.28Z"/>
    <path class="uuid-a7e8cc52-6d29-47d6-972d-6bc3beeb632b" d="m822.37,412.23c.82.34,1.6.52,2.45.73,3.74-1.38,2.28-4.17,4.39-6.67.15-.18.32-.35.47-.52-1.07,9.98-1.45,19.99-2.35,29.98-1.63.44-2.1.82-3.21,2.08-.27-3.8-3.05-22.99-2.53-24.62.13-.4.51-.65.77-.98Z"/>
    <path class="uuid-64de3105-248a-4b13-ac1f-e409cb802dfa" d="m778.35,406.79c2.13.41,3.94.73,6.13.48.97-.11,1.51-.14,2.48.01,3.77,22.68,8.76,43.61,15.63,65.57-2.8-.86-5.61-1.66-8.43-2.47-6.56-20.66-10.68-42.52-15.82-63.6Z"/>
    <path class="uuid-2ff65363-a35c-4d8b-80cc-4e0f10e0a620" d="m854.88,411.82l.64-.42.36-2.24.65-.36c.42.86.33.37.14,1.44-3.18,18.84-5.45,42.44-5.73,61.51l-4.54.8c2.76-20.14,4.28-40.84,8.47-60.72Z"/>
    <path class="uuid-9b338ec8-5685-4c31-ab01-d320848c062c" d="m818.2,411.91c-1.72.27-3.71.77-5.44.66-1.05-.07-1.15-.13-1.9-.91l.29-1.67c2.39-.1,4.94-.43,7.25.28l.42.84-.61.79Z"/>
    <path class="uuid-63d2d7c0-78f3-478d-8110-10f01e7fee48" d="m816.42,413.9l2.85-.76c2.19,2.91,3.53,25.03,3.57,29.93.91,4.33,2.96,27.54.98,30.66-.8.12-1.61.26-2.42.33-1.01-10.65-3.5-21.31-4.66-32.02.65-1.99.32-3.45.48-5.47.57-7.48,1.91-15.42-.8-22.68Z"/>
    <path class="uuid-9a0b1bb9-7ffb-41c7-8852-78a7bf73c610" d="m821.4,474.06c-1.77-.08-3.91.07-5.44-.9-2.22-9.01-6.97-50.72-5.74-58.18,1.26-.95,3-.88,4.53-1.03.04,7.27.39,21.33,1.99,28.08,1.16,10.71,3.65,21.36,4.66,32.02Z"/>
    <path class="uuid-57b2b6bd-0e87-4bbd-9355-d475b587861a" d="m814.75,413.96l1.67-.06c2.7,7.26,1.37,15.2.8,22.68-.16,2.02.17,3.48-.48,5.47-1.6-6.75-1.95-20.82-1.99-28.08Z"/>
    <path class="uuid-747d578c-4a0f-4399-9c7a-427a462fbf1c" d="m804.41,417.71l3.02-2.14c-.17,2.07-.22,3.7-1.29,5.52h-.78c-.73-1.1-.8-2.1-.95-3.38Z"/>
    <path class="uuid-31860c99-7f90-41db-85ec-808b307d5622" d="m834.08,473.75c2.69-17.5,4.12-35.21,6.34-52.78.93,1.09,1.8,2.33,2.94,3.2-.02,10.81-6.73,39.94-3.68,48.35l2.65.47c-2.61.67-5.57.61-8.25.77Z"/>
    <path class="uuid-ed3f3b37-b7ec-42fe-a1b0-7a3b74a27508" d="m798.73,422.17c1.04,1.42,2.1,2.82,3.2,4.2.96.05.6.15,1.12-.04.53,1.54.97,3.18,1.79,4.59.73,1.21,1.82,11.94,1.66,13.47-.05.51-.17.67-.38,1.08l-1.24.65c-2.6-7.91-4.48-15.81-6.14-23.95Z"/>
    <path class="uuid-ed3f3b37-b7ec-42fe-a1b0-7a3b74a27508" d="m824.13,437.82c1.11-1.27,1.58-1.65,3.21-2.08-.49,5.17-.94,10.34-1.48,15.5-1.02-4.43-1.52-8.88-1.73-13.42Z"/>
    <path class="uuid-57b2b6bd-0e87-4bbd-9355-d475b587861a" d="m361.55,449.33c-1.25-2.18-2.89-4.47-2.8-7.08.05-1.49.45-2.86,1.6-3.88.92-.81,2.12-.87,3.28-.71,2.37.32,3.35,1.84,4.67,3.63-.27,1.16-.46,2.45-.87,3.56-2.26,1.07-4.02,2.83-5.88,4.48Z"/>
    <path class="uuid-b6228fde-ae0d-4f7a-9cbd-89ad9730a902" d="m355.4,482.29c-1.44-5.02-2.02-34.54,0-38.91.43-.94.77-1.8,1.11-2.77.73,6.45,4.74,11.38,8.65,16.28-3.96,8.13-5.82,17.19-9.75,25.4Z"/>
    <path class="uuid-31860c99-7f90-41db-85ec-808b307d5622" d="m368.3,441.29c4.39,5.1,8.61,10.6,12.38,16.17-2.74,2.37-5.43,4.9-8.77,6.42-3.14-4.58-6.41-9.11-9.43-13.76,1.65-1.72,3.47-3.41,4.96-5.27.4-1.11.59-2.41.87-3.56Z"/>
    <path class="uuid-5d977832-e01c-4d94-a72f-07843a103bd5" d="m355.3,489.15c2.62-10.13,7.19-20.79,11.28-30.44.13.1.28.19.4.31,4.84,4.6,2.29,26.81,2.32,34.03l-7.99-2.28-6.01-1.62Z"/>
    <path class="uuid-137df494-d05e-416a-a380-bc4c5c2d0d56" d="m381.09,459.07c1.96.59,3.15,2.7,4.35,4.32-.8,1.54-1.62,3.08-2.77,4.39-1.34-.93-2.42-1.71-3.4-3.03-.12-1.09.05-1.57.54-2.5.42-.78.75-1.47,1.01-2.31l.26-.88Z"/>
    <path class="uuid-63d2d7c0-78f3-478d-8110-10f01e7fee48" d="m377.64,472.04c-1.5-2.1-4.47-4.49-4.51-7.12.83-1.12,6.55-5.14,7.96-5.85l-.26.88c-.26.85-.59,1.54-1.01,2.31-.5.93-.66,1.41-.54,2.5.98,1.32,2.06,2.09,3.4,3.03l.55,1.18c-1.77,1.2-3.69,2.11-5.59,3.07Z"/>
    <path class="uuid-5d977832-e01c-4d94-a72f-07843a103bd5" d="m581.34,495.02c-.93-11.2-1.31-22.52-1.75-33.75,2.5,1.43,14.08,24.4,16.46,28.44-.98,1.21-2.16,1.26-3.63,1.7-3.8.94-7.41,2.24-11.08,3.6Z"/>
    <path class="uuid-e75d9fb2-d8d0-40c4-99a4-f65552e1bf1e" d="m382.68,467.79c1.15-1.32,1.97-2.85,2.77-4.39.83,1.13,1.36,1.46,1.28,2.89-1.03,1.16-2.21,1.87-3.5,2.68l-.55-1.18Z"/>
    <path class="uuid-b6228fde-ae0d-4f7a-9cbd-89ad9730a902" d="m370.59,493.3l.72-26.7c2.01,1.42,20.27,27.73,22.23,31.09-7.95-.1-15.21-2.78-22.95-4.39Z"/>
    <path class="uuid-e6abb306-5598-4a1f-8557-9662bb554572" d="m378.89,473.51c3.09-2.04,6.13-4.16,9.19-6.25,2.31,1.3,33.05,43.63,36.75,49.53.97,1.54,1.62,3.09,2.2,4.82l-6.09-2.96c-3.54-1.36-8.06-2.62-11.15-4.83-7.2-5.14-25.42-31.83-30.89-40.32Z"/>
    <path class="uuid-76334783-3666-4dd5-befa-dc117c80113a" d="m780.83,489.91l-.06-22.72c.12.1.23.2.35.3.2.16.4.32.59.49,1.63,1.36,3.05,2.16,5.07,2.84,18.64,6.25,60.24,7.37,78.01-1.57-1.15,6.67-1.26,13.79-1.78,20.55-2.58,1.61-5.25,3-8.1,4.06-20.97,7.75-54.06,5.26-74.08-3.95Z"/>
    <path class="uuid-9a0b1bb9-7ffb-41c7-8852-78a7bf73c610" d="m141.93,470.04c5.72.52,17.19,2.57,20.98,7.34,1.11,1.4,1.12,3.19,1.18,4.92.64,16.3-.61,32.9-.68,49.23v25.76c.03,5.45.41,11.03-.15,16.45-20.94,9.49-50.77,10.99-72.36,2.79-2-.76-3.96-1.6-5.81-2.66.14-14.64.4-29.3.04-43.94-.25-10.33-.35-20.64-.36-30.97,0-5.19-.27-10.58.23-15.75.22-2.28.33-5.07,2.11-6.71,6.54-6.08,24.28-7.88,32.82-8.16l.88,7.03c-6.19.42-26.09,1.05-30.32,6.19-.8.97-.7,1.23-.52,2.37,3.94,4.46,15.97,5.08,21.57,5.41,12.05.71,36.86.67,46.62-6.97l-.13-.83c-7.71-5.49-17.37-4.88-26.35-6.14.16-.75.14-.37.04-1.21-.09-.77-.13-1.51-.15-2.29,1.68-1.16,5.42-1.79,7.42-1.53.84.11,1.32.14,2.15-.09.26-.08.52-.16.79-.24Z"/>
    <path class="uuid-2ff65363-a35c-4d8b-80cc-4e0f10e0a620" d="m130.32,468.26c3.9.49,7.76,1.01,11.62,1.78-.26.08-.52.17-.79.24-.83.24-1.32.2-2.15.09-2-.26-5.75.38-7.42,1.53.02.78.06,1.52.15,2.29.1.84.12.46-.04,1.21l-.28-.12c-1.18-1.36-.96-5.2-1.09-7.03Z"/>
    <path class="uuid-b339f6e6-578b-40aa-9e8e-15d317ca0f5e" d="m89.13,482.82c9.36-4.46,19.77-5.01,29.95-5.74,1.14.01.99-.19,1.91.66.9,3.27.78,6.82.9,10.19-8.71-.01-17.16-.31-25.67-2.3-2.47-.71-4.76-1.78-7.1-2.82Z"/>
    <path class="uuid-1399fe44-691b-45ae-9586-db23460e1bcc" d="m132.36,487.65c-.22-3.48-.6-6.91-1.07-10.37,8.52.74,17.41.86,25.18,4.79l-4.51,1.95c-6.23,1.92-13.07,3.4-19.59,3.63Z"/>
    <path class="uuid-1d952f67-aa59-483f-988f-cdaca17f9721" d="m633.56,486.13l1.59-.65.57.31c-2.87,2.15-8.5,1.25-11.95,1.05,3.21-.69,6.52-.11,9.79-.71Z"/>
    <path class="uuid-04f91985-708f-4299-9288-36089f4654fe" d="m855.05,516.89c-.18.06-.35.11-.53.17-4.21,1.37-8.07,3.53-12.19,5.1-10.98,4.18-23.95,4.89-35.51,3.53-5.15-.6-10.25-2.44-15.29-2.95-1.45-4.02-3.27-22.64-4.05-28.22,18.15,7.11,52.44,7.5,70.44.11-1.46,7.32-1.79,14.87-2.88,22.26Z"/>
    <path class="uuid-b6228fde-ae0d-4f7a-9cbd-89ad9730a902" d="m365.93,542.59c-.71.88-1.51,1.75-2.14,2.69-.7-.19-1.37-.4-2.04-.69-2.85-1.23-4.87-3.58-5.93-6.48-2.63-7.17.82-17.64,3.77-24.33,3.5-7.96,9.33-13.88,17.49-17.02,2.37.34,4.58.81,6.88,1.48-6.95,2.83-11.22,5.51-15.21,12.05-4.13,6.78-10.08,19-7.88,27.1.77,2.82,2.65,3.89,5.07,5.21Z"/>
    <path class="uuid-b6228fde-ae0d-4f7a-9cbd-89ad9730a902" d="m572.59,501.49c2.05-1.59,4.24-2.84,6.49-4.11,2.67.09,4.57.88,6.64,2.56,7.14,5.79,10.7,16.53,11.68,25.36.48,4.37,1.07,11.75-2.14,15.17-1.17,1.24-2.77,1.1-4.35,1.16.11-.44.15-.56.24-1.07,1.68-10.31,2.44-22.65-4.29-31.4-3.88-5.05-8.19-6.86-14.26-7.68Z"/>
    <path class="uuid-468ce4e7-d8da-41f7-8113-fda4a1fd6796" d="m404.77,539.81c4.16,3.17,24.46,12.39,25.04,13.13.42.54.19.87.09,1.48-.76.66-1.42,1.03-2.39,1.29-12.93,3.5-49.9-8.34-61.38-14.83-2-1.13-3.3-2.51-3.89-4.77-1.69-6.54,3.15-16.84,6.27-22.48,4.13-7.47,8.87-11.72,17.13-14.1,3.2-.28,6.34-.28,9.54-.24,4.3,4.64,7.29,11.09,12.24,15.04,3.91,3.11,9.76,4.74,14.31,6.82,6.68,3.06,12.92,7.03,18.65,11.63,2.65,2.13,8.09,6.38,8.49,9.88-.33.78-.31,1.18-1.1,1.62-1.04.58-2.02.66-3.16.3-3.65-1.17-7.65-4.2-11-6.13-8.81-5.08-19.97-11.34-29.96-13.41-.22-.05-.44-.08-.66-.13,8.22,4.84,31.12,13.25,36.14,19.89,1.15,1.52,1.14,2.71.86,4.52-13.57,4.13-22.53-5.38-34.59-9.29l-.65-.2Z"/>
    <path class="uuid-468ce4e7-d8da-41f7-8113-fda4a1fd6796" d="m549.21,512.06c-12.9,1.96-23.37,8.11-35.08,13.19-1.74.76-3.4,1.4-5.27.68l-.24-.96c.36-.82.72-1.49,1.31-2.18,11.95-14.12,39.24-18.64,56.6-19.69,4.79-.22,9.79.02,13.92,2.72,5.33,3.48,8.7,9.91,9.84,16.05,1.09,5.85,1.25,15.02-2.49,19.91-3.86,5.06-18.62,7.81-24.7,8.39-6.65.64-26.08,1.5-31.29-2.78.21-3.8,22.23-8.04,25.25-11.18-8.1-.89-24.02,8.59-33.37,10.42-4.82.94-9.12.77-13.98.23,6.45-7.09,15.91-11.95,24.41-16.14,5.21-2.36,10.89-3.92,15.78-6.9-12.23,1.89-23.49,8.6-34.23,14.46-1.9-.22-5.69-.28-7.01-1.94-.71-.9-.86-1.92-.55-3.01,2.29-8.1,32.67-17.23,40.55-21,.18-.09.36-.18.54-.27Z"/>
    <path class="uuid-b6228fde-ae0d-4f7a-9cbd-89ad9730a902" d="m356.87,543.02c-9.4-3.4-62.79-21.36-66.02-26.11-1.65-2.43-.94-5.23-.41-7.89,1.62,2.17,5.11,3.94,7.57,5.05,9.4,4.28,19.86,6.92,29.61,10.4,8.51,3.05,16.8,6.95,25.29,9.91.81,3.21,2.26,5.84,3.96,8.64Z"/>
    <path class="uuid-ee76b89a-7182-4445-a819-8e8381194fab" d="m434.44,551.88c1.9,0,4.29.14,5.79-1.3,1.66-1.6.3-4.13,2.34-5,2.17.44,4.58,1.26,6.59-.01.84-.53,1.13-1.08,1.56-1.93.16-2.44-1.01-4.09-2.57-5.85-5.35-6.04-12.86-10.94-19.74-15.05-.61-4.47-2-6.5-4.67-9.92,17.93,3.28,40.16,2.77,53.95,16.56-.24,8.13-.15,62.41-1.84,65.41-3.64.72-13.94-7.58-18.54-9.27-5.15-1.89-10.39-2.28-15.84-2.15,11.38,2.3,20.11,4.39,28.98,12.41-32.04-16.58-87.93-6.17-122.9-2.13,6.19-13.68,13.29-26.98,19.26-40.75,16.61,6.58,46.25,13.84,63.32,6.68.34-.14.68-.31,1.01-.47,1.12-.68,2.66-1.71,3.5-2.71.81-.97.76-1.36.66-2.51l-1.68-1.1.84-.91Z"/>
    <path class="uuid-ee76b89a-7182-4445-a819-8e8381194fab" d="m514.38,539.79c-1.83,1.63-5.07,3.89-5.57,6.38-.17.85.24,1.11.66,1.79,1.93,1.18,4.33,1.1,6.55,1.29,1.51,2.57,3.41,2.85,6.16,3.57,20.66,5.37,42.53,7.33,63.32,1.49,8.57,13.02,16.82,26.88,24.51,40.46-32.32-5.96-66.68-7.41-99.5-5.65-6.68.36-13.86.61-20.36,2.22-2.67.66-5.35,3.7-8,3.21l.07-.87c1.06-1.35,2.21-2.44,3.55-3.49,13.59-10.69,42.58-12.65,59.03-11.02,7.38.73,14.59,2.77,21.93,3.54.9.09,2.41.38,3.12-.19-23.46-7.28-56.94-7.83-79.31,2.98-2.09,1.01-4.55,2.23-6.31,3.76-1.85,1.61-3.02,4.3-5.24,5.36l-.5-.53c-.56-8.24.11-16.75.18-25.03.11-13.26-.41-26.98,1.13-40.16,11.49-8.67,21.96-13.01,36.48-13.11-2.24,1.59-4.7,3.14-6.65,5.08-1.35,1.35-2.11,2.45-2.1,4.38,4.38,5.39-2.49,6.46-1.57,11.29,2.07,2.27,5.52,2.67,8.39,3.27Z"/>
    <path class="uuid-76334783-3666-4dd5-befa-dc117c80113a" d="m791.54,522.74c5.03.51,10.14,2.34,15.29,2.95,11.56,1.36,24.53.65,35.51-3.53,4.12-1.57,7.98-3.73,12.19-5.1.18-.06.35-.11.53-.17l-4.27,33.4c-.74,5.94-1,12.72-2.69,18.43-.38,1.28-.71,2.11-1.76,2.95-6.26,5.01-23.23,5-30.97,4.03-6.03-.75-12.69-2.3-17.85-5.6-2.02-15.74-4.38-31.58-5.96-47.37Z"/>
    <path class="uuid-e75d9fb2-d8d0-40c4-99a4-f65552e1bf1e" d="m683.08,520.48c15.47-.5,31.01.05,46.49.03,20.08-.04,40.23-.54,60.3-.18,1.34,11.19,2.6,22.37,4.08,33.54-.1,1.42.18,2.52-.99,3.46-2.56,2.05-7.59,3.07-8.04,6.82-.33,2.74,2.1,6.13,3.92,7.93,9.82,9.64,30.04,10.27,42.77,9.86,8.94-.29,24.78-1.7,31.32-8.71,1.05-1.12,1.79-2.53,1.59-4.12-.28-2.22-2.18-3.89-3.94-5.05-2.55-1.67-6.21-3.34-9.24-3.87,1.59-13.38,3.53-26.8,4.67-40.22,5.72-.04,11.47.11,17.15-.71,4.8,4.77,8.79,11.2,12.92,16.6,6.28,8.22,12.84,16.24,19.22,24.39,15.16,19.35,34.58,40.51,47.34,61.19l-663.74-.71-203.39-.2-50.98.15c-11.33.09-22.71.46-34.03.13,3.46-5.13,7.94-9.71,12.03-14.35,8.49-9.62,17.2-19.03,25.75-28.6,14.85-16.62,28.65-34.82,45.06-49.91.08,11.08.02,22.15-.09,33.23-3.89,2.75-8.91,6.08-9.9,11.08-.46,2.31.2,4.48,1.52,6.39,5.14,7.43,18.2,10.64,26.56,11.92,16.75,2.56,44.58.8,58.77-9.39,2.45-1.76,3.82-3.29,4.57-6.23.69-7.03.42-14.2.4-21.26l-.02-33.76,75.92-.07c16.01-.1,32.8-1.3,48.72.15,1.73.16,3.07.78,4.58,1.61-5.34.12-10.73-.27-16.08-.31,3.07,2.9,6.1,5.06,9.88,6.96,8.67,4.35,18.57,7.1,27.72,10.32,16.22,5.69,31.62,11.94,48.62,14.97-5.05,11.31-10.29,22.58-15.83,33.66-2.33,4.66-6.1,9.76-7.58,14.71.73,1.18,1.06,1.42,2.45,1.65,6,1.02,13.2.03,19.32-.1,8.64-.18,90.2-2.91,92.11-1.53.27,1.3.45,2.39,1.2,3.53,5.2,1.82,32.95,1.08,39.52.43.72-1.47,1.3-3.03,1.93-4.53,12.03.05,24.07.95,36.09,1.44l44.54,1.55c5.62.25,31.39,2.06,35.71,1,1.43-.35,1.54-.95,2.19-2.15-.47-4.57-25.76-44.02-29.81-50.72,6.26-2.16,13.27-3.15,19.72-4.77,13.23-3.32,26.6-7.11,39.45-11.72,9.04-3.24,30.68-14.59,37.55-15.54Zm77.02,29.09c2.4-1.49,6.23-3.33,6.85-6.39.56-2.75-.69-6.06-2.34-8.24-1.4-1.86-3.39-3.27-5.73-3.6-2.25-.31-4.81.31-6.98.9-8.8,2.37-17.55,6.15-26.18,9.13-14.75,5.1-30.08,9.71-44.26,16.28-2.53,1.17-4.64,2.48-6.82,4.25-2.72,2.21-11.97,9.88-12.35,13.14-.09.79.39,1.1.83,1.7,3.02.66,6.27.07,9.38.46-.53.5-1.97.05-2.9.57l.16.74c4.22.73,6.36,3.96,11.01,3.8,13.59-.46,39.51-9.97,52.89-14.43,7.85-2.61,16.07-4.82,23.62-8.21,2.81-1.26,7.1-3.36,9-5.81.81-1.04.86-1.27.67-2.47-1.83-1.73-4.46-1.84-6.83-1.83Zm-552.33,2.54c-6.34.35-12.73.55-19.05,1.08-2.08,7.44-4.14,14.89-6.34,22.29-1.5,5.05-3.62,10.46-4.33,15.68-.24,1.8-.11,3.67,0,5.48,2.94,3.6,6.07,5.2,10.73,5.64,4.61.44,9.64-.54,14.27-.84,6.49-.43,13.02-.61,19.53-.57,4.77,0,21.46,1.56,24.38-1.09,5.09-4.62,6.36-21.51,6.07-28.15-.17-3.97-.54-13.28-3.51-16.19-4.49-4.42-34.29-3.74-41.76-3.32Z"/>
    <path class="uuid-ed3f3b37-b7ec-42fe-a1b0-7a3b74a27508" d="m664.14,520.88c6.31.04,12.62-.37,18.94-.4-6.87.95-28.52,12.3-37.55,15.54-12.85,4.61-26.21,8.4-39.45,11.72-6.45,1.62-13.46,2.61-19.72,4.77-1.42-2.08-2.55-4.27-3.71-6.51,5.29-2.45,10.16-1.82,15.65-3,9.72-2.1,19.41-5.15,29.02-7.77,8.6-2.35,17.96-4.23,26.13-7.77,3.98-1.72,7.22-3.97,10.68-6.58Z"/>
    <path class="uuid-ed3f3b37-b7ec-42fe-a1b0-7a3b74a27508" d="m294.38,521.64c10.89,5.08,22.44,8.61,33.71,12.73,12.77,4.67,25.69,10.33,39,13.21l-2.56,5.99c-17.01-3.03-32.41-9.28-48.62-14.97-9.15-3.21-19.05-5.96-27.72-10.32-3.78-1.9-6.81-4.06-9.88-6.96,5.35.04,10.74.43,16.08.31Z"/>
    <path class="uuid-d1758fa4-877f-424d-a03e-5c757d25797a" d="m760.1,549.57c-13.12,4.68-26.24,9.29-39.28,14.18-10.9,4.08-22.52,9.54-33.97,11.59-7.75,1.39-15.9.85-23.74,1.4-.44-.6-.92-.9-.83-1.7.37-3.26,9.62-10.93,12.35-13.14,2.18-1.77,4.29-3.08,6.82-4.25,14.18-6.57,29.51-11.18,44.26-16.28,8.64-2.98,17.39-6.76,26.18-9.13,2.17-.58,4.74-1.21,6.98-.9,2.34.33,4.33,1.74,5.73,3.6,1.65,2.19,2.9,5.49,2.34,8.24-.62,3.06-4.45,4.9-6.85,6.39Zm.15-9.76c-1.73-2.99-4.07-4.75-6.87-6.65-22.36,8.38-47.38,15.32-68.91,24.66,1.3,1.24,2.61,2.76,4.03,3.84l1.78,2.63c.82,3.12.56,5.55-.08,8.7,16.01-5.27,31.68-11.23,47.48-17.08,6.72-2.49,14.14-4.35,20.52-7.58,1.36-.69,1.99-1.44,2.79-2.72-.3-1.92-.5-3.87-.72-5.8Zm-72.83,24.36c-1.82-1.59-3.6-3.26-5.61-4.61-4.93,2.33-9.44,6.35-13.19,10.27l-5.06,4.99c5.96-.7,12.03-.02,17.94-.85,2.01.12,4.12-.13,6.13-.23.5-1.2,1.09-2.46,1.36-3.74.5-2.35-.35-3.9-1.57-5.82Zm68.63-31.83c2.29,1.93,5.64,4.06,5.98,7.27.24,2.33.3,4.72.38,7.06,1.03-.2,1.53-.56,2.36-1.19,1.02-2.51,1.42-5.17.39-7.76-.9-2.26-2.73-3.84-4.97-4.72-1.3-.51-2.74-.66-4.13-.67Z"/>
    <path class="uuid-9b8ddf99-a5c7-4bed-8e21-0785ae9fbe9c" d="m764.77,545.48c-.82.63-1.33.99-2.36,1.19-.08-2.34-.13-4.73-.38-7.06-.34-3.21-3.69-5.34-5.98-7.27,1.39.02,2.83.16,4.13.67,2.24.88,4.07,2.45,4.97,4.72,1.03,2.59.63,5.25-.39,7.76Z"/>
    <path class="uuid-76334783-3666-4dd5-befa-dc117c80113a" d="m760.25,539.81c-11.42-.47-56.48,18.31-71.76,21.85-1.42-1.08-2.73-2.59-4.03-3.84,21.53-9.34,46.55-16.28,68.91-24.66,2.81,1.9,5.15,3.66,6.87,6.65Z"/>
    <path class="uuid-fca29ddb-44c9-4020-bc02-d69153790c48" d="m688.5,561.66c15.28-3.54,60.33-22.33,71.76-21.85.23,1.93.42,3.88.72,5.8l-.9-1.54c-8.44-1.55-52.36,21.56-69.8,20.22l-1.78-2.63Z"/>
    <path class="uuid-41816c77-8ae3-4ba6-994d-7e213d507c0b" d="m363.79,545.28c.63-.93,1.43-1.81,2.14-2.69,1.26.7,1.93.88,2.64,2.16-.59.83-.34.83-1.24,1-1.28.25-2.32-.13-3.54-.48Z"/>
    <path class="uuid-e4b2aa0b-3a3a-4676-a2c0-dcc9b4cc4357" d="m690.28,564.29c17.44,1.33,61.35-21.78,69.8-20.22l.9,1.54c-.8,1.28-1.42,2.03-2.79,2.72-6.38,3.23-13.8,5.09-20.52,7.58-15.8,5.85-31.46,11.81-47.48,17.08.65-3.14.9-5.58.08-8.7Z"/>
    <path class="uuid-9b8ddf99-a5c7-4bed-8e21-0785ae9fbe9c" d="m366.79,552.9c1.22-2.78,2.42-5.58,3.67-8.35,16.56,6.61,37.82,14.85,55.81,13.24,1.95.07,3.11.48,4.86,1.32-.34.16-.67.32-1.01.47-17.07,7.16-46.71-.1-63.32-6.68Z"/>
    <path class="uuid-9b8ddf99-a5c7-4bed-8e21-0785ae9fbe9c" d="m516.03,549.24c3.22-.33,10.27-2.15,13.1-1.53,1.95.43,3.75,2.77,6,3.21,14.42,2.79,32.87,2.2,46.61-3.35,1.19,2.28,2.33,4.59,3.77,6.73-20.79,5.84-42.66,3.88-63.32-1.49-2.75-.71-4.66-1-6.16-3.57Z"/>
    <path class="uuid-ed3f3b37-b7ec-42fe-a1b0-7a3b74a27508" d="m663.11,576.73c7.84-.55,15.99,0,23.74-1.4,11.45-2.05,23.06-7.51,33.97-11.59,13.04-4.89,26.16-9.49,39.28-14.18,2.37,0,5,.1,6.83,1.83.19,1.2.14,1.43-.67,2.47-1.9,2.45-6.19,4.55-9,5.81-7.56,3.39-15.77,5.59-23.62,8.21-13.38,4.46-39.3,13.97-52.89,14.43-4.65.16-6.79-3.07-11.01-3.8l-.16-.74c.93-.52,2.38-.07,2.9-.57-3.1-.4-6.35.19-9.38-.46Z"/>
    <path class="uuid-d1758fa4-877f-424d-a03e-5c757d25797a" d="m188.73,553.19c6.32-.53,12.71-.73,19.05-1.08,7.47-.42,37.27-1.1,41.76,3.32,2.96,2.91,3.33,12.22,3.51,16.19.29,6.64-.98,23.53-6.07,28.15-2.92,2.65-19.61,1.09-24.38,1.09-6.51-.04-13.04.15-19.53.57-4.63.31-9.66,1.28-14.27.84-4.66-.44-7.79-2.04-10.73-5.64-.12-1.81-.25-3.67,0-5.48.7-5.22,2.82-10.63,4.33-15.68,2.2-7.4,4.26-14.85,6.34-22.29Zm61.79,8.55c-.18-.87-.35-1.76-.61-2.61-.31-1.01-.53-2.01-1.47-2.54-.6,1.75,0,3.87.27,5.67.13,10.81.55,21.08-6.51,30.02.84,2.18,1.57,5.16,3.11,6.9,1.71-.73,2.64-3.31,3.28-4.92,4-9.99,4.26-22.12,1.92-32.52Zm-37.36-8.13c-7.87.32-15.74.73-23.61.92-3.16,11.87-5.9,23.84-9.46,35.6,11.68,1.18,23.71,1.23,35.45,1.18,5.59.02,24.04,1.25,27.47-2.28,4.85-4.99,4.6-21.43,4.19-27.91-.13-2.08-.36-4.16-.59-6.24-10.72-1.36-22.63-1.83-33.44-1.27Zm-34.03,37.92c-.37,1.83-.52,3.05.54,4.74,1.26,2.02,3.43,3.48,5.75,3.99,5.96,1.32,15.65-.3,22.03-.49,11.58-.35,23.19-.52,34.77-.04l.82-.49c.01-2.36-1.03-4.68-1.84-6.88l-36.85.12c-8.34-.03-16.95.28-25.22-.95Z"/>
    <path class="uuid-f3b3642f-b5b1-47bb-9a52-cbe47161a201" d="m426.27,557.79c5.65-.84,3.67-2.25,6.34-5.68l1.83-.23-.84.91,1.68,1.1c.1,1.15.15,1.54-.66,2.51-.84,1-2.37,2.03-3.5,2.71-1.74-.84-2.91-1.26-4.86-1.32Z"/>
    <path class="uuid-6d91f211-f38c-47a4-9d2a-0d5ccb0aaa94" d="m189.56,554.53c7.87-.2,15.74-.6,23.61-.92,10.81-.56,22.72-.09,33.44,1.27.24,2.07.46,4.16.59,6.24.41,6.48.66,22.92-4.19,27.91-3.43,3.53-21.88,2.3-27.47,2.28-11.74.05-23.77,0-35.45-1.18,3.57-11.76,6.3-23.73,9.46-35.6Z"/>
    <path class="uuid-ed3f3b37-b7ec-42fe-a1b0-7a3b74a27508" d="m793.95,553.87c.59,5.69,1.09,11.39,2.18,17.01,9.86,7.64,26.34,7.82,38.19,6.35,4.67-.58,11.47-1.66,14.53-5.57,1.98-2.52,2.03-8.27,2.5-11.47,3.04.53,6.7,2.2,9.24,3.87,1.76,1.16,3.66,2.83,3.94,5.05.2,1.59-.55,2.99-1.59,4.12-6.54,7.02-22.38,8.42-31.32,8.71-12.73.41-32.95-.22-42.77-9.86-1.83-1.79-4.25-5.19-3.92-7.93.45-3.75,5.48-4.77,8.04-6.82,1.18-.94.89-2.05.99-3.46Z"/>
    <path class="uuid-d6f7af2f-4b2a-4271-be2d-0802630dd858" d="m248.72,562.26c-.27-1.8-.87-3.92-.27-5.67.94.53,1.16,1.53,1.47,2.54.26.85.43,1.74.61,2.61l-1.81.52Z"/>
    <path class="uuid-57b2b6bd-0e87-4bbd-9355-d475b587861a" d="m687.42,564.16c-5.51,2.56-10.79,5.14-16.03,8.22-1.52-.72-1.93-1.11-2.77-2.56,3.75-3.92,8.26-7.93,13.19-10.27,2.01,1.34,3.79,3.02,5.61,4.61Z"/>
    <path class="uuid-ed3f3b37-b7ec-42fe-a1b0-7a3b74a27508" d="m164.77,574.97c-.75,2.94-2.12,4.47-4.57,6.23-14.19,10.19-42.02,11.95-58.77,9.39-8.35-1.28-21.42-4.49-26.56-11.92-1.32-1.91-1.98-4.08-1.52-6.39.99-5,6.01-8.34,9.9-11.08-.05,3.23-1.04,11.58,1.14,13.98,6.19,6.85,34.6,8.53,43.58,8.25,11.76-.37,26.41-2.65,36.8-8.45Z"/>
    <path class="uuid-6d91f211-f38c-47a4-9d2a-0d5ccb0aaa94" d="m248.72,562.26l1.81-.52c2.34,10.4,2.08,22.53-1.92,32.52-.65,1.61-1.58,4.2-3.28,4.92-1.54-1.74-2.27-4.72-3.11-6.9,7.07-8.95,6.64-19.21,6.51-30.02Z"/>
    <path class="uuid-ee76b89a-7182-4445-a819-8e8381194fab" d="m671.39,572.39c5.24-3.08,10.52-5.66,16.03-8.22,1.22,1.91,2.07,3.47,1.57,5.82-.27,1.28-.86,2.54-1.36,3.74-2.01.1-4.12.35-6.13.23-3.72-.54-7.48.17-11.23-.42l-.11-.59,1.23-.55Z"/>
    <path class="uuid-63d2d7c0-78f3-478d-8110-10f01e7fee48" d="m663.56,574.81l5.06-4.99c.84,1.45,1.25,1.84,2.77,2.56l-1.23.55.11.59c3.74.59,7.51-.11,11.23.42-5.92.83-11.98.15-17.94.85Z"/>
    <path class="uuid-ee76b89a-7182-4445-a819-8e8381194fab" d="m458.86,594.14c-15.82-1.95-109.6,4.11-112.34,2.84l-.13-.94.8-.75c6-1.55,12.56-1.85,18.71-2.65,26.71-3.49,66.58-7.88,92.27.03l.69,1.48Z"/>
    <path class="uuid-ee76b89a-7182-4445-a819-8e8381194fab" d="m492.33,592.36c8.74-1.24,18.02-2.14,26.84-2.4,15.76-.46,82.43,1.06,93.11,7.5l-.25,1c-1.24.34-2.39.61-3.67.61-4.03.02-8.33-.95-12.39-1.29-11.43-.95-22.91-2.02-34.36-2.58-10.24-.5-20.5-.56-30.75-.88-11.3-.35-22.55-.91-33.86-.87-1.72-.17-3.26-.03-4.67-1.09Z"/>
    <path class="uuid-4a9877a0-bf01-4e48-bf01-925c86d48b6a" d="m242.23,599.73c-11.58-.48-23.19-.31-34.77.04-6.38.19-16.07,1.81-22.03.49-2.32-.51-4.48-1.98-5.75-3.99-1.06-1.69-.91-2.91-.54-4.74,8.27,1.23,16.88.92,25.22.95l36.85-.12c.81,2.2,1.85,4.52,1.84,6.88l-.82.49Z"/>
    <path class="uuid-9b8ddf99-a5c7-4bed-8e21-0785ae9fbe9c" d="m484.19,595.15c2.56-1.45,5.3-2.15,8.14-2.8,1.4,1.06,2.95.93,4.67,1.09-4.22.71-8.56,1.07-12.81,1.7Z"/>
    <path class="uuid-9b8ddf99-a5c7-4bed-8e21-0785ae9fbe9c" d="m458.17,592.66c2.96.86,5.87,1.48,8.91,2-2.69.05-5.65.38-8.22-.52l-.69-1.48Z"/>
    <path class="uuid-e6abb306-5598-4a1f-8557-9662bb554572" d="m456.84,596.75c-5.83.4-11.7.18-17.54.29l-29.37.8c-15.9.44-32.03,1.69-47.92,1.48-1.82-.02-3.54-.1-5.24-.81,23.35-.14,46.73-1.71,70.07-2.54,8.8-.31,21.01-1.68,29.43-.32l.56,1.09Z"/>
    <path class="uuid-4a9877a0-bf01-4e48-bf01-925c86d48b6a" d="m496.26,599.46c-1.56-1.26-3.45-2.22-4.7-3.78l1-.18c1.07.42,2.15.72,3.3.82,5.97.47,12.06.09,18.04.34,17.63.76,35.34,1.51,52.98,1.81,10.4,1.81,22.96,1.85,33.67,2.71,4.44.35,9.41,1.61,13.81,1.23-.27.9-.04.45-.83,1.28-39.08-1.27-78.18-3.35-117.27-4.23Z"/>
    <path class="uuid-e6abb306-5598-4a1f-8557-9662bb554572" d="m492.55,595.51c24.63-.68,49.57.62,74.17,2.04l.16.94c-17.64-.3-35.36-1.05-52.98-1.81-5.99-.26-12.08.13-18.04-.34-1.15-.09-2.23-.39-3.3-.82Z"/>
    <path class="uuid-4a9877a0-bf01-4e48-bf01-925c86d48b6a" d="m356.78,598.52c1.69.7,3.42.78,5.24.81,15.88.21,32.02-1.04,47.92-1.48l29.37-.8c5.84-.1,11.71.12,17.54-.29-.69,1.37-.89,2.64-2.52,3.03-4.3,1-27.73.62-33.41.7-17.86.23-35.7,1.07-53.55,1.39-3.37.06-22.45.96-24.03-.02l-.22-.99c1.77-2.01,5.17-1.9,7.72-2.07,1.96-.12,3.99-.34,5.96-.27Z"/>
    <path class="uuid-5d977832-e01c-4d94-a72f-07843a103bd5" d="m494.53,604.38c-6.45.06-31.28.97-35.94-.13-.64-.15-.65-.02-.9-.6-.79-1.85.35-4.58.93-6.37,7.66-.24,26.17-.98,32.57.77,1.55.42,3.06,1.12,3.7,2.72.56,1.42.21,2.32-.35,3.61Z"/>
    <path class="uuid-55339692-1a70-46cf-bfee-d9eb1a580b1e" d="m566.72,597.54c7.59.44,43.27,1.65,47.64,4.87-4.4.39-9.37-.88-13.81-1.23-10.72-.85-23.27-.9-33.67-2.71l-.16-.94Z"/>
    <path class="uuid-ed3f3b37-b7ec-42fe-a1b0-7a3b74a27508" d="m950.05,652.38c-2.21,1.19-4.03,1.42-6.5,1.49-19.22.59-38.66-.34-57.9-.4l-132.46-.03-736.55.71c-2.98.03-11.4.85-13.35-1.42-3.16-3.69-1.69-24.89-1.64-30.51,11.15.56,22.46.17,33.63.16l60.32-.04,197.91-.03,658.75.52c1.08,4.88,1.45,10.08,1.49,15.07.04,5.08.05,10.67-3.71,14.48Z"/>
    <path class="uuid-ab188bcf-1d20-4447-a3c4-899a6851109d" d="m814.61,703.76c-1.34-2.4-.47-38.32-.46-43.38-5.24.07-10.2-.09-15.41-.75-1.31-.17-2.59-.09-3.91-.03-.3,26.81-.03,53.63.08,80.44.03,6.54,1,25.53-.21,30.76-.61-4.29-.32-9.01-.33-13.36l-.04-22.9-.05-79.59c6.73.12,13.47.04,20.2.05.23,16.24.29,32.51.13,48.76Z"/>
    <path class="uuid-ab188bcf-1d20-4447-a3c4-899a6851109d" d="m816.27,660.38c0-1.53-.27-3.76.49-5.09,6.14-.43,13.68-.98,19.73-.08.72,1.54.5,3.14.44,4.8-6.9.28-13.76.4-20.66.37Z"/>
    <path class="uuid-bfafabe9-d16a-4f4d-a900-f7ea3ad7fa28" d="m896.23,659.52c-12.04.59-24.49,1.82-36.53,1.24l.02-5.76c10.78.13,25.74-1.13,35.79.12.91,1.44.67,2.71.72,4.4Z"/>
    <path class="uuid-bfafabe9-d16a-4f4d-a900-f7ea3ad7fa28" d="m63.77,660.87c0-1.62-.3-3.78.59-5.16,11.84-.69,24.04-.1,35.91-.05-.03,5.1.26,10.42-.37,15.49-.44-3.32-.26-6.82-.27-10.17-11.66,1.23-24.13.13-35.86-.11Z"/>
    <path class="uuid-ab188bcf-1d20-4447-a3c4-899a6851109d" d="m123.8,662.78v-7.05c7.49-.02,15,.01,22.5-.12l-.18,50.47c0,8.63.51,17.6,0,26.19-1.36-2.66-.43-61.02-.25-69.44-7.32-.29-14.74-.05-22.07-.04Z"/>
    <path class="uuid-bfafabe9-d16a-4f4d-a900-f7ea3ad7fa28" d="m147.62,772.39c-.07-38.97-.37-77.93.03-116.9l17.42.03.29,86.67c.04,10.06.46,20.14.36,30.2h-18.1Z"/>
    <path class="uuid-bfafabe9-d16a-4f4d-a900-f7ea3ad7fa28" d="m816.27,660.38c6.9.03,13.77-.09,20.66-.37-.22,25.09.08,50.17.14,75.26.03,12.16-1.1,25.04.05,37.12h-44.32l.28-.62,1.62-.96c1.21-5.23.24-24.22.21-30.76-.11-26.81-.38-53.63-.08-80.44,1.31-.06,2.6-.14,3.91.03,5.21.66,10.17.82,15.41.75,0,5.06-.88,40.98.46,43.38l.12,43.66c.01,7.82-.63,16.29.59,23.99l.19-.07c1.99-8.9.79-26.59.77-36.43v-74.54Z"/>
    <path class="uuid-ed3f3b37-b7ec-42fe-a1b0-7a3b74a27508" d="m859.7,660.76c12.04.58,24.49-.64,36.53-1.24.23,37.59-.8,75.29.21,112.86h-36.79l.05-111.63Z"/>
    <path class="uuid-ed3f3b37-b7ec-42fe-a1b0-7a3b74a27508" d="m63.77,660.87c11.73.24,24.2,1.34,35.86.11,0,3.35-.17,6.85.27,10.17.63,11.22-.05,22.72-.08,33.96l.1,67.29h-36.34c.55-37.16.35-74.36.2-111.52Z"/>
    <path class="uuid-bfafabe9-d16a-4f4d-a900-f7ea3ad7fa28" d="m123.8,662.78c7.33,0,14.75-.25,22.07.04-.18,8.42-1.11,66.78.25,69.44l.16,40.13h-22.48v-109.61Z"/>
  </g>
</svg>