<?xml version="1.0" encoding="UTF-8"?>
<svg id="uuid-171c8c7b-3196-4009-9fa7-32430c7d6e5a" data-name="Слой 2" xmlns="http://www.w3.org/2000/svg" viewBox="0 0 94.73 94.73">
  <defs>
    <style>
      .uuid-f03d1bd5-98a6-402a-9867-486ad1d46f21 {
        fill: #fff;
        fill-rule: evenodd;
      }
    </style>
  </defs>
  <g id="uuid-5d23574a-dcca-4598-a718-1d1bd29be004" data-name="Слой 1">
    <path class="uuid-f03d1bd5-98a6-402a-9867-486ad1d46f21" d="m51.85,3.4c-.61,0-1.11-.5-1.11-1.11s.5-1.11,1.11-1.11c11.06,0,21.66,4.39,29.48,12.21,7.82,7.82,12.22,18.43,12.22,29.48,0,.61-.5,1.11-1.11,1.11s-1.11-.5-1.11-1.11c0-10.47-4.16-20.51-11.56-27.92-7.4-7.4-17.44-11.56-27.91-11.56h0ZM.6,27.15v.04c3.63,16.01,12.37,30.93,24.19,42.75,11.82,11.82,26.74,20.56,42.75,24.18,6.39,1.53,13.12.13,18.38-3.8,5.25-3.94,8.48-10.01,8.81-16.57.02-.16,0-.31-.05-.46-1.18-3.3-3.36-6.16-6.23-8.18-3.61-2.54-7.65-4.43-11.92-5.58-2.93-.91-6.12-.29-8.5,1.67l-6.85,5.48c-2.11,1.73-5.04,2.08-7.5.89-11.63-5.52-20.99-14.88-26.51-26.51-1.2-2.46-.85-5.39.89-7.5l5.48-6.85c1.95-2.37,2.58-5.57,1.67-8.5-1.14-4.27-3.03-8.31-5.58-11.92C27.6,3.42,24.74,1.24,21.44.06c-.13-.04-.27-.06-.41-.05C14.47.31,8.39,3.53,4.44,8.78.49,14.03-.92,20.76.6,27.15h0Zm2.03-9.13c-.59,2.85-.55,5.79.12,8.62,0,.02.01.04.02.06,3.52,15.58,12.05,30.13,23.59,41.67,11.54,11.54,26.09,20.06,41.66,23.59h.02c5.72,1.37,11.75.14,16.48-3.37,4.72-3.51,7.65-8.93,8-14.8-1.07-2.8-2.94-5.21-5.39-6.93-3.4-2.38-7.2-4.15-11.22-5.22-2.24-.7-4.68-.23-6.49,1.27l-6.85,5.48c-2.77,2.27-6.6,2.73-9.82,1.17-12.1-5.73-21.85-15.47-27.58-27.58-1.56-3.22-1.11-7.05,1.16-9.82l5.48-6.85c1.49-1.81,1.97-4.25,1.27-6.49-1.07-4.02-2.84-7.82-5.22-11.22-1.72-2.45-4.13-4.32-6.93-5.39-4.36.25-8.52,1.94-11.82,4.8-3.31,2.86-5.58,6.72-6.47,11h0Zm49.22,12.29c6.94,0,12.57,5.63,12.57,12.57,0,.61.5,1.11,1.11,1.11s1.11-.5,1.11-1.11c0-3.92-1.56-7.69-4.33-10.46-2.78-2.78-6.54-4.34-10.46-4.34-.6.02-1.08.51-1.08,1.11s.48,1.09,1.08,1.11h0Zm0-13.44h0c6.9,0,13.52,2.74,18.4,7.62,4.88,4.88,7.62,11.5,7.62,18.4,0,.3.11.59.31.81.21.21.5.34.8.34s.59-.12.8-.34c.21-.21.32-.51.31-.81,0-7.49-2.97-14.68-8.27-19.98-5.3-5.3-12.48-8.27-19.97-8.27-.61,0-1.11.5-1.11,1.11s.5,1.11,1.11,1.11h0Z"/>
  </g>
</svg>